<svg version="1.1"xmlns="http://www.w3.org/2000/svg" xmlns:xlink="http://www.w3.org/1999/xlink" x="0px" y="0px"
	 viewBox="0 0 391.8 86.3" style="enable-background:new 0 0 391.8 86.3;" xml:space="preserve">
<path d="M63.4,51c2.9,3.4,4.3,7.8,4.3,13.2c0,6.9-2.6,12.3-7.7,16c-5.2,3.8-12.7,5.6-22.7,5.6H0v-81h34.9c9,0,16,1.8,21,5.5
	c4.9,3.6,7.4,8.7,7.4,15.3c0,4.4-1,8.3-3.2,11.4c-2.2,3.1-5.2,5.5-9.1,7C56.3,45.3,60.4,47.5,63.4,51z M8.6,11.9v29.3h25.8
	c6.5,0,11.6-1.3,15.2-3.8c3.5-2.5,5.3-6.1,5.3-10.9s-1.8-8.4-5.3-10.9c-3.5-2.5-8.6-3.8-15.2-3.8C34.4,11.9,8.6,11.9,8.6,11.9z
	 M53.5,75c3.8-2.5,5.6-6.4,5.6-11.6c0-10.1-7.3-15.2-21.9-15.2H8.6v30.4h28.6C44.4,78.8,49.9,77.5,53.5,75z"/>
<path d="M138.4,57.9H87.5c0.5,6.4,2.9,11.4,7.3,15.3c4.4,3.9,10,5.8,16.6,5.8c3.8,0,7.3-0.6,10.4-2.1c3.1-1.3,5.8-3.4,8.2-6l4.7,5.3
	c-2.7,3.2-6.1,5.7-10.1,7.4c-4,1.7-8.4,2.6-13.4,2.6c-6.2,0-11.8-1.3-16.6-4c-4.8-2.6-8.6-6.4-11.3-11c-2.7-4.7-4-10-4-16
	s1.3-11.3,3.9-16c2.6-4.7,6.1-8.3,10.6-11c4.5-2.6,9.6-3.9,15.2-3.9c5.6,0,10.6,1.3,15.2,3.9c4.4,2.6,7.9,6.2,10.5,10.9
	c2.6,4.7,3.8,10,3.8,16V57.9z M94.3,37.3c-4,3.8-6.2,8.6-6.8,14.7h43.1c-0.5-6-2.9-10.9-6.8-14.7c-4-3.8-9-5.6-14.8-5.6
	C103.2,31.5,98.3,33.5,94.3,37.3z"/>
<path d="M155.3,0h8.2v85.8h-8.2V0z"/>
<path d="M186.4,0h8.2v85.8h-8.2V0z"/>
<path d="M270.5,57.9h-50.9c0.5,6.4,2.9,11.4,7.3,15.3c4.4,3.9,10,5.8,16.6,5.8c3.8,0,7.3-0.6,10.4-2.1c3.1-1.3,5.8-3.4,8.2-6
	l4.7,5.3c-2.7,3.2-6.1,5.7-10.1,7.4c-4,1.7-8.4,2.6-13.4,2.6c-6.2,0-11.8-1.3-16.6-4c-4.8-2.6-8.6-6.4-11.3-11c-2.7-4.7-4-10-4-16
	s1.3-11.3,3.9-16s6.1-8.3,10.6-11c4.5-2.6,9.6-3.9,15.2-3.9c5.6,0,10.6,1.3,15.2,3.9c4.4,2.6,7.9,6.2,10.5,10.9
	c2.6,4.7,3.8,10,3.8,16L270.5,57.9z M226.4,37.3c-4,3.8-6.2,8.6-6.8,14.7h43.1c-0.5-6-2.9-10.9-6.8-14.7c-4-3.8-9-5.6-14.8-5.6
	C235.2,31.5,230.3,33.5,226.4,37.3z"/>
<path d="M329.7,79.1v6.9h-49.6v-5.5l38.3-48.4h-37.6v-6.9H329v5.5l-38.3,48.6h39.1V79.1z"/>
<path d="M385.4,30.5c4.3,4,6.4,9.9,6.4,17.7v37.6h-7.9v-9.5c-1.8,3.1-4.5,5.6-8.2,7.4c-3.6,1.8-7.8,2.6-12.7,2.6
	c-6.8,0-12.2-1.6-16.2-4.8c-4-3.2-6-7.5-6-12.9c0-5.2,1.8-9.3,5.6-12.5c3.8-3.1,9.7-4.8,17.9-4.8h19.3v-3.8c0-5.2-1.4-9.2-4.4-11.9
	c-3-2.7-7.3-4.2-12.9-4.2c-3.9,0-7.5,0.6-11.2,1.9c-3.5,1.3-6.6,3-9.1,5.3l-3.8-6.1c3.1-2.6,6.8-4.7,11.2-6.1
	c4.3-1.4,8.8-2.1,13.6-2.1C375.1,24.5,381.2,26.5,385.4,30.5z M376.2,76.7c3.4-2.1,5.8-5.2,7.4-9.2v-10h-19.1
	c-10.4,0-15.6,3.6-15.6,10.9c0,3.5,1.3,6.4,4,8.4c2.7,2.1,6.5,3.1,11.3,3.1C369,80,372.8,78.9,376.2,76.7z"/>
</svg>
