<svg version="1.1" xmlns="http://www.w3.org/2000/svg" xmlns:xlink="http://www.w3.org/1999/xlink" x="0px" y="0px"
	 viewBox="0 0 576.2 119" style="enable-background:new 0 0 576.2 119;" xml:space="preserve">
<path d="M28.3,111.4c-8.9-4.8-15.7-11.5-20.8-20.1C2.4,82.6,0,73,0,62.3s2.5-20.3,7.5-28.9c5.1-8.6,11.9-15.3,20.8-20.1
	C37.1,8.5,47,6,58,6c8.2,0,15.8,1.4,22.8,4.2s12.9,6.7,17.7,12l-7.5,7.5c-8.6-8.7-19.6-13.2-32.8-13.2c-8.7,0-16.7,2-23.9,6.1
	c-7.2,4.1-12.8,9.5-16.9,16.5c-4.1,7-6.1,14.8-6.1,23.4s2,16.5,6.1,23.4c4.1,7,9.6,12.4,16.9,16.5c7.2,4.1,15.2,6.1,23.9,6.1
	c13.3,0,24.2-4.4,32.8-13.3l7.5,7.5c-4.8,5.3-10.8,9.4-17.9,12.2c-7,2.8-14.7,4.2-22.9,4.2C47,118.7,37.1,116.3,28.3,111.4z"/>
<path d="M174.3,41.9c5.8,5.4,8.7,13.6,8.7,24.2v51.7h-10.8v-13c-2.5,4.3-6.2,7.7-11.1,10.1s-10.8,3.7-17.5,3.7
	c-9.2,0-16.7-2.3-22.2-6.7c-5.4-4.4-8.2-10.3-8.2-17.6c0-7.1,2.5-12.8,7.7-17.1c5.1-4.3,13.3-6.5,24.5-6.5h26.5v-5.1
	c0-7.2-2-12.7-6.1-16.3c-4.1-3.8-9.9-5.6-17.6-5.6c-5.3,0-10.4,0.9-15.2,2.7c-4.8,1.8-9,4.2-12.5,7.2l-5.1-8.4
	c4.2-3.5,9.2-6.3,15.2-8.4c6-1.9,12.2-2.9,18.8-2.9C160.1,33.8,168.5,36.5,174.3,41.9z M161.7,105.3c4.6-2.9,8-7.1,10.1-12.5V79.1
	h-26.1c-14.3,0-21.4,4.9-21.4,14.9c0,4.8,1.9,8.7,5.6,11.5c3.7,2.8,8.9,4.2,15.6,4.2C151.7,109.7,157.1,108.2,161.7,105.3z"/>
<path d="M213.6,0.1h11.3v117.6h-11.3V0.1z"/>
<path d="M256,13.8c-1.6-1.6-2.4-3.5-2.4-5.7s0.8-3.9,2.4-5.6c1.6-1.6,3.5-2.4,5.8-2.4c2.3,0,4.3,0.8,5.8,2.3
	c1.6,1.5,2.4,3.3,2.4,5.4c0,2.3-0.8,4.3-2.4,5.8c-1.6,1.6-3.5,2.4-5.8,2.4C259.6,16.2,257.7,15.3,256,13.8z M256.2,34.5h11.3v83.4
	h-11.3V34.5z"/>
<path d="M374.9,0.1v117.6h-10.8v-16.5c-3.4,5.6-7.9,9.9-13.4,12.8s-11.8,4.4-18.8,4.4c-7.9,0-14.9-1.8-21.3-5.4
	c-6.3-3.5-11.3-8.6-14.9-15.1c-3.5-6.5-5.4-13.8-5.4-22s1.8-15.6,5.4-22c3.5-6.5,8.6-11.4,14.9-14.9s13.4-5.3,21.3-5.3
	c6.7,0,12.9,1.4,18.2,4.2c5.4,2.8,9.9,6.8,13.4,12.3V0h11.3V0.1z M348.7,104.5c4.7-2.7,8.4-6.5,11.1-11.5c2.7-4.9,4.1-10.6,4.1-17
	c0-6.3-1.4-12-4.1-17s-6.3-8.7-11.1-11.5c-4.7-2.7-10-4.1-15.7-4.1c-6,0-11.3,1.4-16,4.1c-4.7,2.7-8.4,6.6-11.1,11.5
	c-2.7,4.9-4.1,10.6-4.1,17c0,6.3,1.4,12,4.1,17c2.7,4.9,6.3,8.7,11.1,11.5c4.7,2.7,10,4.1,16,4.1C338.8,108.6,344,107.2,348.7,104.5
	z"/>
<path d="M460.5,41.9c5.8,5.4,8.7,13.6,8.7,24.2v51.7h-10.8v-13c-2.5,4.3-6.2,7.7-11.1,10.1c-4.9,2.4-10.8,3.7-17.5,3.7
	c-9.2,0-16.7-2.3-22.2-6.7c-5.4-4.4-8.2-10.3-8.2-17.6c0-7.1,2.5-12.8,7.7-17.1c5.1-4.3,13.3-6.5,24.5-6.5h26.5v-5.1
	c0-7.2-2-12.7-6.1-16.3c-4.1-3.8-9.9-5.6-17.6-5.6c-5.3,0-10.4,0.9-15.2,2.7c-4.8,1.8-9,4.2-12.5,7.2l-5.1-8.4
	c4.2-3.5,9.2-6.3,15.2-8.4c6-1.9,12.2-2.9,18.8-2.9C446.3,33.8,454.7,36.5,460.5,41.9z M447.9,105.3c4.6-2.9,8-7.1,10.1-12.5V79.1
	h-26.1c-14.3,0-21.4,4.9-21.4,14.9c0,4.8,1.9,8.7,5.6,11.5c3.7,2.8,8.9,4.2,15.6,4.2C437.9,109.7,443.3,108.2,447.9,105.3z"/>
<path d="M576.2,0.1v117.6h-10.8v-16.5c-3.4,5.6-7.9,9.9-13.4,12.8s-11.8,4.4-18.8,4.4c-7.9,0-14.9-1.8-21.3-5.4
	c-6.3-3.5-11.3-8.6-14.9-15.1c-3.5-6.5-5.4-13.8-5.4-22s1.8-15.6,5.4-22c3.5-6.5,8.6-11.4,14.9-14.9s13.4-5.3,21.3-5.3
	c6.7,0,12.9,1.4,18.2,4.2c5.4,2.8,9.9,6.8,13.4,12.3V0h11.3V0.1z M550,104.5c4.7-2.7,8.4-6.5,11.1-11.5c2.7-4.9,4.1-10.6,4.1-17
	c0-6.3-1.4-12-4.1-17s-6.3-8.7-11.1-11.5c-4.7-2.7-10-4.1-15.7-4.1c-6,0-11.3,1.4-16,4.1c-4.7,2.7-8.4,6.6-11.1,11.5
	c-2.7,4.9-4.1,10.6-4.1,17c0,6.3,1.4,12,4.1,17c2.7,4.9,6.3,8.7,11.1,11.5c4.7,2.7,10,4.1,16,4.1C540,108.6,545.3,107.2,550,104.5z"
	/>
</svg>
