<svg version="1.1" xmlns="http://www.w3.org/2000/svg" xmlns:xlink="http://www.w3.org/1999/xlink" x="0px" y="0px"
	 viewBox="0 0 55.8 319" style="enable-background:new 0 0 55.8 319;" xml:space="preserve">
<path d="M3.8,13c2.3-4,5.4-7.3,9.4-9.6c4-2.3,8.4-3.4,13.4-3.4S36,1.1,40,3.4c4,2.3,7.1,5.6,9.4,9.6s3.4,8.8,3.4,13.8
	c0,3.8-0.6,7.3-1.9,10.5c-1.3,3.3-3.1,5.9-5.6,8.2L42,42.2c4-4,6.1-9,6.1-15.1c0-4-1-7.9-2.9-11.1c-1.9-3.3-4.4-5.9-7.7-7.9
	s-6.9-2.9-10.9-2.9c-4,0-7.7,1-10.9,2.9S10,12.5,8,15.9C6.1,19.2,5.2,23,5.2,27c0,6.1,2.1,11.3,6.1,15.1l-3.4,3.4
	c-2.5-2.3-4.4-5-5.6-8.2C1,34.1,0.4,30.7,0.4,26.8C0.4,21.8,1.5,17.2,3.8,13z"/>
<path d="M36,80.9c-2.5,2.7-6.3,4-11.3,4H0.8v-5h5.9c-1.9-1.1-3.6-2.9-4.8-5.2s-1.7-5-1.7-8c0-4.4,1-7.7,3.1-10.3
	c2.1-2.5,4.8-3.8,8.2-3.8c3.3,0,5.9,1.1,7.9,3.6c1.9,2.3,3.1,6.1,3.1,11.3v12.3h2.3c3.3,0,5.9-1,7.7-2.9c1.7-1.9,2.7-4.6,2.7-8.2
	c0-2.5-0.4-4.8-1.1-7.1c-0.8-2.3-1.9-4.2-3.3-5.7l3.8-2.3c1.7,1.9,2.9,4.4,3.8,7.1c1,2.7,1.3,5.6,1.3,8.6
	C39.9,74.3,38.5,78.2,36,80.9z M6.5,74.9c1.3,2.1,3.3,3.6,5.9,4.8h6.3V67.6c0-6.7-2.3-10-6.9-10c-2.3,0-4,0.8-5.4,2.5
	c-1.3,1.7-1.9,4-1.9,7.3C4.6,70.3,5.2,72.8,6.5,74.9z"/>
<path d="M35.6,158.8c-2.9,2.7-6.9,4.2-12.3,4.2H1v-5.2h21.8c4,0,7.1-1,9.2-2.9c2.1-1.9,3.1-4.6,3.1-8.2c0-4-1.1-7.1-3.6-9.6
	c-2.5-2.3-5.9-3.4-10.3-3.4H0.8v-5.2h21.8c4,0,7.1-1,9.2-2.9s3.1-4.6,3.1-8.2c0-4-1.1-7.1-3.6-9.4c-2.5-2.3-5.9-3.4-10.3-3.4H0.6
	v-5.2h38.7v5h-7.1c2.3,1.3,4.2,3.3,5.4,5.7c1.3,2.5,1.9,5.2,1.9,8.4c0,3.3-0.8,6.1-2.1,8.4c-1.3,2.3-3.4,4.2-6.1,5.4
	c2.5,1.3,4.6,3.4,5.9,6.1c1.5,2.7,2.1,5.7,2.1,9.2C39.9,152.1,38.3,156,35.6,158.8z"/>
<path d="M37.4,206.9c-1.7,2.9-4,5.2-6.9,6.9c-3.1,1.7-6.3,2.5-10.2,2.5s-7.3-0.8-10.2-2.5c-3.1-1.7-5.4-4-6.9-6.9
	c-1.7-2.9-2.5-6.1-2.5-9.8c0-3.3,0.8-6.1,2.1-8.6c1.3-2.5,3.4-4.6,5.9-6.1H1.1v-5h54.6v5.2H32.6c2.5,1.5,4.4,3.6,5.7,6.1
	c1.3,2.5,1.9,5.4,1.9,8.4C39.9,200.6,38.9,203.9,37.4,206.9z M6.9,204c1.3,2.3,3.1,4,5.4,5.2c2.3,1.3,5,1.9,7.9,1.9s5.6-0.6,7.9-1.9
	c2.3-1.3,4-3.1,5.4-5.2c1.3-2.3,1.9-4.6,1.9-7.3c0-2.7-0.6-5.2-1.9-7.5c-1.3-2.1-3.1-3.8-5.4-5.2s-5-1.9-7.9-1.9s-5.6,0.6-7.9,1.9
	c-2.3,1.3-4,2.9-5.4,5.2c-1.3,2.1-1.9,4.6-1.9,7.5C5.2,199.3,5.7,201.7,6.9,204z"/>
<path d="M49,226.8c0.8-0.8,1.5-1.1,2.7-1.1c1,0,1.9,0.4,2.5,1.1c0.8,0.8,1.1,1.7,1.1,2.7c0,1.1-0.4,1.9-1.1,2.7
	c-0.8,0.8-1.5,1.1-2.5,1.1c-1.1,0-1.9-0.4-2.7-1.1c-0.8-0.8-1.1-1.7-1.1-2.7C47.9,228.6,48.3,227.6,49,226.8z M39.5,227v5.2H0.8V227
	H39.5z"/>
<path d="M3.1,252.5c1.7-3.1,4-5.4,7.1-7.1c3.1-1.7,6.3-2.5,10.2-2.5s7.1,0.8,10.2,2.5c3.1,1.7,5.4,4,6.9,7.1
	c1.7,3.1,2.5,6.3,2.5,10.2c0,3.6-0.8,7.1-2.5,10.2c-1.7,3.1-4,5.4-6.9,7.1c-3.1,1.7-6.3,2.5-10.2,2.5s-7.1-0.8-10.2-2.5
	s-5.4-4-7.1-7.1c-1.7-3.1-2.5-6.3-2.5-10.2C0.4,258.8,1.3,255.4,3.1,252.5z M6.9,270c1.3,2.1,3.1,3.8,5.4,5.2c2.3,1.1,5,1.9,7.9,1.9
	s5.6-0.6,7.9-1.9c2.3-1.1,4-2.9,5.4-5.2c1.3-2.1,1.9-4.6,1.9-7.5c0-2.7-0.6-5.2-1.9-7.5c-1.3-2.3-3.1-3.8-5.4-5.2s-5-1.9-7.9-1.9
	s-5.6,0.6-7.9,1.9c-2.3,1.3-4,2.9-5.4,5.2S5,259.6,5,262.5C5.2,265.4,5.7,267.7,6.9,270z"/>
<path d="M1.7,294.1c1-2.9,2.1-5.2,3.4-6.7l4,2.3c-1.3,1.5-2.3,3.6-3.1,6.1c-0.8,2.5-1.1,5-1.1,7.7c0,3.4,0.6,6.1,1.7,7.9
	c1.1,1.7,2.7,2.5,4.6,2.5c1.3,0,2.5-0.4,3.3-1.3c0.8-1,1.3-2.1,1.9-3.4c0.4-1.3,0.8-3.3,1.1-5.7c0.6-3.1,1.1-5.7,1.7-7.7
	c0.6-1.9,1.7-3.4,3.1-5c1.5-1.3,3.4-2.1,6.1-2.1c3.3,0,5.9,1.3,7.9,4c2.1,2.7,3.1,6.5,3.1,11.3c0,2.5-0.4,5-1,7.5
	c-0.6,2.5-1.5,4.6-2.7,6.1l-4.2-2.3c2.3-3.3,3.3-6.9,3.3-11.3c0-3.3-0.6-5.9-1.7-7.5c-1.1-1.7-2.7-2.5-4.6-2.5
	c-1.5,0-2.7,0.4-3.4,1.3c-1,1-1.5,2.1-1.9,3.6c-0.4,1.3-0.8,3.4-1.3,5.9c-0.6,3.1-1.1,5.6-1.7,7.5c-0.6,1.9-1.5,3.4-3.1,4.8
	c-1.3,1.3-3.4,1.9-5.9,1.9c-3.4,0-6.1-1.3-8-4.2S0,308.1,0,303.1C0.4,300,1,297,1.7,294.1z"/>
</svg>
