<svg version="1.1" xmlns="http://www.w3.org/2000/svg" xmlns:xlink="http://www.w3.org/1999/xlink" x="0px"
	 y="0px" viewBox="0 0 65.4 422.8" style="enable-background:new 0 0 65.4 422.8;" xml:space="preserve">
<path d="M61.1,407.3c-2.7,4.8-6.3,8.5-11,11.3c-4.7,2.7-10,4.2-15.6,4.2c-5.8,0-11-1.3-15.6-4.2c-4.7-2.7-8.3-6.5-11-11.3
	c-2.7-4.8-4-10.2-4-16.1c0-4.5,0.7-8.7,2.2-12.3c1.5-3.8,3.7-7,6.5-9.7l4,4c-4.8,4.7-7.2,10.7-7.2,17.8c0,4.8,1.2,9.2,3.3,13
	s5.2,7,9,9.2s8,3.3,12.8,3.3c4.7,0,9-1.2,12.8-3.3c3.8-2.2,6.8-5.3,9-9.2s3.3-8.2,3.3-13c0-7.2-2.3-13.2-7.2-17.8l4-4
	c2.8,2.7,5,5.8,6.7,9.7c1.5,3.8,2.3,8,2.3,12.5C65.1,397.2,63.8,402.5,61.1,407.3z"/>
<path d="M61.9,352.1c-2,3.5-4.7,6.3-8.2,8.3c-3.5,2-7.5,3-11.8,3c-4.5,0-8.3-1-11.8-3c-3.5-2-6.2-4.8-8.2-8.3c-2-3.5-3-7.5-3-11.8
	c0-4.3,1-8.3,3-11.8c2-3.5,4.7-6.2,8.2-8.2c3.5-2,7.5-3,11.8-3c4.5,0,8.3,1,11.8,3c3.5,2,6.2,4.7,8.2,8.2c2,3.5,3,7.5,3,11.8
	C64.9,344.6,63.9,348.6,61.9,352.1z M57.3,331.6c-1.5-2.5-3.5-4.5-6.2-6c-2.7-1.5-5.8-2.2-9.2-2.2c-3.3,0-6.5,0.7-9.2,2.2
	c-2.7,1.5-4.8,3.5-6.2,6c-1.5,2.5-2.2,5.5-2.2,8.7s0.7,6.2,2.2,8.7s3.5,4.5,6.2,6c2.7,1.5,5.8,2.2,9.2,2.2c3.3,0,6.5-0.7,9.2-2.2
	c2.7-1.5,4.8-3.5,6.2-6c1.5-2.5,2.2-5.5,2.2-8.7C59.6,336.9,58.8,334.1,57.3,331.6z"/>
<path d="M23.8,268.2c3.3-3.3,8.2-5,14.5-5h26.3v6.2H38.8c-4.7,0-8.3,1.2-10.8,3.5c-2.5,2.3-3.7,5.7-3.7,10.2c0,4.8,1.5,8.7,4.3,11.7
	c2.8,2.8,6.8,4.3,12,4.3h23.8v6.2H19.1v-5.8h8.3c-2.8-1.7-4.8-4-6.5-7c-1.5-3-2.3-6.3-2.3-10.3C18.8,276,20.5,271.5,23.8,268.2z"/>
<path d="M7.5,237.5c1.5,1.3,3.5,2,6.3,2h5.3v-14h5.2v13.8h40.1v6.2H24.3v8.2h-5.2v-8.2h-5.7c-4.2,0-7.3-1.2-9.8-3.5
	c-2.3-2.3-3.7-5.8-3.7-10.2c0-1.7,0.2-3.3,0.7-5s1.2-3,2.2-4l4.5,2c-1.5,1.8-2.2,4-2.2,6.7C5.3,234,6.2,236,7.5,237.5z M8,210.4
	c-0.8,0.8-1.8,1.3-3.2,1.3c-1.2,0-2.2-0.5-3-1.3c-0.8-0.8-1.3-2-1.3-3.2c0-1.3,0.5-2.3,1.3-3.2c0.8-0.8,1.8-1.3,3-1.3
	c1.3,0,2.3,0.5,3.2,1.3c0.8,0.8,1.3,2,1.3,3.2C9.3,208.6,8.8,209.6,8,210.4z M19.3,210.4v-6.2h45.3v6.2H19.3z"/>
<path d="M23.3,157.8c3-3.2,7.3-4.7,13.2-4.7h28.1v5.8h-7c2.3,1.3,4.2,3.3,5.5,6s2,5.8,2,9.5c0,5-1.2,9-3.7,12
	c-2.3,3-5.7,4.5-9.5,4.5c-3.8,0-7-1.3-9.3-4.2c-2.3-2.8-3.5-7.2-3.5-13.3v-14.3h-2.8c-3.8,0-6.8,1.2-9,3.3c-2,2.2-3,5.3-3,9.5
	c0,2.8,0.5,5.7,1.5,8.3s2.3,4.8,4,6.8l-4.5,2.8c-2-2.3-3.5-5-4.5-8.3c-1-3.2-1.7-6.7-1.7-10.2C18.8,165.5,20.3,161,23.3,157.8z
	 M57.8,164.6c-1.5-2.5-3.8-4.3-6.8-5.5h-7.3v14.1c0,7.8,2.7,11.7,8.2,11.7c2.7,0,4.7-1,6.2-3c1.5-2,2.3-4.8,2.3-8.5
	C60.1,170.1,59.3,167.1,57.8,164.6z"/>
<path d="M23.8,99.9c3.3-3.3,8.2-5,14.5-5h26.3v6H38.8c-4.7,0-8.3,1.2-10.8,3.5c-2.5,2.3-3.7,5.7-3.7,10.2c0,4.8,1.5,8.7,4.3,11.7
	c2.8,2.8,6.8,4.3,12,4.3h23.8v6.2H19.1v-5.8h8.3c-2.8-1.7-4.8-4-6.5-7c-1.5-3-2.3-6.3-2.3-10.3C18.8,107.7,20.5,103.2,23.8,99.9z"/>
<path d="M59.4,46.3h5.2v36.8h-4.2L24.3,54.6v28h-5.2V46.8h4l36.1,28.5v-29H59.4z"/>
<path d="M23.3,4.7c3-3.2,7.3-4.7,13.2-4.7h28.1v5.8h-7c2.3,1.3,4.2,3.3,5.5,6s2,5.8,2,9.5c0,5-1.2,9-3.7,12c-2.3,3-5.7,4.5-9.5,4.5
	c-3.8,0-7-1.3-9.3-4.2c-2.3-2.8-3.5-7.2-3.5-13.3V6h-2.8c-3.8,0-6.8,1.2-9,3.3c-2,2.2-3,5.3-3,9.5c0,2.8,0.5,5.7,1.5,8.3
	s2.3,4.8,4,6.8l-4.5,2.8c-2-2.3-3.5-5-4.5-8.3c-1-3.2-1.7-6.7-1.7-10.2C18.8,12.5,20.3,7.8,23.3,4.7z M57.8,11.7
	c-1.5-2.5-3.8-4.3-6.8-5.5h-7.3v14.1c0,7.8,2.7,11.7,8.2,11.7c2.7,0,4.7-1,6.2-3c1.5-2,2.3-4.8,2.3-8.5C60.1,17,59.3,14.1,57.8,11.7
	z"/>
</svg>
