<svg version="1.1" xmlns="http://www.w3.org/2000/svg" xmlns:xlink="http://www.w3.org/1999/xlink" x="0px" y="0px"
	 viewBox="0 0 398.3 68.9" style="enable-background:new 0 0 398.3 68.9;" xml:space="preserve">
<g>
	<path d="M0,4.1h29c7.5,0,14.2,1.4,20,4.3c5.8,2.9,10.3,6.9,13.4,12.1c3.2,5.2,4.8,11.1,4.8,17.7c0,6.6-1.6,12.6-4.8,17.7
		c-3.2,5.2-7.7,9.2-13.4,12.1c-5.8,2.9-12.4,4.3-20,4.3H0V4.1z M28.6,66.3c6.2,0,11.7-1.2,16.4-3.6c4.7-2.4,8.3-5.7,10.9-9.9
		c2.6-4.2,3.9-9,3.9-14.5c0-5.5-1.3-10.3-3.9-14.5c-2.6-4.2-6.2-7.5-10.9-9.9c-4.7-2.4-10.2-3.6-16.4-3.6H7.5v55.9H28.6z"/>
	<path d="M129.2,49H84.4c0.4,5.3,2.5,9.7,6.4,12.9c3.9,3.3,8.8,4.9,14.7,4.9c3.3,0,6.4-0.6,9.2-1.7c2.8-1.1,5.2-2.8,7.2-5l4.1,4.5
		c-2.4,2.7-5.3,4.8-8.9,6.3c-3.6,1.4-7.5,2.2-11.8,2.2c-5.5,0-10.4-1.1-14.6-3.4c-4.2-2.2-7.6-5.4-9.9-9.3c-2.4-4-3.6-8.5-3.6-13.5
		c0-5,1.1-9.5,3.4-13.5c2.3-4,5.4-7.1,9.4-9.3s8.4-3.3,13.4-3.3c5,0,9.4,1.1,13.3,3.3c3.9,2.2,7,5.3,9.3,9.2
		c2.2,3.9,3.4,8.5,3.4,13.5L129.2,49z M90.4,31.4c-3.5,3.2-5.5,7.3-6,12.4h38c-0.5-5.1-2.5-9.2-6-12.4c-3.5-3.2-7.9-4.7-13.1-4.7
		C98.2,26.7,93.9,28.3,90.4,31.4z"/>
	<path d="M172.3,69.4c-1.4,1.2-3,2.1-5,2.7c-2,0.6-4.1,0.9-6.3,0.9c-5,0-8.9-1.3-11.6-3.9c-2.7-2.6-4.1-6.3-4.1-11V27h-9.6v-5.9h9.6
		V9.9h7.2v11.2h16.3V27h-16.3v30.7c0,3.1,0.8,5.4,2.4,7c1.6,1.6,3.9,2.4,6.9,2.4c1.5,0,2.9-0.2,4.3-0.7c1.4-0.5,2.6-1.1,3.6-2
		L172.3,69.4z"/>
	<path d="M220.3,25.7c3.7,3.4,5.6,8.3,5.6,14.9v31.9H219v-8c-1.6,2.7-4,4.8-7.2,6.3c-3.2,1.5-6.9,2.2-11.3,2.2
		c-6,0-10.7-1.4-14.3-4.1c-3.5-2.7-5.3-6.4-5.3-10.8c0-4.4,1.6-7.9,4.9-10.6c3.3-2.7,8.5-4,15.7-4h17v-3.1c0-4.4-1.3-7.8-3.9-10.1
		c-2.6-2.3-6.3-3.5-11.3-3.5c-3.4,0-6.7,0.5-9.8,1.6c-3.1,1.1-5.8,2.6-8,4.4l-3.3-5.2c2.7-2.2,6-3.9,9.8-5.1c3.8-1.2,7.8-1.8,12-1.8
		C211.2,20.7,216.5,22.4,220.3,25.7z M212.1,64.8c2.9-1.8,5.1-4.4,6.5-7.8v-8.4h-16.8c-9.2,0-13.7,3.1-13.7,9.2c0,3,1.2,5.4,3.6,7.1
		c2.4,1.7,5.7,2.6,10,2.6C205.7,67.5,209.2,66.6,212.1,64.8z"/>
	<path d="M245.5,0h7.2v72.5h-7.2V0z"/>
	<path d="M272.9,0h7.2v72.5h-7.2V0z"/>
	<path d="M347,49h-44.8c0.4,5.3,2.5,9.7,6.4,12.9c3.9,3.3,8.8,4.9,14.7,4.9c3.3,0,6.4-0.6,9.2-1.7c2.8-1.1,5.2-2.8,7.2-5l4.1,4.5
		c-2.4,2.7-5.3,4.8-8.9,6.3c-3.6,1.4-7.5,2.2-11.8,2.2c-5.5,0-10.4-1.1-14.6-3.4c-4.2-2.2-7.6-5.4-9.9-9.3c-2.4-4-3.6-8.5-3.6-13.5
		c0-5,1.1-9.5,3.4-13.5c2.3-4,5.4-7.1,9.4-9.3c4-2.2,8.4-3.3,13.4-3.3c5,0,9.4,1.1,13.3,3.3s7,5.3,9.3,9.2c2.2,3.9,3.4,8.5,3.4,13.5
		L347,49z M308.1,31.4c-3.5,3.2-5.5,7.3-6,12.4h38c-0.5-5.1-2.5-9.2-6-12.4c-3.5-3.2-7.9-4.7-13.1-4.7
		C315.9,26.7,311.6,28.3,308.1,31.4z"/>
	<path d="M363.7,71.2c-4-1.2-7.1-2.7-9.3-4.5l3.3-5.5c2.2,1.7,5.1,3.1,8.5,4.2c3.4,1.1,6.9,1.6,10.6,1.6c4.9,0,8.5-0.7,10.8-2.2
		c2.3-1.5,3.5-3.5,3.5-6.2c0-1.9-0.6-3.4-1.9-4.4c-1.3-1.1-2.9-1.9-4.9-2.4c-2-0.6-4.6-1.1-7.8-1.6c-4.3-0.8-7.8-1.6-10.5-2.4
		c-2.6-0.8-4.9-2.2-6.8-4.2c-1.9-2-2.8-4.7-2.8-8.1c0-4.3,1.9-7.8,5.6-10.6c3.7-2.7,8.9-4.1,15.6-4.1c3.5,0,6.9,0.4,10.4,1.3
		c3.5,0.9,6.3,2,8.6,3.5l-3.2,5.6c-4.4-2.9-9.7-4.4-15.8-4.4c-4.6,0-8.1,0.8-10.4,2.3c-2.3,1.6-3.5,3.6-3.5,6.2c0,2,0.7,3.5,2,4.7
		c1.3,1.2,3,2,4.9,2.6c2,0.6,4.7,1.1,8.1,1.7c4.3,0.8,7.7,1.6,10.3,2.3c2.6,0.8,4.8,2.1,6.6,4c1.8,1.9,2.8,4.5,2.8,7.8
		c0,4.5-2,8.1-5.9,10.7c-3.9,2.6-9.3,4-16.2,4C371.9,73,367.7,72.4,363.7,71.2z"/>
</g>
</svg>
