<svg version="1.1" xmlns="http://www.w3.org/2000/svg" xmlns:xlink="http://www.w3.org/1999/xlink" x="0px" y="0px"
	 viewBox="0 0 398.3 68.9" style="enable-background:new 0 0 398.3 68.9;" xml:space="preserve">
<g>
	<path d="M0,2c5.3-0.8,11.5-1.4,18.3-1.4c12.4,0,21.2,2.9,27,8.3c5.9,5.4,9.4,13.2,9.4,24c0,10.9-3.4,19.8-9.6,26
		c-6.2,6.2-16.5,9.6-29.5,9.6c-6.1,0-11.3-0.3-15.7-0.8V2z M8.6,61c2.2,0.4,5.3,0.5,8.7,0.5c18.4,0,28.4-10.3,28.4-28.3
		c0.1-15.8-8.8-25.8-27-25.8c-4.5,0-7.8,0.4-10.1,0.9V61z"/>
	<path d="M100.6,36.6h-26v24.1h28.9v7.2H66V1.1h36.1v7.2H74.6v21.1h26V36.6z"/>
	<path d="M129.1,8.4h-20.3V1.1h49.4v7.3h-20.4v59.4h-8.7V8.4z"/>
	<path d="M169,46.9l-6.9,21h-8.9l22.7-66.8h10.4L209,67.9h-9.2l-7.1-21H169z M190.9,40.1l-6.5-19.2c-1.5-4.4-2.5-8.3-3.5-12.2h-0.2
		c-1,4-2.1,8-3.4,12.1l-6.5,19.3H190.9z"/>
	<path d="M218.9,1.1h8.6v59.5H256v7.2h-37.2V1.1z"/>
	<path d="M265.7,1.1h8.6v59.5h28.5v7.2h-37.2V1.1z"/>
	<path d="M347,36.6h-26v24.1H350v7.2h-37.6V1.1h36.1v7.2h-27.4v21.1h26V36.6z"/>
	<path d="M360,57.4c3.9,2.4,9.5,4.4,15.5,4.4c8.8,0,14-4.7,14-11.4c0-6.2-3.6-9.8-12.6-13.3c-10.9-3.9-17.6-9.5-17.6-18.9
		c0-10.4,8.6-18.1,21.6-18.1c6.8,0,11.8,1.6,14.8,3.3l-2.4,7c-2.2-1.2-6.6-3.2-12.7-3.2c-9.1,0-12.6,5.4-12.6,10
		c0,6.2,4.1,9.3,13.3,12.9c11.3,4.4,17,9.8,17,19.6c0,10.3-7.6,19.2-23.4,19.2c-6.4,0-13.5-1.9-17-4.3L360,57.4z"/>
</g>
</svg>
