<svg version="1.1" xmlns="http://www.w3.org/2000/svg" xmlns:xlink="http://www.w3.org/1999/xlink" x="0px" y="0px"
	 viewBox="0 0 54.7 386.2" style="enable-background:new 0 0 54.7 386.2;" xml:space="preserve">
<g>
	<path d="M51.3,0v22.4c0,5.8-1.1,10.9-3.2,15.4c-2.2,4.5-5.2,7.9-9,10.4c-3.9,2.5-8.3,3.7-13.2,3.7c-4.9,0-9.3-1.2-13.2-3.7
		c-3.9-2.5-6.9-5.9-9-10.4c-2.2-4.5-3.2-9.6-3.2-15.4V0H51.3z M5,22.1c0,4.8,0.9,9,2.7,12.7c1.8,3.6,4.2,6.4,7.3,8.4
		c3.1,2,6.7,3,10.8,3c4.1,0,7.7-1,10.8-3c3.1-2,5.6-4.8,7.3-8.4c1.8-3.6,2.7-7.8,2.7-12.7V5.8H5V22.1z"/>
	<path d="M48.1,63.7c0.7-0.8,1.6-1.2,2.6-1.2c1,0,1.8,0.4,2.5,1.2c0.7,0.8,1.1,1.8,1.1,2.9c0,1.2-0.4,2.1-1.1,2.9
		c-0.7,0.8-1.5,1.2-2.5,1.2c-1.1,0-2-0.4-2.7-1.2c-0.7-0.8-1.1-1.8-1.1-2.9C47,65.4,47.4,64.4,48.1,63.7z M38.6,63.7v5.6H0.4v-5.6
		H38.6z"/>
	<path d="M48.5,93.1c-1.2-1.2-3-1.8-5.4-1.8h-4.5V104h-4.4V91.4H0.4v-5.6h33.9v-7.4h4.4v7.4h4.7c3.5,0,6.3,1.1,8.3,3.3
		c2,2.2,3.1,5.3,3.1,9.2c0,1.6-0.2,3.1-0.6,4.6c-0.4,1.5-1,2.7-1.8,3.7l-3.9-1.9c1.3-1.6,1.9-3.7,1.9-6.1
		C50.3,96.1,49.7,94.3,48.5,93.1z"/>
	<path d="M17.9,146.8v-34.6c-4,0.3-7.2,2-9.6,5c-2.4,3-3.7,6.8-3.7,11.3c0,2.6,0.4,4.9,1.3,7.1c0.8,2.1,2.1,4,3.7,5.6l-3.3,3.1
		c-2-1.8-3.6-4.1-4.7-6.9c-1.1-2.8-1.6-5.8-1.6-9.1c0-4.2,0.8-8,2.5-11.3c1.7-3.3,4-5.8,6.9-7.7c3-1.8,6.3-2.8,10-2.8
		c3.7,0,7.1,0.9,10,2.6c3,1.8,5.3,4.2,6.9,7.2c1.6,3.1,2.5,6.5,2.5,10.3c0,3.8-0.8,7.3-2.5,10.3c-1.6,3-3.9,5.4-6.9,7.2
		c-2.9,1.7-6.3,2.6-10.1,2.6L17.9,146.8z M31,116.8c-2.4-2.7-5.4-4.2-9.2-4.6v29.3c3.8-0.4,6.8-1.9,9.2-4.6
		c2.4-2.7,3.5-6.1,3.5-10.1C34.5,122.9,33.3,119.5,31,116.8z"/>
	<path d="M37,169.5c1.3,2.6,2,5.8,2,9.6h-5l0.1-1.3c0-4.3-1.2-7.8-3.7-10.2c-2.5-2.5-5.9-3.7-10.4-3.7H0.4v-5.6h38.3v5.3h-7.5
		C33.7,164.9,35.6,166.9,37,169.5z"/>
	<path d="M17.9,224.8v-34.6c-4,0.3-7.2,2-9.6,5c-2.4,3-3.7,6.8-3.7,11.3c0,2.6,0.4,4.9,1.3,7.1c0.8,2.1,2.1,4,3.7,5.6l-3.3,3.1
		c-2-1.8-3.6-4.1-4.7-6.9c-1.1-2.8-1.6-5.8-1.6-9.1c0-4.2,0.8-8,2.5-11.3c1.7-3.3,4-5.8,6.9-7.7c3-1.8,6.3-2.8,10-2.8
		c3.7,0,7.1,0.9,10,2.6c3,1.8,5.3,4.2,6.9,7.2c1.6,3.1,2.5,6.5,2.5,10.3c0,3.8-0.8,7.3-2.5,10.3c-1.6,3-3.9,5.4-6.9,7.2
		c-2.9,1.7-6.3,2.6-10.1,2.6L17.9,224.8z M31,194.8c-2.4-2.7-5.4-4.2-9.2-4.6v29.3c3.8-0.4,6.8-1.9,9.2-4.6
		c2.4-2.7,3.5-6.1,3.5-10.1C34.5,200.8,33.3,197.5,31,194.8z"/>
	<path d="M34.7,269.7c-2.8,3.1-6.8,4.6-12.2,4.6H0.4v-5.6H22c4,0,7-1.1,9.1-3.2c2.1-2.1,3.1-5.2,3.1-9.2c0-4.5-1.2-8-3.7-10.6
		c-2.4-2.6-5.8-3.9-10.1-3.9H0.4v-5.6h38.3v5.3h-7.1c2.3,1.5,4.1,3.6,5.4,6.3c1.3,2.7,1.9,5.8,1.9,9.4
		C38.9,262.5,37.5,266.6,34.7,269.7z"/>
	<path d="M2.5,295.8c1.6-3.2,4-5.7,6.9-7.6c3-1.8,6.3-2.8,10.1-2.8c3.7,0,7.1,0.9,10,2.8c3,1.8,5.3,4.4,6.9,7.6
		c1.6,3.2,2.5,6.9,2.5,11c0,3.6-0.6,6.7-1.9,9.5s-3.2,5-5.6,6.6l-2.6-4.2c1.9-1.4,3.3-3.1,4.3-5.2c0.9-2.1,1.4-4.4,1.4-6.8
		c0-3-0.6-5.7-1.9-8.1c-1.2-2.4-3-4.2-5.3-5.6s-4.9-2-7.8-2c-3,0-5.6,0.7-7.8,2c-2.3,1.3-4,3.2-5.2,5.6c-1.2,2.4-1.9,5.1-1.9,8.1
		c0,2.5,0.5,4.7,1.4,6.8c0.9,2.1,2.3,3.8,4.2,5.2l-2.6,4.2c-2.5-1.6-4.4-3.9-5.6-6.7c-1.3-2.8-1.9-6-1.9-9.5
		C0,302.7,0.8,299,2.5,295.8z"/>
	<path d="M48.1,333.8c0.7-0.8,1.6-1.2,2.6-1.2c1,0,1.8,0.4,2.5,1.2c0.7,0.8,1.1,1.8,1.1,2.9s-0.4,2.1-1.1,2.9
		c-0.7,0.8-1.5,1.2-2.5,1.2c-1.1,0-2-0.4-2.7-1.2c-0.7-0.8-1.1-1.8-1.1-2.9S47.4,334.6,48.1,333.8z M38.6,333.9v5.6H0.4v-5.6H38.6z"
		/>
	<path d="M35.2,381.9c-2.5,2.9-6.2,4.3-11.1,4.3H0.4v-5.3h6c-2-1.3-3.5-3.1-4.7-5.5S0,370,0,366.6c0-4.6,1-8.3,3.1-11
		s4.7-4.1,8.1-4.1c3.2,0,5.9,1.3,7.9,3.8c2,2.5,3,6.6,3,12.1v13.1h2.3c3.3,0,5.8-1,7.5-3c1.7-2,2.6-4.9,2.6-8.7
		c0-2.6-0.4-5.1-1.2-7.5c-0.8-2.4-1.9-4.5-3.3-6.2l3.9-2.5c1.6,2.1,2.9,4.6,3.8,7.5c0.9,2.9,1.3,6,1.3,9.3
		C38.9,374.9,37.7,379,35.2,381.9z M6.1,375.6c1.3,2.3,3.3,3.9,5.8,5h6.3v-13c0-7.1-2.3-10.6-6.8-10.6c-2.2,0-4,0.9-5.3,2.8
		c-1.3,1.8-1.9,4.4-1.9,7.7C4.1,370.6,4.7,373.3,6.1,375.6z"/>
</g>
</svg>
