<svg version="1.1" xmlns="http://www.w3.org/2000/svg" xmlns:xlink="http://www.w3.org/1999/xlink" x="0px" y="0px"
	 viewBox="0 0 54.7 386.2" style="enable-background:new 0 0 54.7 386.2;" xml:space="preserve">
<g>
	<path d="M53.1,0c0.6,4.2,1.1,9.1,1.1,14.6c0,9.8-2.3,16.8-6.6,21.5c-4.3,4.7-10.5,7.5-19,7.5c-8.7,0-15.7-2.7-20.6-7.6
		c-5-5-7.6-13.1-7.6-23.5c0-4.9,0.2-9,0.6-12.4H53.1z M6.2,6.8c-0.3,1.7-0.4,4.2-0.4,6.9c0,14.6,8.2,22.6,22.5,22.6
		c12.5,0.1,20.5-7,20.5-21.5c0-3.5-0.3-6.2-0.7-8H6.2z"/>
	<path d="M53.8,59.3H0.8v-6.8h53.1V59.3z"/>
	<path d="M53.8,71.3v28.6h-5.7V78.1H30.5v20.1h-5.7V78.1h-24v-6.8H53.8z"/>
	<path d="M25.7,137.1v-20.6H6.5v23H0.8v-29.8h53.1v28.7h-5.7v-21.8H31.3v20.6H25.7z"/>
	<path d="M53.1,148.4c0.7,3.5,1.1,8.4,1.1,13.1c0,7.3-1.3,12-4.3,15.3c-2.4,2.7-6,4.2-10.1,4.2c-7,0-11.6-4.4-13.5-10h-0.2
		c-1.4,4.1-5.2,6.5-10.7,7.8c-7.4,1.7-12.5,3-14.6,4.1v-7.1c1.5-0.9,6.1-2,12.7-3.5c7.3-1.6,10.1-4.4,10.3-10.6v-6.5h-23v-6.8H53.1z
		 M29,155.2v7c0,7.3,4,12,10.1,12c6.8,0,9.8-5,9.9-12.2c0-3.3-0.3-5.7-0.6-6.8H29z"/>
	<path d="M25.7,218.2v-20.6H6.5v23H0.8v-29.8h53.1v28.7h-5.7v-21.8H31.3v20.6H25.7z"/>
	<path d="M0.8,229.5h53.1v7.5L27,254c-6.2,3.9-11.8,7-17.2,9.5l0.1,0.2c7.1-0.6,13.5-0.8,21.8-0.8h22.2v6.5H0.8v-6.9l26.9-16.8
		c5.9-3.7,12-7.2,17.7-9.9l-0.1-0.2c-6.7,0.4-13.1,0.6-21.9,0.6H0.8V229.5z"/>
	<path d="M2.5,318.4c-1.3-2.5-2.5-7.6-2.5-14c0-15,9.4-26.2,26.8-26.2c16.6,0,27.9,11.3,27.9,27.7c0,6.6-1.4,10.8-2.4,12.6l-5.6-1.7
		c1.3-2.6,2.2-6.3,2.2-10.7c0-12.4-8-20.7-21.9-20.7c-13,0-21.3,7.5-21.3,20.4c0,4.2,0.9,8.4,2.2,11.2L2.5,318.4z"/>
	<path d="M53.8,333.9H0.8V327h53.1V333.9z"/>
	<path d="M17.5,354.4l-16.7-5.5v-7.1l53.1,18v8.3L0.8,386.2v-7.3l16.7-5.7V354.4z M22.8,371.8l15.3-5.2c3.5-1.2,6.6-2,9.7-2.8v-0.2
		c-3.2-0.8-6.4-1.7-9.6-2.7l-15.3-5.2V371.8z"/>
</g>
</svg>
