<svg version="1.1" xmlns="http://www.w3.org/2000/svg" xmlns:xlink="http://www.w3.org/1999/xlink" x="0px"
	 y="0px" viewBox="0 0 573.9 381.8" style="enable-background:new 0 0 573.9 381.8;" xml:space="preserve">
<path d="M39.7,11.9H0.6V2.1h90v9.8H51.5v97H39.7V11.9z"/>
<path d="M180.1,28.7v80.3h-10.8V94.3c-3,4.9-7.1,8.7-12.2,11.4c-5.2,2.7-11.1,4-17.8,4c-10.9,0-19.5-2.9-25.8-8.8
	c-6.3-5.8-9.5-14.4-9.5-25.7V28.7h11.3v45.5c0,8.4,2.2,14.9,6.5,19.2c4.3,4.4,10.5,6.6,18.6,6.6c8.8,0,15.7-2.6,20.8-7.7
	c5.1-5.1,7.6-12.3,7.6-21.4V28.7H180.1z"/>
<path d="M133.7,132.1v106.8h-11.3v-85.4l-43.7,71.9h-5.6l-43.7-71.4v85H18.1V132.1h9.7l48.4,79.2l47.9-79.2H133.7z"/>
<path d="M240.4,202.1h-70c0.6,8.3,4,15.1,10,20.2c6,5.1,13.7,7.7,22.9,7.7c5.2,0,10-0.9,14.3-2.7c4.3-1.8,8.1-4.4,11.3-7.9l6.4,7
	c-3.7,4.3-8.3,7.5-13.9,9.8c-5.6,2.2-11.7,3.4-18.4,3.4c-8.6,0-16.2-1.8-22.8-5.3c-6.6-3.5-11.8-8.4-15.5-14.6
	c-3.7-6.2-5.6-13.2-5.6-21.1c0-7.8,1.8-14.8,5.3-21.1c3.6-6.2,8.4-11,14.6-14.5c6.2-3.5,13.2-5.2,20.9-5.2c7.7,0,14.7,1.7,20.8,5.2
	c6.1,3.5,11,8.3,14.5,14.4c3.5,6.2,5.2,13.2,5.2,21.1L240.4,202.1z M179.7,174.7c-5.5,4.9-8.6,11.4-9.3,19.3h59.3
	c-0.7-7.9-3.8-14.4-9.3-19.3c-5.5-4.9-12.3-7.4-20.4-7.4C191.9,167.3,185.2,169.8,179.7,174.7z"/>
<path d="M241.3,268c-3.1-0.9-5.7-2.2-7.7-3.9l4-8.2c3.3,2.7,7.6,4.1,13,4.1c4.5,0,7.9-1.3,10.3-3.8c2.4-2.5,3.6-6.3,3.6-11.3v-86.2
	h11.3v86.2c0,7.5-2.1,13.5-6.4,17.9c-4.2,4.4-10.3,6.6-18.1,6.6C247.7,269.3,244.4,268.8,241.3,268z M264.3,138.7
	c-1.6-1.5-2.4-3.4-2.4-5.5c0-2,0.8-3.8,2.4-5.3c1.6-1.5,3.6-2.3,5.9-2.3c2.3,0,4.3,0.7,5.9,2.2c1.6,1.5,2.4,3.2,2.4,5.3
	c0,2.2-0.8,4.1-2.4,5.6c-1.6,1.5-3.6,2.3-5.9,2.3C267.8,140.9,265.8,140.2,264.3,138.7z"/>
<path d="M319.6,234.4c-6.5-3.5-11.6-8.4-15.3-14.6c-3.7-6.2-5.6-13.2-5.6-21.1c0-7.8,1.9-14.8,5.6-21.1c3.7-6.2,8.8-11,15.3-14.5
	c6.5-3.5,13.7-5.2,21.8-5.2c8.1,0,15.3,1.7,21.8,5.2c6.5,3.5,11.5,8.3,15.2,14.5c3.7,6.2,5.5,13.2,5.5,21.1c0,7.8-1.8,14.9-5.5,21.1
	c-3.7,6.2-8.7,11.1-15.2,14.6c-6.5,3.5-13.7,5.3-21.8,5.3C333.3,239.7,326.1,237.9,319.6,234.4z M357.4,226.2
	c4.7-2.6,8.4-6.3,11.1-11.1c2.6-4.8,4-10.2,4-16.3c0-6.1-1.3-11.5-4-16.3c-2.7-4.8-6.3-8.5-11.1-11.1c-4.7-2.6-10-3.9-16-3.9
	c-5.9,0-11.3,1.3-16,3.9c-4.7,2.6-8.4,6.3-11.1,11.1c-2.7,4.8-4.1,10.2-4.1,16.3c0,6.1,1.4,11.5,4.1,16.3c2.7,4.8,6.4,8.5,11.1,11.1
	c4.7,2.6,10,3.9,16,3.9C347.3,230.1,352.7,228.8,357.4,226.2z"/>
<path d="M429.6,162.2c5.2-2.7,11.7-4.1,19.5-4.1v10.5l-2.7-0.2c-8.8,0-15.7,2.6-20.7,7.8c-5,5.2-7.5,12.5-7.5,21.8v40.9h-11.3v-80.3
	h10.8v15.7C420.4,169,424.3,164.9,429.6,162.2z"/>
<path d="M110.6,274.7L61.3,381.5H49.7L0.4,274.7h12.7l42.6,92.8l42.9-92.8H110.6z"/>
<path d="M190.8,344.8h-70c0.6,8.3,4,15.1,10,20.2c6,5.1,13.7,7.7,22.9,7.7c5.2,0,10-0.9,14.3-2.7c4.3-1.8,8.1-4.4,11.3-7.9l6.4,7
	c-3.7,4.3-8.3,7.5-13.9,9.8c-5.6,2.2-11.7,3.4-18.4,3.4c-8.6,0-16.2-1.8-22.8-5.3c-6.6-3.5-11.8-8.4-15.5-14.6
	c-3.7-6.2-5.6-13.2-5.6-21.1c0-7.8,1.8-14.8,5.3-21.1c3.6-6.2,8.4-11,14.6-14.5c6.2-3.5,13.2-5.2,20.9-5.2c7.7,0,14.7,1.7,20.8,5.2
	c6.1,3.5,11,8.3,14.5,14.4c3.5,6.2,5.2,13.2,5.2,21.1L190.8,344.8z M130.1,317.4c-5.5,4.9-8.6,11.4-9.3,19.3h59.3
	c-0.7-7.9-3.8-14.4-9.3-19.3c-5.5-4.9-12.3-7.4-20.4-7.4C142.3,310,135.6,312.4,130.1,317.4z"/>
<path d="M236.7,304.8c5.2-2.7,11.7-4.1,19.5-4.1v10.5l-2.7-0.2c-8.8,0-15.7,2.6-20.7,7.8c-5,5.2-7.5,12.5-7.5,21.8v40.9H214v-80.3
	h10.8V317C227.5,311.6,231.4,307.5,236.7,304.8z"/>
<path d="M280.1,379.5c-6.2-1.9-11.1-4.2-14.6-7.1l5.1-8.5c3.5,2.6,7.9,4.8,13.2,6.5c5.3,1.7,10.8,2.5,16.5,2.5
	c7.6,0,13.3-1.1,16.9-3.4c3.7-2.3,5.5-5.5,5.5-9.7c0-2.9-1-5.3-3-6.9c-2-1.7-4.6-2.9-7.6-3.8c-3.1-0.9-7.2-1.7-12.2-2.5
	c-6.8-1.2-12.2-2.5-16.4-3.7c-4.1-1.3-7.7-3.4-10.6-6.5c-2.9-3.1-4.4-7.3-4.4-12.7c0-6.7,2.9-12.2,8.7-16.5
	c5.8-4.3,13.9-6.4,24.3-6.4c5.4,0,10.8,0.7,16.2,2.1c5.4,1.4,9.9,3.2,13.4,5.4l-4.9,8.7c-6.9-4.6-15.1-6.9-24.7-6.9
	c-7.2,0-12.6,1.2-16.3,3.7c-3.7,2.4-5.5,5.6-5.5,9.6c0,3.1,1,5.5,3.1,7.3c2.1,1.8,4.6,3.2,7.7,4c3.1,0.9,7.3,1.8,12.7,2.7
	c6.7,1.2,12,2.4,16.1,3.7c4,1.2,7.5,3.3,10.3,6.3c2.9,3,4.3,7,4.3,12.2c0,7-3,12.6-9.1,16.7c-6.1,4.1-14.6,6.2-25.4,6.2
	C292.8,382.3,286.3,381.4,280.1,379.5z"/>
<path d="M354.8,281.4c-1.6-1.5-2.4-3.4-2.4-5.5c0-2,0.8-3.8,2.4-5.3c1.6-1.5,3.6-2.3,5.9-2.3c2.3,0,4.3,0.7,5.9,2.2
	c1.6,1.5,2.4,3.2,2.4,5.3c0,2.2-0.8,4.1-2.4,5.6c-1.6,1.5-3.6,2.3-5.9,2.3C358.3,283.7,356.3,283,354.8,281.4z M354.9,301.3h11.3
	v80.3h-11.3V301.3z"/>
<path d="M410.1,377c-6.5-3.5-11.6-8.4-15.3-14.6c-3.7-6.2-5.6-13.2-5.6-21.1c0-7.8,1.9-14.8,5.6-21.1c3.7-6.2,8.8-11,15.3-14.5
	c6.5-3.5,13.7-5.2,21.8-5.2c8.1,0,15.3,1.7,21.8,5.2c6.5,3.5,11.5,8.3,15.2,14.5c3.7,6.2,5.5,13.2,5.5,21.1c0,7.8-1.8,14.9-5.5,21.1
	c-3.7,6.2-8.7,11.1-15.2,14.6c-6.5,3.5-13.7,5.3-21.8,5.3C423.8,382.3,416.6,380.5,410.1,377z M447.9,368.8
	c4.7-2.6,8.4-6.3,11.1-11.1c2.6-4.8,4-10.2,4-16.3c0-6.1-1.3-11.5-4-16.3c-2.7-4.8-6.3-8.5-11.1-11.1c-4.7-2.6-10-3.9-16-3.9
	c-5.9,0-11.3,1.3-16,3.9c-4.7,2.6-8.4,6.3-11.1,11.1c-2.7,4.8-4.1,10.2-4.1,16.3c0,6.1,1.4,11.5,4.1,16.3c2.7,4.8,6.4,8.5,11.1,11.1
	c4.7,2.6,10,3.9,16,3.9C437.8,372.7,443.2,371.4,447.9,368.8z M443.2,269.8h15.1l-25.8,18.9h-11.1L443.2,269.8z"/>
<path d="M565.1,309.4c6.2,5.9,9.3,14.4,9.3,25.6v46.5h-11.3v-45.5c0-8.3-2.2-14.7-6.5-19.1c-4.3-4.4-10.6-6.6-18.6-6.6
	c-9,0-16.1,2.6-21.4,7.7c-5.2,5.1-7.9,12.2-7.9,21.3v42.1h-11.3v-80.3h10.8v14.8c3.1-4.9,7.3-8.7,12.8-11.4c5.5-2.7,11.8-4,19-4
	C550.5,300.7,558.9,303.6,565.1,309.4z"/>
</svg>
