<?xml version="1.0" encoding="utf-8"?>
<!-- Generator: Adobe Illustrator 22.0.1, SVG Export Plug-In . SVG Version: 6.00 Build 0)  -->
<svg version="1.1" id="Layer_1" xmlns="http://www.w3.org/2000/svg" xmlns:xlink="http://www.w3.org/1999/xlink" x="0px" y="0px"
	 viewBox="0 0 528 528" style="enable-background:new 0 0 528 528;" xml:space="preserve">
<style type="text/css">
	.st0{display:none;}
	.st1{display:inline;fill:#0096A9;fill-opacity:0.4;}
	.st2{display:inline;}
	.st3{fill:#0096A9;}
	.st4{clip-path:url(#SVGID_2_);}
	.st5{clip-path:url(#SVGID_4_);fill:#FFFFFF;}
	.st6{clip-path:url(#SVGID_6_);}
	.st7{clip-path:url(#SVGID_8_);fill:#FFFFFF;}
	.st8{clip-path:url(#SVGID_10_);}
	.st9{clip-path:url(#SVGID_12_);fill:#FFFFFF;}
	.st10{clip-path:url(#SVGID_14_);}
	.st11{clip-path:url(#SVGID_16_);fill:#FFFFFF;}
	.st12{clip-path:url(#SVGID_18_);}
	.st13{clip-path:url(#SVGID_20_);fill:#FDFEFF;}
	.st14{clip-path:url(#SVGID_22_);}
	.st15{clip-path:url(#SVGID_24_);}
	.st16{filter:url(#Adobe_OpacityMaskFilter);}
	.st17{clip-path:url(#SVGID_26_);}
	.st18{enable-background:new    ;}
	.st19{clip-path:url(#SVGID_29_);}
	.st20{clip-path:url(#SVGID_31_);fill:url(#SVGID_32_);}
	.st21{filter:url(#Adobe_OpacityMaskFilter_1_);}
	.st22{clip-path:url(#SVGID_34_);fill:url(#SVGID_35_);}
	.st23{clip-path:url(#SVGID_34_);mask:url(#SVGID_27_);fill:url(#SVGID_36_);}
	.st24{clip-path:url(#SVGID_38_);}
	.st25{clip-path:url(#SVGID_40_);fill:url(#SVGID_41_);}
	.st26{clip-path:url(#SVGID_26_);fill-rule:evenodd;clip-rule:evenodd;fill:#FFFFFF;}
	.st27{clip-path:url(#SVGID_43_);}
	.st28{clip-path:url(#SVGID_45_);fill:#FFFFFF;}
	.st29{fill:#FFFFFF;}
	.st30{clip-path:url(#SVGID_47_);}
	.st31{clip-path:url(#SVGID_49_);fill:#FFFFFF;}
	.st32{clip-path:url(#SVGID_51_);}
	.st33{clip-path:url(#SVGID_53_);fill:#FFFFFF;}
	.st34{clip-path:url(#SVGID_55_);}
	.st35{clip-path:url(#SVGID_57_);fill:#FDFEFF;}
	.st36{clip-path:url(#SVGID_59_);}
	.st37{clip-path:url(#SVGID_61_);fill:#FFFFFF;}
</style>
<g id="menuextendido" class="st0">
	<circle class="st1" cx="264" cy="264" r="264"/>
	<g id="logo" class="st2">
		<circle class="st3" cx="379" cy="420.9" r="46"/>
		<g>
			<g>
				<defs>
					<rect id="SVGID_1_" x="354" y="384.2" width="52" height="71.6"/>
				</defs>
				<clipPath id="SVGID_2_">
					<use xlink:href="#SVGID_1_"  style="overflow:visible;"/>
				</clipPath>
				<g class="st4">
					<defs>
						<rect id="SVGID_3_" x="354" y="384.2" width="52" height="71.6"/>
					</defs>
					<clipPath id="SVGID_4_">
						<use xlink:href="#SVGID_3_"  style="overflow:visible;"/>
					</clipPath>
					<path class="st5" d="M370.8,414.2c-0.5-0.4-0.9-0.7-1.4-1.1c-1-0.9-0.9-2,0.2-2.9c0.7-0.6,1-1.4,1.4-2.2
						c0.6-1.1,1.1-2.3,1.7-3.4c0.4-0.9,1-1.8,1.2-2.8c0.1-0.2,0.2-0.3,0.3-0.5c0.8,0.6,1.8,1.1,2.6,1.7c-0.1,0.7-0.6,1.2-0.9,1.8
						c-0.3,0.6-0.7,1.2-0.9,1.9c-0.5,1.1-1.1,2.2-1.7,3.3c-0.3,0.5-0.5,1.1-0.7,1.7c-0.1,0.2,0,0.3,0.2,0.5c1.2,0.9,2.4,1.7,3.7,2.5
						c0.3,0.2,0.4,0,0.5-0.2c0.5-0.9,1-1.8,1.6-2.7c0.5-0.8,1-1.6,1.5-2.5c0.5-0.8,0.9-1.7,1.4-2.5c0.1-0.2,0.3-0.4,0.5-0.6
						c0.3-0.1,0.5,0.1,0.7,0.2c1,0.6,2,1.3,3.1,1.9c1.1,0.6,2,1.3,3.1,1.8c1.6,0.9,3.2,1.9,4.8,2.9c-0.4,0.6-0.8,1.1-1.3,1.7
						c-0.3,0.4-0.6,0.9-0.9,1.3c-0.4,0.7-1,1.3-1.4,1.9c-0.5,0.9-1.3,1.7-1.8,2.7c-0.1,0.3-0.1,0.5-0.1,0.8c0.1,0.6-0.2,1.2-0.6,1.4
						c-0.6,0.3-1.3,0.7-2,0.3c-0.4-0.2-0.8-0.2-1.1-0.4c-0.3-0.1-0.6-0.1-0.8,0.2c-0.6,0.8-1.1,1.7-1.4,2.6
						c-0.1,0.2-0.2,0.3-0.3,0.4c-0.6,0.9-1,1.8-1.4,2.7c-0.4,0.9-0.9,1.9-1.4,2.8c-0.6,1.3-1.2,2.7-1.8,4c-0.5,1-0.8,2-1.4,3
						c-0.4,0.6-0.7,1.3-0.9,2c-0.2,0.4-0.5,0.7-0.8,0.9c-0.9,0.5-1.6,1.4-2.5,1.9c-0.8,0.5-1.6,1-2.5,1.5c-0.4,0.3-0.9,0.5-1.2,0.8
						c-0.6,0.5-1.3,0.7-1.9,1.2c-0.2,0.2-0.7,0.1-0.9,0.5c-0.1,0.1-0.3,0.1-0.5,0.2c-1,0.7-2.1,1.3-3.1,2c-1.2,0.8-2.3,1.6-3.4,2.5
						c-0.7,0.6-1.4,1.2-2,1.8c-0.5,0.5-1.1,0.8-1.3,1.5c-0.3,0-0.3-0.3-0.2-0.4c0.3-0.5,0.4-1.1,0.7-1.5c0.7-1.3,1.3-2.7,1.9-4
						c0.4-0.9,0.9-1.8,1.3-2.7c0.4-0.9,0.9-1.7,1.3-2.6c0.4-0.9,0.9-1.8,1.3-2.6c0.8-1.6,1.8-3.1,2.6-4.7c0.1-0.2,0.3-0.4,0.6-0.4
						c1.3-0.1,1.9-1.5,1.6-2.5c-0.1-0.6-0.7-0.9-1.3-0.7c-0.8,0.3-1.3,1.1-1.3,1.9c0,0.6,0.2,1-0.3,1.6c-0.3,0.4-0.5,0.8-0.7,1.3
						c-0.4,0.9-0.9,1.7-1.4,2.6c-0.3,0.5-0.6,1.1-0.9,1.6c-0.4,0.7-0.8,1.5-1.1,2.3c-0.3,0.7-0.6,1.3-0.9,1.9
						c-0.9,1.7-1.6,3.5-2.4,5.2c-0.5,1-0.9,1.9-1.3,3c-0.1,0.2-0.1,0.4-0.4,0.4c0.1-0.8,0.2-1.5,0.4-2.2c0.1-0.4,0.1-0.9,0.2-1.4
						c0-1.2,0.5-2.3,0.6-3.6c0.1-0.9,0.3-1.8,0.5-2.7c0.1-0.7,0.2-1.4,0.6-2c0.5-0.9,1-1.8,1.4-2.7c0.7-1.4,1.5-2.8,2.2-4.1
						c0.6-1,1.1-2.1,1.8-3.1c0.7-1.2,1.3-2.4,2.1-3.6c0.7-1,1.3-2,1.9-3c0.8-1.3,1.6-2.6,2.4-3.9c0.8-1.2,1.5-2.5,2.4-3.6
						c0.7-0.9,1.3-1.9,2-2.9c0.1-0.2,0.2-0.4,0-0.5C371.9,415,371.4,414.5,370.8,414.2"/>
					<path class="st5" d="M393.6,412.9c-1.6-1-3.2-2-4.8-2.9c-1.1-0.6-2.1-1.3-3.1-1.8c-1-0.6-2-1.3-3.1-1.9
						c-0.2-0.1-0.4-0.3-0.7-0.2c-0.1-0.1-0.2-0.3-0.3-0.3c-0.6-0.1-0.5-0.5-0.2-0.9c0.6-1,1.2-2,1.8-3.1c0.4-0.7,0.8-1.3,1.2-2
						c0.7-1.2,1.4-2.3,2-3.5c0.4-0.6,0.7-1.2,1.1-1.8c0.5-0.9,1-1.8,1.6-2.7c0.5-0.8,0.9-1.7,1.4-2.5c0.6-1,1.2-2,1.9-3.1
						c0-0.1,0.1-0.2,0.1-0.3c0.2-0.3,0.3-0.6,0.9-0.4c1,0.3,1.9,0.6,2.8,0.9c1,0.3,1.8,0.9,2.8,1.3c0.8,0.3,1.6,0.9,2.3,1.3
						c1.2,0.7,2.4,1.5,3.5,2.5c0.3,0.2,0.6,0.4,0.8,0.6c0.2,0.2,0.4,0.3,0.4,0.6c-0.6,1-1.3,2-1.8,3.1c-0.7,1.3-1.6,2.5-2.3,3.8
						c-0.5,0.8-0.9,1.6-1.4,2.3c-0.8,1.2-1.4,2.5-2.3,3.7c-0.3,0.4-0.5,0.8-0.7,1.2c-0.8,1.5-1.7,2.8-2.5,4.3
						C394.7,411.8,394.3,412.5,393.6,412.9"/>
					<path class="st5" d="M405,414.7c-0.2-1.2-0.5-2.5-0.9-3.6c-0.5-1.4-1-2.8-1.8-4.1c-0.5-0.9-1-1.9-1.7-2.8
						c-0.5,0.8-1,1.6-1.5,2.3c-0.3,0.4-0.2,0.8-0.1,1.1c0.1,0.2,0.3,0.5,0.4,0.7c0.4,1.2,0.9,2.4,1.3,3.7c0.4,1.3,0.6,2.7,0.8,4.1
						c0.3,2.4,0.4,4.8-0.2,7.3c-0.2,1-0.3,2-0.5,3c-0.5,1.9-1.2,3.7-1.9,5.5c-0.2,0.4-0.3,0.8-0.5,1.1c-0.5,0.9-1,1.9-1.6,2.8
						c-0.4,0.6-0.8,1.2-1.2,1.7c-0.6,0.9-1.3,1.6-2,2.5c-0.5,0.7-1.2,1.3-1.8,1.9c-0.6,0.6-1.3,1.2-1.9,1.8c-0.7,0.7-1.6,1.3-2.4,2
						c-0.9,0.7-1.8,1.3-2.7,1.9c-1.2,0.8-2.5,1.5-3.9,2.2c-0.7,0.4-1.4,0.8-2.2,1c-0.7,0.2-1.3,0.7-2.1,0.8
						c-0.1,0.1-0.1,0.2-0.2,0.2c-1,0.2-1.9,0.6-2.8,0.9c-1.5,0.5-2.9,0.8-4.4,1.2c-0.8,0.2-1.6,0.2-2.4,0.4
						c-1.8,0.4-3.6,0.4-5.4,0.6c-1.6,0.2-3.3,0.2-4.9,0.2c-0.2,0.2-0.4,0.4-0.5,0.6c2.2,0,4.3,0,6.4-0.3c1.2-0.2,2.4-0.2,3.6-0.4
						c1.2-0.3,2.4-0.3,3.7-0.6c1.3-0.3,2.7-0.6,4-0.9c0.7-0.2,1.4-0.4,2-0.6c1.1-0.3,2.2-0.8,3.3-1c0.3-0.5,0.9-0.5,1.4-0.7
						c1.3-0.6,2.7-1.1,4-1.8c1.1-0.6,2.1-1.1,3.2-1.7c1.2-0.8,2.4-1.6,3.5-2.4c1.4-1,2.7-2.1,4-3.3c1.1-1,2.1-2.1,3-3.3
						c1.3-1.5,2.4-3.2,3.4-4.9c0.8-1.4,1.5-3,2.1-4.5c0.4-1,0.8-2.1,1-3.1c0.3-1.5,0.7-3,0.7-4.6C405.4,419.3,405.4,417,405,414.7"
						/>
					<path class="st5" d="M376.9,402.9c-0.9-0.6-1.8-1-2.6-1.7c0-0.8,0.5-1.3,0.9-1.9c0.2-0.4,0.5-0.9,0.7-1.3
						c0.5-0.7,0.9-1.5,1.3-2.3c0.6-1,1.3-2,1.8-3c0.4-0.7,0.8-1.3,1.2-2c0.6-1.1,1.3-2.2,2-3.3c0.6-1,1.3-2,1.8-3.1
						c0.1-0.2,0.3-0.2,0.5-0.1c1.2,0.1,2.4,0.2,3.6,0.2c0.5,0,0.5,0.2,0.4,0.5c-0.6,1.3-1.5,2.6-2.2,3.9c-0.8,1.5-1.7,2.9-2.5,4.4
						c-0.7,1.2-1.4,2.4-2,3.5c-0.9,1.5-1.7,3.1-2.7,4.6c-0.4,0.6-0.7,1.2-1.1,1.8c-0.2,0.3-0.3,0.4-0.5,0.1
						C377.3,403,377.1,403,376.9,402.9"/>
					<path class="st5" d="M370.8,386.9c0.8,0.4,1.7,0.4,2.5,0.6c1.3,0.4,2.6,0.7,3.9,1.1c0.5,0.2,1.1,0.3,1.6,0.5
						c0.2,0.1,0.5,0.1,0.4,0.5c-0.1,0.4-0.2,0.5-0.6,0.3c-1.5-0.6-3-1.1-4.5-1.6c-1.3-0.4-2.7-0.9-4.1-1.1
						C370.1,386.7,370.5,387,370.8,386.9"/>
				</g>
			</g>
		</g>
	</g>
	<g id="estetica" class="st2">
		<circle class="st3" cx="451" cy="201.1" r="46"/>
		<g>
			<g>
				<defs>
					<rect id="SVGID_5_" x="425.8" y="162.8" width="48.4" height="76.6"/>
				</defs>
				<clipPath id="SVGID_6_">
					<use xlink:href="#SVGID_5_"  style="overflow:visible;"/>
				</clipPath>
				<g class="st6">
					<defs>
						<rect id="SVGID_7_" x="425.8" y="162.8" width="48.4" height="76.6"/>
					</defs>
					<clipPath id="SVGID_8_">
						<use xlink:href="#SVGID_7_"  style="overflow:visible;"/>
					</clipPath>
					<path class="st7" d="M472.9,223.4c-0.3-1.1-0.7-2.1-1.1-3.2c0,0,0,0,0,0c-2.3-4.6-5.4-8.6-9-12.3c-1.5-1.6-3-3.3-4.4-4.9
						c-3-3.4-5-7.3-4.6-12.1c0-0.1,0-0.2,0-0.3c0.3-1.5,0.7-4,0.9-4.6c1.2-4.3,3.5-8.2,5.4-12.3c1.6-3.5,3-7.1,4.1-10.7
						c-0.7,0-1.3-0.1-2-0.1c-1.8,6.2-4.6,12-7.5,17.8c-1.2,2.4-2.2,4.9-2.7,7.6c0,0.2-0.2,1.5-0.2,2.6c-0.1,0.2-0.2,0.3-0.2,0.5
						c-0.2,4,1,7.5,3.2,10.7c2.1,3,4.7,5.7,7.2,8.4c3.4,3.6,6.5,7.5,8.3,12.3c1.6,4.2,1.9,11,1.7,16.7c0.7,0,1.5-0.1,2.2-0.1
						C474.4,233.9,474.2,227.4,472.9,223.4"/>
					<path class="st7" d="M453.8,223.3c-0.3-0.3-0.6-0.9-1-0.3c-0.3,0.5,0.1,0.7,0.3,1c2.9,3.2,5.4,9.6,7.3,15.5c0.4,0,0.8,0,1.1,0
						c-0.5-2-0.9-3.8-1.3-4.7C458.7,230.3,456.6,226.4,453.8,223.3"/>
					<path class="st7" d="M441.7,239.4c-1.5-2.5-2.8-5-3.6-6.7c-2.5-5.3-4.1-10.9-3.3-16.9c0.4-3.5,1.6-6.9,2.7-10.3
						c1.2-3.6,1.5-7.2,0.7-10.9c0,0,0.1,0,0.1,0c0-0.1-0.1-0.3-0.2-0.5c0-0.2-0.1-0.3-0.2-0.4c-0.7-2-2.1-5.5-2.7-6.7
						c-2.1-4.1-4.1-8.3-4.9-12.9c-0.7-3.8-1.4-7.5-1.8-11.3c-0.5,0-1.1,0-1.6,0c0,0,0,0,0,0c-0.3,0-0.7,0-1,0c0.1,0.7,0.2,1.4,0.3,2
						c1,6.2,1.9,12.4,4.4,18.3c1.2,2.9,3.8,8.4,5,11.6c0,0.1,0,0.1,0,0.2c0.8,2.8,0.7,5.7,0,8.5c-0.4,1.5-0.8,3-1.4,4.4
						c-3.5,8.7-2.6,17.2,1.4,25.6c0.7,1.5,1.9,3.7,3.3,6c0.3,0,0.7,0,1,0c0,0,0,0,0,0C440.5,239.5,441.1,239.4,441.7,239.4"/>
				</g>
			</g>
		</g>
	</g>
	<g id="formacion" class="st2">
		<circle class="st3" cx="80" cy="201.1" r="46"/>
		<g>
			<g>
				<defs>
					<rect id="SVGID_9_" x="48.6" y="171" width="62.7" height="60.3"/>
				</defs>
				<clipPath id="SVGID_10_">
					<use xlink:href="#SVGID_9_"  style="overflow:visible;"/>
				</clipPath>
				<g class="st8">
					<defs>
						<rect id="SVGID_11_" x="48.6" y="171" width="62.7" height="60.3"/>
					</defs>
					<clipPath id="SVGID_12_">
						<use xlink:href="#SVGID_11_"  style="overflow:visible;"/>
					</clipPath>
					<path class="st9" d="M110.6,228.6H49.3c-0.4,0-0.7-0.3-0.7-0.7v-0.6c0-0.4,0.3-0.7,0.7-0.7h61.3c0.4,0,0.7,0.3,0.7,0.7v0.6
						C111.3,228.3,111,228.6,110.6,228.6"/>
					<path class="st9" d="M58.9,171h-6.8c-1.9,0-3.4,1.5-3.4,3.4v45.8c0,1.9,1.5,3.4,3.4,3.4h6.8c1.9,0,3.4-1.5,3.4-3.4v-45.8
						C62.3,172.5,60.8,171,58.9,171 M60.3,213.1c0,0.9-0.7,1.6-1.6,1.6h-1.8c-0.9,0-1.6-0.7-1.6-1.6v-37.8c0-0.9,0.7-1.6,1.6-1.6
						h1.8c0.9,0,1.6,0.7,1.6,1.6V213.1z"/>
					<path class="st9" d="M78.1,171h-6.5c-2,0-3.6,1.6-3.6,3.6v45.5c0,2,1.6,3.6,3.6,3.6h6.5c2,0,3.6-1.6,3.6-3.6v-45.5
						C81.6,172.6,80,171,78.1,171 M80.3,213.6c0,1.1-0.9,2-2,2h-4c-1.1,0-2-0.9-2-2v-37c0-1.1,0.9-2,2-2h4c1.1,0,2,0.9,2,2V213.6z"
						/>
					<path class="st9" d="M111.2,216.8l-14.4-43.1c-0.6-1.9-2.7-2.9-4.6-2.3l-6.1,2c-1.9,0.6-2.9,2.7-2.3,4.6l14.4,43.1
						c0.6,1.9,2.7,2.9,4.6,2.3l6.1-2C110.8,220.8,111.8,218.7,111.2,216.8 M102.3,217.1l-0.9,0.3c-0.8,0.3-1.6-0.2-1.8-0.9
						l-12.1-36.1c-0.3-0.8,0.2-1.6,0.9-1.8l0.9-0.3c0.8-0.3,1.6,0.2,1.8,0.9l12.1,36.1C103.5,216,103,216.8,102.3,217.1"/>
				</g>
			</g>
		</g>
	</g>
	<g id="cirugia" class="st2">
		<circle class="st3" cx="264" cy="65.1" r="46"/>
		<g>
			<g>
				<defs>
					<rect id="SVGID_13_" x="231.4" y="32.6" width="65.2" height="65.1"/>
				</defs>
				<clipPath id="SVGID_14_">
					<use xlink:href="#SVGID_13_"  style="overflow:visible;"/>
				</clipPath>
				<g class="st10">
					<defs>
						<rect id="SVGID_15_" x="231.4" y="32.6" width="65.2" height="65.1"/>
					</defs>
					<clipPath id="SVGID_16_">
						<use xlink:href="#SVGID_15_"  style="overflow:visible;"/>
					</clipPath>
					<path class="st11" d="M287.1,42.1c-6.1-6.1-14.3-9.5-23-9.5c-8.7,0-16.9,3.4-23,9.5c-6.1,6.1-9.5,14.3-9.5,23
						c0,5.7,1.4,11.1,4.1,15.9c0.6,0.9,3.7-1.2,3.2-2c-2.2-3.8-3.5-8.6-3.6-13.5c-0.2-15.9,12.8-29.1,28.7-29.1
						c16,0,29,13.1,28.7,29.2c-0.3,15.6-13.1,28.2-28.8,28.2c-4.1,0-10.9-2.2-11.4-2.4c-1.7-0.7-3.5,2.7-2.3,3.1
						c6.2,2.9,13.4,3.8,20.6,2.4c4-0.8,7.7-2.4,11.1-4.7c9.3-6.3,14.6-16.3,14.6-27.2C296.6,56.5,293.2,48.3,287.1,42.1"/>
					<path class="st11" d="M278.7,72L264,63.5V46.6c0-0.9-0.7-1.7-1.7-1.7h-0.7c-0.9,0-1.7,0.7-1.7,1.7v18.3c0,0.7,0.5,1.4,1.1,1.6
						l15.6,9c0.8,0.5,1.8,0.2,2.3-0.6l0.3-0.6C279.8,73.5,279.5,72.4,278.7,72"/>
					<path class="st11" d="M248.5,89.7c0,1.2-1,2.2-2.2,2.2s-2.2-1-2.2-2.2c0-1.2,1-2.2,2.2-2.2S248.5,88.4,248.5,89.7"/>
				</g>
			</g>
		</g>
	</g>
	<g id="contacto" class="st2">
		<circle class="st3" cx="148" cy="420.9" r="46"/>
		<g>
			<g>
				<defs>
					<rect id="SVGID_17_" x="112" y="382" width="71.9" height="73.1"/>
				</defs>
				<clipPath id="SVGID_18_">
					<use xlink:href="#SVGID_17_"  style="overflow:visible;"/>
				</clipPath>
				<g class="st12">
					<defs>
						<rect id="SVGID_19_" x="112" y="382" width="71.9" height="73.1"/>
					</defs>
					<clipPath id="SVGID_20_">
						<use xlink:href="#SVGID_19_"  style="overflow:visible;"/>
					</clipPath>
					<path class="st13" d="M112,446.1h0.7C112.5,446.1,112.2,446.1,112,446.1L112,446.1z"/>
					<path class="st13" d="M129.5,397.3c0-1.7,0-3.1,0.2-4.5c1.1-5.5,4.3-8.9,9.8-10.1c3.6-0.9,7.3-0.8,10.9,0.3
						c5.4,1.7,8.4,5.6,8.9,11.2c0.5,5.3-0.2,10.6-2.8,15.4c-2.6,4.8-6.6,7.7-12.2,7.7c-5.7,0-9.7-2.9-12.1-7.9
						C130.2,405.4,129.5,401.2,129.5,397.3"/>
					<path class="st13" d="M163.8,425.1c-1-0.8-2.3-1.2-3.4-1.8c-3.1-1.5-6.5-2.4-8.8-5.2c-0.5-0.6-0.9-0.4-1.5,0.1
						c-1.6,1.5-3.3,2.9-4.9,4.5c-0.7,0.7-1.1,0.6-1.7,0c-1.5-1.5-3.1-3-4.7-4.5c-0.5-0.5-1-0.8-1.6-0.1c-2.8,2.9-6.6,4.1-10.1,5.8
						c-1.8,0.8-3.1,2-4,3.7c-2.4,4.2-4.9,8.3-7.4,12.5c-1.2,1.9-2.3,3.9-3.7,6.1c0.2,0,0.4,0,0.7,0h1.6c2.3,0,4.6,0,6.9,0
						c10.9-0.1,21.8-0.3,32.6-0.6c-0.6-1.6-0.9-3.4-0.9-5.2C153,433.2,157.5,427.3,163.8,425.1"/>
					<path class="st13" d="M169.1,425.4c-1.7,0-3.4,0.3-4.9,0.8c-5.8,2-10,7.6-10,14c0,1.7,0.3,3.3,0.8,4.8
						c2,5.9,7.5,10.1,14.1,10.1c8.2,0,14.9-6.7,14.9-14.9C184,432,177.3,425.4,169.1,425.4 M169.1,453.2c-5.7,0-10.5-3.7-12.3-8.8
						c-0.4-1.3-0.7-2.7-0.7-4.2c0-5.7,3.6-10.5,8.7-12.2c1.3-0.5,2.8-0.7,4.3-0.7c7.2,0,13,5.8,13,13
						C182,447.4,176.2,453.2,169.1,453.2"/>
					<path class="st13" d="M170.5,431.3v17.9c0,0.8-0.7,1.5-1.5,1.5c-0.8,0-1.5-0.7-1.5-1.5v-17.9c0-0.8,0.7-1.5,1.5-1.5
						C169.9,429.9,170.5,430.5,170.5,431.3"/>
					<path class="st13" d="M178,441.7h-17.9c-0.8,0-1.5-0.7-1.5-1.5c0-0.8,0.7-1.5,1.5-1.5H178c0.8,0,1.5,0.7,1.5,1.5
						C179.5,441.1,178.8,441.7,178,441.7"/>
				</g>
			</g>
		</g>
	</g>
</g>
<g id="menulogo" class="st0">
	<g class="st2">
		<defs>
			<rect id="SVGID_21_" x="144" y="144" width="240" height="240"/>
		</defs>
		<clipPath id="SVGID_22_">
			<use xlink:href="#SVGID_21_"  style="overflow:visible;"/>
		</clipPath>
		<g class="st14">
			<defs>
				<rect id="SVGID_23_" x="144" y="144" width="240" height="240"/>
			</defs>
			<clipPath id="SVGID_24_">
				<use xlink:href="#SVGID_23_"  style="overflow:visible;"/>
			</clipPath>
			<g class="st15">
				<defs>
					<rect id="SVGID_25_" x="144" y="144" width="240" height="240"/>
				</defs>
				<clipPath id="SVGID_26_">
					<use xlink:href="#SVGID_25_"  style="overflow:visible;"/>
				</clipPath>
				<defs>
					<filter id="Adobe_OpacityMaskFilter" filterUnits="userSpaceOnUse" x="113" y="113" width="301.9" height="301.9">
						
							<feColorMatrix  type="matrix" values="-1 0 0 0 1  0 -1 0 0 1  0 0 -1 0 1  0 0 0 1 0" color-interpolation-filters="sRGB" result="source"/>
						<feFlood  style="flood-color:white;flood-opacity:1" result="back"/>
						<feBlend  in="source" in2="back" mode="normal"/>
					</filter>
				</defs>
				<mask maskUnits="userSpaceOnUse" x="113" y="113" width="301.9" height="301.9" id="SVGID_27_">
					<g class="st16">
						<rect x="144" y="144" class="st17" width="240" height="240"/>
						<g class="st18">
							<g>
								<defs>
									<rect id="SVGID_28_" x="144" y="144" width="240" height="240"/>
								</defs>
								<clipPath id="SVGID_29_" class="st17">
									<use xlink:href="#SVGID_28_"  style="overflow:visible;"/>
								</clipPath>
								<g>
									<defs>
										<path id="SVGID_30_" d="M178.6,181.2c29.8-31.5,75.6-43.5,102.4-26.8c26.8,16.7,24.3,55.7-5.5,87.2
											c-29.8,31.5-75.6,43.5-102.4,26.8C146.3,251.7,148.8,212.7,178.6,181.2"/>
									</defs>
									<clipPath id="SVGID_31_" class="st19">
										<use xlink:href="#SVGID_30_"  style="overflow:visible;"/>
									</clipPath>
									
										<linearGradient id="SVGID_32_" gradientUnits="userSpaceOnUse" x1="-130.7818" y1="658.768" x2="-130.0529" y2="658.768" gradientTransform="matrix(0 -198.9602 -198.9602 0 131295.6719 -25726.8164)">
										<stop  offset="0" style="stop-color:#000000"/>
										<stop  offset="0.2929" style="stop-color:#000000"/>
										<stop  offset="0.4825" style="stop-color:#2C2C2C"/>
										<stop  offset="0.9096" style="stop-color:#9B9B9B"/>
										<stop  offset="1" style="stop-color:#B3B3B3"/>
									</linearGradient>
									<rect x="146.3" y="137.8" class="st20" width="161.4" height="147.3"/>
								</g>
								<g>
									<defs>
										<path id="SVGID_33_" d="M309.3,152.9c26.9,22,44.1,55.5,44.1,92.9c0,66.3-53.7,120-120,120c-16,0-31.3-3.2-45.3-8.9
											c20.7,16.9,47.1,27.1,75.9,27.1c66.3,0,120-53.7,120-120C384,213.8,353.1,170.7,309.3,152.9"/>
									</defs>
									<clipPath id="SVGID_34_" class="st19">
										<use xlink:href="#SVGID_33_"  style="overflow:visible;"/>
									</clipPath>
									<defs>
										<filter id="Adobe_OpacityMaskFilter_1_" filterUnits="userSpaceOnUse" x="188.1" y="152.9" width="195.9" height="231.1">
											<feColorMatrix  type="matrix" values="1 0 0 0 0  0 1 0 0 0  0 0 1 0 0  0 0 0 1 0"/>
										</filter>
									</defs>
									<mask maskUnits="userSpaceOnUse" x="188.1" y="152.9" width="195.9" height="231.1" id="SVGID_27_">
										<g class="st21">
											
												<linearGradient id="SVGID_35_" gradientUnits="userSpaceOnUse" x1="-131.1762" y1="659.3313" x2="-130.4473" y2="659.3313" gradientTransform="matrix(0 -333.7618 -333.7618 0 220345.625 -43400.4336)">
												<stop  offset="0" style="stop-color:#FFFFFF"/>
												<stop  offset="0.5" style="stop-color:#999999"/>
												<stop  offset="1" style="stop-color:#FFFFFF"/>
											</linearGradient>
											<rect x="188.1" y="152.9" class="st22" width="195.9" height="231.1"/>
										</g>
									</mask>
									
										<linearGradient id="SVGID_36_" gradientUnits="userSpaceOnUse" x1="-131.1762" y1="659.3313" x2="-130.4473" y2="659.3313" gradientTransform="matrix(0 -333.7618 -333.7618 0 220345.6406 -43400.4375)">
										<stop  offset="0" style="stop-color:#000000"/>
										<stop  offset="0.5" style="stop-color:#4C4C4C"/>
										<stop  offset="1" style="stop-color:#000000"/>
									</linearGradient>
									<rect x="188.1" y="152.9" class="st23" width="195.9" height="231.1"/>
								</g>
							</g>
						</g>
					</g>
				</mask>
				<g class="st17">
					<g>
						<defs>
							<rect id="SVGID_37_" x="144" y="144" width="240" height="240"/>
						</defs>
						<clipPath id="SVGID_38_">
							<use xlink:href="#SVGID_37_"  style="overflow:visible;"/>
						</clipPath>
						<g class="st24">
							<defs>
								<path id="SVGID_39_" d="M264,144c66.3,0,120,53.7,120,120s-53.7,120-120,120s-120-53.7-120-120S197.7,144,264,144"/>
							</defs>
							<clipPath id="SVGID_40_">
								<use xlink:href="#SVGID_39_"  style="overflow:visible;"/>
							</clipPath>
							
								<radialGradient id="SVGID_41_" cx="-130.8538" cy="660.8534" r="0.7289" gradientTransform="matrix(207.3587 -27.2209 -27.2209 -207.3587 45432.1641 133673.2969)" gradientUnits="userSpaceOnUse">
								<stop  offset="0" style="stop-color:#4CC6E5"/>
								<stop  offset="0.2734" style="stop-color:#2CB2CC"/>
								<stop  offset="0.5433" style="stop-color:#14A2B8"/>
								<stop  offset="0.7922" style="stop-color:#0599AD"/>
								<stop  offset="1" style="stop-color:#0096A9"/>
							</radialGradient>
							<polygon class="st25" points="113,148.1 379.9,113 415,379.9 148.1,415 							"/>
						</g>
					</g>
				</g>
				<path class="st26" d="M219,183.8c-21.7,0-39.4,17.7-39.4,39.4h59.1V361c7.4,0,14.4-2.1,20.3-5.7c-4.8-47.8,12-58.5,29.7-69.7
					c1.4-0.9,2.9-1.8,4.3-2.8c7.4-4,16.3-8.5,1.6-25.2c-13.9-18.9-18.7-33.2-23.7-48c-2.7-8.2-5.5-16.5-10-25.7H219z M262.6,352.9
					c-2.9-32.3,4.9-46.2,15.8-55.4c-0.1,0.1-0.2,0.3-0.3,0.4v23.8C278.1,334.3,272,345.7,262.6,352.9 M308,275.8
					c0.1-0.1,0.1-0.1,0.2-0.2c0,0,0,0.1,0,0.1C308.1,275.8,308.1,275.8,308,275.8 M279.8,223.2c-2-5-3.6-9.9-5.3-14.8
					c-2.6-7.8-5.3-15.7-9.4-24.5h72c0,21.7-17.7,39.4-39.4,39.4H279.8z"/>
			</g>
		</g>
	</g>
</g>
<g>
	<path class="st3" d="M477,100H54.5c-24,0-43.7-19.7-43.7-43.7v-3.1c0-24,19.7-43.7,43.7-43.7H477c24,0,43.7,19.7,43.7,43.7v3.1
		C520.7,80.3,501.1,100,477,100z"/>
	<g>
		<g>
			<defs>
				<rect id="SVGID_42_" x="24.2" y="21.5" width="65.2" height="65.1"/>
			</defs>
			<clipPath id="SVGID_43_">
				<use xlink:href="#SVGID_42_"  style="overflow:visible;"/>
			</clipPath>
			<g class="st27">
				<defs>
					<rect id="SVGID_44_" x="24.2" y="21.5" width="65.2" height="65.1"/>
				</defs>
				<clipPath id="SVGID_45_">
					<use xlink:href="#SVGID_44_"  style="overflow:visible;"/>
				</clipPath>
				<path class="st28" d="M79.9,31c-6.1-6.1-14.3-9.5-23-9.5c-8.7,0-16.9,3.4-23,9.5s-9.5,14.3-9.5,23c0,5.7,1.4,11.1,4.1,15.9
					c0.6,0.9,3.7-1.2,3.2-2c-2.2-3.8-3.5-8.6-3.6-13.5C28,38.4,41,25.3,56.9,25.3c16,0,29,13.1,28.7,29.2
					c-0.3,15.6-13.1,28.2-28.8,28.2c-4.1,0-10.9-2.2-11.4-2.4c-1.7-0.7-3.5,2.7-2.3,3.1c6.2,2.9,13.4,3.8,20.6,2.4
					c4-0.8,7.7-2.4,11.1-4.7c9.3-6.3,14.6-16.3,14.6-27.2C89.5,45.3,86.1,37.1,79.9,31"/>
				<path class="st28" d="M71.5,60.8l-14.7-8.5V35.4c0-0.9-0.7-1.7-1.7-1.7h-0.7c-0.9,0-1.7,0.7-1.7,1.7v18.3c0,0.7,0.5,1.4,1.1,1.6
					l15.6,9c0.8,0.5,1.8,0.2,2.3-0.6l0.3-0.6C72.6,62.3,72.3,61.3,71.5,60.8"/>
				<path class="st28" d="M41.3,78.5c0,1.2-1,2.2-2.2,2.2s-2.2-1-2.2-2.2c0-1.2,1-2.2,2.2-2.2S41.3,77.3,41.3,78.5"/>
			</g>
		</g>
	</g>
	<g>
		<path class="st29" d="M137.8,75.9c-2.7-1.6-4.8-3.9-6.4-6.8c-1.5-2.9-2.3-6.1-2.3-9.7c0-3.6,0.8-6.8,2.3-9.7
			c1.5-2.9,3.7-5.1,6.4-6.8c2.7-1.6,5.8-2.4,9.2-2.4c2.5,0,4.9,0.5,7,1.4c2.1,0.9,4,2.3,5.5,4l-2.3,2.5c-2.7-2.9-6-4.4-10.1-4.4
			c-2.7,0-5.1,0.7-7.4,2c-2.2,1.3-3.9,3.2-5.2,5.5c-1.3,2.3-1.9,5-1.9,7.9c0,2.9,0.6,5.5,1.9,7.9c1.2,2.3,3,4.2,5.2,5.5
			c2.2,1.3,4.7,2,7.4,2c4.1,0,7.4-1.5,10.1-4.5l2.3,2.5c-1.5,1.8-3.3,3.1-5.5,4.1c-2.2,0.9-4.5,1.4-7,1.4
			C143.5,78.3,140.5,77.5,137.8,75.9z"/>
		<path class="st29" d="M167.1,40.8h3.6V78h-3.6V40.8z"/>
		<path class="st29" d="M205.1,78l-7.8-11.9c-0.9,0.1-1.8,0.2-2.7,0.2h-9.2V78h-3.6V40.8h12.8c4.3,0,7.8,1.1,10.2,3.4
			c2.5,2.3,3.7,5.4,3.7,9.3c0,2.9-0.7,5.4-2,7.4c-1.3,2-3.3,3.4-5.8,4.3L209,78H205.1z M202.2,60.4c1.8-1.6,2.7-3.9,2.7-6.9
			c0-3-0.9-5.3-2.7-6.9c-1.8-1.6-4.4-2.4-7.7-2.4h-9.1v18.6h9.1C197.8,62.9,200.4,62.1,202.2,60.4z"/>
		<path class="st29" d="M220.4,74.2c-2.5-2.8-3.7-6.8-3.7-12.1V40.8h3.6V62c0,4.3,0.9,7.5,2.7,9.7c1.8,2.1,4.4,3.2,7.7,3.2
			c3.4,0,6-1.1,7.8-3.2c1.8-2.1,2.7-5.3,2.7-9.7V40.8h3.5v21.3c0,5.3-1.2,9.3-3.7,12.1c-2.5,2.8-5.9,4.1-10.3,4.1
			C226.3,78.3,222.9,76.9,220.4,74.2z"/>
		<path class="st29" d="M279.6,59.4h3.5v14.2c-1.6,1.5-3.5,2.7-5.6,3.5c-2.2,0.8-4.5,1.2-6.9,1.2c-3.4,0-6.5-0.8-9.2-2.4
			c-2.7-1.6-4.9-3.9-6.4-6.8c-1.6-2.9-2.3-6.1-2.3-9.7c0-3.6,0.8-6.8,2.3-9.7c1.6-2.9,3.7-5.1,6.4-6.8c2.7-1.6,5.8-2.4,9.2-2.4
			c2.6,0,5,0.5,7.2,1.4c2.2,0.9,4,2.2,5.5,4l-2.2,2.5c-2.7-2.9-6.1-4.4-10.3-4.4c-2.8,0-5.2,0.7-7.5,2c-2.2,1.3-4,3.2-5.2,5.5
			c-1.3,2.4-1.9,5-1.9,7.9c0,2.9,0.6,5.5,1.9,7.9s3,4.2,5.2,5.5c2.2,1.3,4.7,2,7.4,2c3.5,0,6.5-1,8.9-2.9V59.4z"/>
		<path class="st29" d="M298.5,31.2h4.6l-7.9,6.6h-3.4L298.5,31.2z M293.2,40.8h3.6V78h-3.6V40.8z"/>
		<path class="st29" d="M329.3,68.1h-19l-4.1,9.9h-3.7L318,40.8h3.6L337.1,78h-3.8L329.3,68.1z M327.9,64.9l-8.2-20l-8.2,20H327.9z"
			/>
	</g>
</g>
<g>
	<path class="st3" d="M476.6,414.5H53.8c-24.1,0-43.9-19.7-43.9-43.9v-3.3c0-24.1,19.7-43.9,43.9-43.9h422.8
		c24.1,0,43.9,19.7,43.9,43.9v3.3C520.4,394.8,500.7,414.5,476.6,414.5z"/>
	<g>
		<g>
			<defs>
				<rect id="SVGID_46_" x="31.1" y="332.2" width="51.8" height="71.6"/>
			</defs>
			<clipPath id="SVGID_47_">
				<use xlink:href="#SVGID_46_"  style="overflow:visible;"/>
			</clipPath>
			<g class="st30">
				<defs>
					<rect id="SVGID_48_" x="31.1" y="332.2" width="51.8" height="71.6"/>
				</defs>
				<clipPath id="SVGID_49_">
					<use xlink:href="#SVGID_48_"  style="overflow:visible;"/>
				</clipPath>
				<path class="st31" d="M47.8,362.2c-0.5-0.4-0.9-0.7-1.4-1.1c-1-0.9-0.9-2,0.2-2.9c0.7-0.6,1-1.4,1.4-2.2
					c0.6-1.1,1.1-2.3,1.7-3.4c0.4-0.9,1-1.8,1.2-2.8c0.1-0.2,0.2-0.3,0.3-0.5c0.8,0.6,1.8,1.1,2.6,1.7c-0.1,0.7-0.6,1.2-0.9,1.8
					c-0.3,0.6-0.7,1.2-0.9,1.9c-0.5,1.1-1.1,2.2-1.7,3.3c-0.3,0.5-0.5,1.1-0.7,1.7c-0.1,0.2,0,0.3,0.2,0.5c1.2,0.9,2.4,1.7,3.7,2.5
					c0.3,0.2,0.4,0,0.5-0.2c0.5-0.9,1-1.8,1.5-2.7c0.5-0.8,1-1.6,1.5-2.5c0.5-0.8,0.9-1.7,1.4-2.5c0.1-0.2,0.3-0.4,0.4-0.6
					c0.3-0.1,0.5,0.1,0.7,0.2c1,0.6,2,1.3,3.1,1.9c1,0.6,2,1.3,3.1,1.8c1.6,0.9,3.2,1.9,4.8,2.9c-0.4,0.6-0.8,1.1-1.3,1.7
					c-0.3,0.4-0.6,0.9-0.9,1.3c-0.4,0.7-1,1.3-1.4,1.9c-0.5,0.9-1.3,1.7-1.8,2.7c-0.1,0.3-0.1,0.5-0.1,0.8c0.1,0.6-0.2,1.2-0.6,1.4
					c-0.6,0.3-1.3,0.7-2,0.3c-0.3-0.2-0.8-0.2-1.1-0.4c-0.3-0.1-0.6-0.1-0.8,0.2c-0.6,0.8-1.1,1.7-1.4,2.6c-0.1,0.2-0.2,0.3-0.3,0.4
					c-0.6,0.9-1,1.8-1.4,2.7c-0.4,0.9-0.9,1.9-1.4,2.8c-0.6,1.3-1.2,2.7-1.8,4c-0.5,1-0.8,2-1.4,3c-0.4,0.6-0.7,1.3-0.9,2
					c-0.2,0.4-0.5,0.7-0.8,0.9c-0.9,0.5-1.6,1.4-2.5,1.9c-0.8,0.5-1.6,1-2.5,1.5c-0.4,0.3-0.9,0.5-1.2,0.8c-0.6,0.5-1.3,0.7-1.9,1.2
					c-0.2,0.2-0.7,0.1-0.9,0.5c-0.1,0.1-0.3,0.1-0.5,0.2c-1,0.7-2.1,1.3-3.1,2c-1.1,0.8-2.3,1.6-3.4,2.5c-0.7,0.6-1.4,1.2-2,1.8
					c-0.5,0.5-1.1,0.8-1.3,1.5c-0.3,0-0.3-0.3-0.2-0.4c0.3-0.5,0.4-1.1,0.7-1.5c0.7-1.3,1.3-2.7,1.9-4c0.4-0.9,0.9-1.8,1.3-2.7
					c0.4-0.9,0.9-1.7,1.3-2.6c0.4-0.9,0.9-1.8,1.3-2.6c0.8-1.6,1.8-3.1,2.6-4.7c0.1-0.2,0.3-0.4,0.6-0.4c1.3-0.1,1.9-1.5,1.6-2.5
					c-0.1-0.6-0.7-0.9-1.3-0.7c-0.8,0.3-1.3,1.1-1.3,1.9c0,0.6,0.2,1-0.3,1.6c-0.3,0.4-0.5,0.8-0.7,1.3c-0.4,0.9-0.9,1.7-1.4,2.6
					c-0.3,0.5-0.6,1.1-0.8,1.6c-0.4,0.7-0.8,1.5-1.1,2.3c-0.3,0.7-0.6,1.3-0.9,1.9c-0.9,1.7-1.6,3.5-2.4,5.2c-0.5,1-0.9,1.9-1.3,3
					c-0.1,0.2-0.1,0.4-0.4,0.4c0.1-0.8,0.2-1.5,0.4-2.2c0.1-0.4,0.1-0.9,0.2-1.4c0-1.2,0.5-2.3,0.6-3.6c0.1-0.9,0.3-1.8,0.5-2.7
					c0.1-0.7,0.2-1.4,0.6-2c0.5-0.9,1-1.8,1.4-2.7c0.7-1.4,1.4-2.8,2.2-4.1c0.6-1,1.1-2.1,1.8-3.1c0.7-1.2,1.3-2.4,2.1-3.6
					c0.6-1,1.3-2,1.9-3c0.8-1.3,1.6-2.6,2.4-3.9c0.8-1.2,1.5-2.5,2.4-3.6c0.7-0.9,1.3-1.9,2-2.9c0.1-0.2,0.2-0.4,0-0.5
					C48.9,363.1,48.4,362.5,47.8,362.2"/>
				<path class="st31" d="M70.6,360.9c-1.6-1-3.2-2-4.8-2.9c-1.1-0.6-2-1.3-3.1-1.8c-1-0.6-2-1.3-3-1.9c-0.2-0.1-0.4-0.3-0.7-0.2
					c-0.1-0.1-0.2-0.3-0.3-0.3c-0.6-0.1-0.5-0.5-0.2-0.9c0.6-1,1.2-2,1.8-3.1c0.4-0.7,0.8-1.3,1.1-2c0.7-1.2,1.4-2.3,2-3.5
					c0.4-0.6,0.7-1.2,1.1-1.8c0.5-0.9,1-1.8,1.6-2.7c0.5-0.8,0.9-1.7,1.4-2.5c0.6-1,1.2-2,1.8-3.1c0-0.1,0.1-0.2,0.1-0.3
					c0.2-0.3,0.3-0.6,0.9-0.4c0.9,0.3,1.9,0.6,2.8,0.9c1,0.3,1.8,0.9,2.8,1.3c0.8,0.3,1.6,0.9,2.3,1.3c1.2,0.7,2.4,1.5,3.5,2.5
					c0.3,0.2,0.5,0.4,0.8,0.6c0.2,0.2,0.4,0.3,0.4,0.6c-0.6,1-1.2,2-1.8,3.1c-0.7,1.3-1.6,2.5-2.3,3.8c-0.5,0.8-0.9,1.6-1.4,2.3
					c-0.8,1.2-1.4,2.5-2.3,3.7c-0.3,0.4-0.5,0.8-0.7,1.2c-0.8,1.5-1.7,2.8-2.5,4.3C71.6,359.8,71.3,360.6,70.6,360.9"/>
				<path class="st31" d="M81.9,362.7c-0.2-1.2-0.5-2.5-0.9-3.6c-0.5-1.4-1-2.8-1.8-4.1c-0.5-0.9-1-1.9-1.7-2.8
					c-0.5,0.8-1,1.6-1.5,2.3c-0.3,0.4-0.2,0.8-0.1,1.1c0.1,0.2,0.3,0.5,0.4,0.7c0.4,1.2,0.9,2.4,1.3,3.7c0.4,1.3,0.6,2.7,0.8,4.1
					c0.3,2.4,0.4,4.8-0.2,7.3c-0.2,1-0.3,2-0.5,3c-0.5,1.9-1.2,3.7-1.9,5.5c-0.2,0.4-0.3,0.8-0.5,1.1c-0.5,0.9-1,1.9-1.6,2.8
					c-0.4,0.6-0.8,1.2-1.2,1.7c-0.6,0.9-1.3,1.6-2,2.5c-0.5,0.7-1.2,1.3-1.8,1.9c-0.6,0.6-1.3,1.2-1.9,1.8c-0.7,0.7-1.6,1.3-2.4,2
					c-0.8,0.7-1.8,1.3-2.7,1.9c-1.2,0.8-2.5,1.5-3.8,2.2c-0.7,0.4-1.4,0.8-2.1,1c-0.7,0.2-1.3,0.7-2.1,0.8c-0.1,0.1-0.1,0.2-0.2,0.2
					c-1,0.2-1.9,0.6-2.8,0.9c-1.4,0.5-2.9,0.8-4.4,1.2c-0.8,0.2-1.6,0.2-2.4,0.4c-1.8,0.4-3.6,0.4-5.3,0.6c-1.6,0.2-3.2,0.2-4.9,0.2
					c-0.2,0.2-0.4,0.4-0.5,0.6c2.1,0,4.3,0,6.4-0.3c1.2-0.2,2.4-0.2,3.5-0.4c1.2-0.3,2.4-0.3,3.7-0.6c1.3-0.3,2.7-0.6,4-0.9
					c0.7-0.2,1.3-0.4,2-0.6c1.1-0.3,2.1-0.8,3.3-1c0.3-0.5,0.9-0.5,1.4-0.7c1.3-0.6,2.7-1.1,4-1.8c1.1-0.6,2.1-1.1,3.1-1.7
					c1.2-0.8,2.4-1.6,3.5-2.4c1.4-1,2.7-2.1,3.9-3.3c1.1-1,2-2.1,3-3.3c1.3-1.5,2.4-3.2,3.4-4.9c0.8-1.4,1.5-3,2.1-4.5
					c0.4-1,0.8-2.1,1-3.1c0.3-1.5,0.7-3,0.7-4.6C82.3,367.3,82.4,365,81.9,362.7"/>
				<path class="st31" d="M53.9,350.9c-0.9-0.6-1.8-1-2.6-1.7c0-0.8,0.5-1.3,0.9-1.9c0.2-0.4,0.5-0.9,0.7-1.3
					c0.5-0.7,0.9-1.5,1.3-2.3c0.6-1,1.3-2,1.8-3c0.4-0.7,0.8-1.3,1.2-2c0.6-1.1,1.3-2.2,2-3.3c0.6-1,1.3-2,1.8-3.1
					c0.1-0.2,0.3-0.2,0.5-0.1c1.2,0.1,2.4,0.2,3.6,0.2c0.5,0,0.5,0.2,0.4,0.5c-0.6,1.3-1.5,2.6-2.2,3.9c-0.8,1.5-1.7,2.9-2.5,4.4
					c-0.7,1.2-1.4,2.4-2,3.5c-0.9,1.5-1.7,3.1-2.6,4.6c-0.4,0.6-0.7,1.2-1,1.8c-0.2,0.3-0.3,0.4-0.5,0.1
					C54.3,351.1,54.1,351.1,53.9,350.9"/>
				<path class="st31" d="M47.8,335c0.8,0.4,1.7,0.4,2.5,0.6c1.3,0.4,2.6,0.7,3.9,1.1c0.5,0.2,1.1,0.3,1.6,0.5
					c0.2,0.1,0.5,0.1,0.4,0.5c-0.1,0.4-0.2,0.5-0.6,0.3c-1.5-0.6-3-1.1-4.5-1.6c-1.3-0.4-2.7-0.9-4.1-1.1
					C47.2,334.7,47.5,335,47.8,335"/>
			</g>
		</g>
	</g>
	<g>
		<path class="st29" d="M133.1,351v36h-4.3v-36H133.1z"/>
		<path class="st29" d="M140.7,387v-36h4.7l10.7,18.2c2.5,4.2,4.4,8,6,11.7l0.1-0.1c-0.4-4.8-0.5-9.2-0.5-14.8V351h4.1v36h-4.4
			l-10.6-18.3c-2.3-4-4.6-8.1-6.3-12l-0.1,0.1c0.2,4.5,0.3,8.9,0.3,14.9V387H140.7z"/>
		<path class="st29" d="M172.7,381.3c1.9,1.3,4.8,2.4,7.7,2.4c4.4,0,7-2.5,7-6.1c0-3.4-1.8-5.3-6.3-7.2c-5.5-2.1-8.8-5.1-8.8-10.2
			c0-5.6,4.3-9.8,10.8-9.8c3.4,0,5.9,0.9,7.4,1.8l-1.2,3.8c-1.1-0.6-3.3-1.7-6.3-1.7c-4.6,0-6.3,2.9-6.3,5.4c0,3.4,2,5,6.6,6.9
			c5.7,2.4,8.5,5.3,8.5,10.6c0,5.6-3.8,10.4-11.7,10.4c-3.2,0-6.7-1-8.5-2.3L172.7,381.3z"/>
		<path class="st29" d="M204.1,354.9h-10.2v-4h24.8v4h-10.2V387h-4.4V354.9z"/>
		<path class="st29" d="M226.7,351v36h-4.3v-36H226.7z"/>
		<path class="st29" d="M240.6,354.9h-10.2v-4h24.8v4H245V387h-4.4V354.9z"/>
		<path class="st29" d="M263.2,351v21.3c0,8.1,3.3,11.5,7.8,11.5c5,0,8.1-3.5,8.1-11.5V351h4.4v21c0,11.1-5.4,15.6-12.6,15.6
			c-6.8,0-12-4.2-12-15.4V351H263.2z"/>
		<path class="st29" d="M314.4,385.8c-1.6,0.9-4.8,1.7-8.8,1.7c-9.4,0-16.5-6.4-16.5-18.2c0-11.3,7.1-18.9,17.5-18.9
			c4.2,0,6.8,1,7.9,1.6l-1,3.8c-1.6-0.9-4-1.5-6.7-1.5c-7.8,0-13,5.4-13,14.9c0,8.8,4.7,14.5,12.8,14.5c2.6,0,5.3-0.6,7-1.5
			L314.4,385.8z"/>
		<path class="st29" d="M324.1,351v36h-4.3v-36H324.1z"/>
		<path class="st29" d="M360.2,368.6c0,12.4-7,19-15.5,19c-8.8,0-15-7.4-15-18.3c0-11.4,6.6-18.9,15.5-18.9
			C354.3,350.4,360.2,357.9,360.2,368.6z M334.3,369.2c0,7.7,3.9,14.6,10.7,14.6c6.8,0,10.7-6.8,10.7-15c0-7.2-3.5-14.6-10.7-14.6
			C337.8,354.2,334.3,361.3,334.3,369.2z"/>
		<path class="st29" d="M365.8,387v-36h4.7l10.7,18.2c2.5,4.2,4.4,8,6,11.7l0.1-0.1c-0.4-4.8-0.5-9.2-0.5-14.8V351h4.1v36h-4.4
			l-10.6-18.3c-2.3-4-4.6-8.1-6.3-12l-0.1,0.1c0.2,4.5,0.3,8.9,0.3,14.9V387H365.8z"/>
		<path class="st29" d="M403.9,375.7l-3.5,11.3h-4.5l11.4-36h5.2l11.4,36h-4.6l-3.6-11.3H403.9z M414.8,372l-3.3-10.4
			c-0.7-2.4-1.2-4.5-1.7-6.6h-0.1c-0.5,2.1-1,4.3-1.7,6.5l-3.3,10.4H414.8z"/>
		<path class="st29" d="M428.8,351h4.3v32.1h14.3v3.9h-18.6V351z"/>
	</g>
</g>
<g>
	<path class="st3" d="M477.5,310.2H55.2c-24.2,0-44.1-19.8-44.1-44.1v-3.8c0-24.2,19.8-44.1,44.1-44.1h422.3
		c24.2,0,44.1,19.8,44.1,44.1v3.8C521.6,290.4,501.8,310.2,477.5,310.2z"/>
	<g>
		<g>
			<defs>
				<rect id="SVGID_50_" x="25.8" y="234.1" width="62.7" height="60.5"/>
			</defs>
			<clipPath id="SVGID_51_">
				<use xlink:href="#SVGID_50_"  style="overflow:visible;"/>
			</clipPath>
			<g class="st32">
				<defs>
					<rect id="SVGID_52_" x="25.8" y="234.1" width="62.7" height="60.5"/>
				</defs>
				<clipPath id="SVGID_53_">
					<use xlink:href="#SVGID_52_"  style="overflow:visible;"/>
				</clipPath>
				<path class="st33" d="M87.7,291.9H26.4c-0.4,0-0.7-0.3-0.7-0.7v-0.6c0-0.4,0.3-0.7,0.7-0.7h61.3c0.4,0,0.7,0.3,0.7,0.7v0.6
					C88.4,291.6,88.1,291.9,87.7,291.9"/>
				<path class="st33" d="M36,234.1h-6.8c-1.9,0-3.4,1.5-3.4,3.4v46c0,1.9,1.5,3.4,3.4,3.4H36c1.9,0,3.4-1.5,3.4-3.4v-46
					C39.4,235.6,37.9,234.1,36,234.1 M37.4,276.3c0,0.9-0.7,1.6-1.6,1.6H34c-0.9,0-1.6-0.7-1.6-1.6v-38c0-0.9,0.7-1.6,1.6-1.6h1.8
					c0.9,0,1.6,0.7,1.6,1.6V276.3z"/>
				<path class="st33" d="M55.2,234.1h-6.5c-2,0-3.6,1.6-3.6,3.6v45.6c0,2,1.6,3.6,3.6,3.6h6.5c2,0,3.6-1.6,3.6-3.6v-45.6
					C58.8,235.7,57.2,234.1,55.2,234.1 M57.4,276.9c0,1.1-0.9,2-2,2h-4c-1.1,0-2-0.9-2-2v-37.1c0-1.1,0.9-2,2-2h4c1.1,0,2,0.9,2,2
					V276.9z"/>
				<path class="st33" d="M88.3,280.1l-14.4-43.2c-0.6-1.9-2.7-2.9-4.6-2.3l-6.1,2.1c-1.9,0.6-2.9,2.7-2.3,4.6l14.4,43.2
					c0.6,1.9,2.7,2.9,4.6,2.3l6.1-2.1C87.9,284,88.9,282,88.3,280.1 M79.4,280.3l-0.9,0.3c-0.8,0.3-1.6-0.2-1.8-0.9l-12.1-36.2
					c-0.3-0.8,0.2-1.6,0.9-1.9l0.9-0.3c0.8-0.3,1.6,0.2,1.8,0.9l12.1,36.2C80.6,279.2,80.2,280.1,79.4,280.3"/>
			</g>
		</g>
	</g>
	<g>
		<path class="st29" d="M155.4,280.6c-1.6,0.8-4.8,1.7-8.8,1.7c-9.4,0-16.5-6.2-16.5-17.8c0-11,7.1-18.4,17.5-18.4
			c4.2,0,6.8,0.9,7.9,1.6l-1,3.7c-1.6-0.8-4-1.5-6.7-1.5c-7.8,0-13,5.3-13,14.5c0,8.6,4.7,14.1,12.8,14.1c2.6,0,5.3-0.6,7-1.5
			L155.4,280.6z"/>
		<path class="st29" d="M165.1,246.7v20.8c0,7.9,3.3,11.2,7.8,11.2c5,0,8.1-3.4,8.1-11.2v-20.8h4.4v20.5c0,10.8-5.4,15.2-12.6,15.2
			c-6.8,0-12-4.1-12-15v-20.7H165.1z"/>
		<path class="st29" d="M192.9,247.2c2.2-0.5,5.3-0.7,8.3-0.7c4.6,0,7.6,0.9,9.7,2.9c1.7,1.6,2.6,4,2.6,6.7c0,4.6-2.8,7.7-6.3,9v0.2
			c2.6,0.9,4.1,3.4,4.9,7.1c1.1,4.9,1.9,8.3,2.6,9.6h-4.5c-0.5-1-1.3-4-2.2-8.4c-1-4.8-2.8-6.7-6.7-6.8h-4.1v15.2h-4.3V247.2z
			 M197.2,263.1h4.4c4.6,0,7.5-2.7,7.5-6.7c0-4.5-3.1-6.5-7.7-6.6c-2.1,0-3.6,0.2-4.3,0.4V263.1z"/>
		<path class="st29" d="M219.5,247.2c2.2-0.5,5.3-0.7,8.3-0.7c4.6,0,7.6,0.9,9.7,2.9c1.7,1.6,2.6,4,2.6,6.7c0,4.6-2.8,7.7-6.3,9v0.2
			c2.6,0.9,4.1,3.4,4.9,7.1c1.1,4.9,1.9,8.3,2.6,9.6h-4.5c-0.5-1-1.3-4-2.2-8.4c-1-4.8-2.8-6.7-6.7-6.8h-4.1v15.2h-4.3V247.2z
			 M223.9,263.1h4.4c4.6,0,7.5-2.7,7.5-6.7c0-4.5-3.1-6.5-7.7-6.6c-2.1,0-3.6,0.2-4.3,0.4V263.1z"/>
		<path class="st29" d="M250.5,246.7v35.1h-4.3v-35.1H250.5z"/>
		<path class="st29" d="M281.4,280.6c-1.6,0.8-4.8,1.7-8.8,1.7c-9.4,0-16.5-6.2-16.5-17.8c0-11,7.1-18.4,17.5-18.4
			c4.2,0,6.8,0.9,7.9,1.6l-1,3.7c-1.6-0.8-4-1.5-6.7-1.5c-7.8,0-13,5.3-13,14.5c0,8.6,4.7,14.1,12.8,14.1c2.6,0,5.3-0.6,7-1.5
			L281.4,280.6z"/>
		<path class="st29" d="M291.2,246.7v20.8c0,7.9,3.3,11.2,7.8,11.2c5,0,8.1-3.4,8.1-11.2v-20.8h4.4v20.5c0,10.8-5.4,15.2-12.6,15.2
			c-6.8,0-12-4.1-12-15v-20.7H291.2z"/>
		<path class="st29" d="M318.9,246.7h4.3V278h14.3v3.8h-18.6V246.7z"/>
		<path class="st29" d="M344.9,246.7v20.8c0,7.9,3.3,11.2,7.8,11.2c5,0,8.1-3.4,8.1-11.2v-20.8h4.4v20.5c0,10.8-5.4,15.2-12.6,15.2
			c-6.8,0-12-4.1-12-15v-20.7H344.9z"/>
		<path class="st29" d="M400.8,266.4c-0.2-4.9-0.5-10.8-0.5-15.2h-0.1c-1.1,4.1-2.5,8.5-4.2,13.3l-5.9,17h-3.3l-5.4-16.7
			c-1.6-4.9-2.9-9.5-3.9-13.6h-0.1c-0.1,4.4-0.3,10.3-0.6,15.5l-0.9,15h-4.1l2.3-35.1h5.5l5.7,17c1.4,4.3,2.5,8.2,3.4,11.8h0.1
			c0.8-3.5,2-7.4,3.5-11.8l6-17h5.5l2.1,35.1h-4.2L400.8,266.4z"/>
	</g>
</g>
<g>
	<path class="st3" d="M475.9,519.5H53.3c-24.2,0-44-19.8-44-44v-3.6c0-24.2,19.8-44,44-44h422.5c24.2,0,44,19.8,44,44v3.6
		C519.9,499.7,500.1,519.5,475.9,519.5z"/>
	<g>
		<g>
			<defs>
				<rect id="SVGID_54_" x="17.1" y="435" width="71.9" height="73.1"/>
			</defs>
			<clipPath id="SVGID_55_">
				<use xlink:href="#SVGID_54_"  style="overflow:visible;"/>
			</clipPath>
			<g class="st34">
				<defs>
					<rect id="SVGID_56_" x="17.1" y="435" width="71.9" height="73.1"/>
				</defs>
				<clipPath id="SVGID_57_">
					<use xlink:href="#SVGID_56_"  style="overflow:visible;"/>
				</clipPath>
				<path class="st35" d="M17.1,499h0.7C17.6,499,17.3,499,17.1,499L17.1,499z"/>
				<path class="st35" d="M34.6,450.2c0-1.7,0-3.1,0.2-4.5c1.1-5.5,4.3-8.9,9.8-10.1c3.6-0.9,7.3-0.8,10.9,0.3
					c5.4,1.7,8.4,5.6,8.9,11.2c0.5,5.3-0.2,10.6-2.8,15.4c-2.6,4.8-6.6,7.7-12.2,7.7c-5.7,0-9.7-2.9-12.1-7.9
					C35.3,458.4,34.5,454.2,34.6,450.2"/>
				<path class="st35" d="M68.9,478c-1-0.8-2.3-1.2-3.4-1.8c-3.1-1.5-6.5-2.4-8.8-5.2c-0.5-0.6-0.9-0.4-1.5,0.1
					c-1.6,1.5-3.3,2.9-4.9,4.5c-0.7,0.7-1.1,0.6-1.7,0c-1.5-1.5-3.1-3-4.7-4.5c-0.5-0.5-1-0.8-1.6-0.1c-2.8,2.9-6.6,4.1-10.1,5.8
					c-1.8,0.8-3.1,2-4,3.7c-2.4,4.2-4.9,8.3-7.4,12.5c-1.2,1.9-2.3,3.9-3.7,6.1c0.2,0,0.4,0,0.7,0h1.6c2.3,0,4.6,0,6.9,0
					c10.9-0.1,21.8-0.3,32.6-0.6c-0.6-1.6-0.9-3.4-0.9-5.2C58.1,486.2,62.6,480.2,68.9,478"/>
				<path class="st35" d="M74.2,478.4c-1.7,0-3.4,0.3-4.9,0.8c-5.8,2-10,7.6-10,14c0,1.7,0.3,3.3,0.8,4.8c2,5.9,7.5,10.1,14.1,10.1
					c8.2,0,14.9-6.7,14.9-14.9S82.4,478.4,74.2,478.4 M74.2,506.2c-5.7,0-10.5-3.7-12.3-8.8c-0.4-1.3-0.7-2.7-0.7-4.2
					c0-5.7,3.6-10.5,8.7-12.2c1.3-0.5,2.8-0.7,4.3-0.7c7.2,0,13,5.8,13,13C87.1,500.4,81.3,506.2,74.2,506.2"/>
				<path class="st35" d="M75.6,484.3v17.9c0,0.8-0.7,1.5-1.5,1.5c-0.8,0-1.5-0.7-1.5-1.5v-17.9c0-0.8,0.7-1.5,1.5-1.5
					C75,482.8,75.6,483.5,75.6,484.3"/>
				<path class="st35" d="M83.1,494.7H65.2c-0.8,0-1.5-0.7-1.5-1.5c0-0.8,0.7-1.5,1.5-1.5h17.9c0.8,0,1.5,0.7,1.5,1.5
					C84.6,494,83.9,494.7,83.1,494.7"/>
			</g>
		</g>
	</g>
	<g>
		<path class="st29" d="M153.6,490.7c-1.6,0.9-4.8,1.7-8.8,1.7c-9.4,0-16.5-6.5-16.5-18.3c0-11.3,7.1-19,17.5-19
			c4.2,0,6.8,1,7.9,1.6l-1,3.8c-1.6-0.9-4-1.5-6.7-1.5c-7.8,0-13,5.4-13,14.9c0,8.9,4.7,14.6,12.8,14.6c2.6,0,5.3-0.6,7-1.5
			L153.6,490.7z"/>
		<path class="st29" d="M186.5,473.4c0,12.5-7,19.1-15.5,19.1c-8.8,0-15-7.4-15-18.4c0-11.5,6.6-19,15.5-19
			C180.6,455.1,186.5,462.7,186.5,473.4z M160.6,474c0,7.7,3.9,14.7,10.7,14.7c6.8,0,10.7-6.8,10.7-15.1c0-7.2-3.5-14.7-10.7-14.7
			C164.1,458.9,160.6,466.1,160.6,474z"/>
		<path class="st29" d="M192.1,491.9v-36.2h4.7l10.7,18.3c2.5,4.2,4.4,8.1,6,11.8l0.1-0.1c-0.4-4.8-0.5-9.2-0.5-14.9v-15.2h4.1v36.2
			h-4.4l-10.6-18.4c-2.3-4-4.6-8.2-6.3-12.1l-0.1,0.1c0.2,4.6,0.3,8.9,0.3,14.9v15.5H192.1z"/>
		<path class="st29" d="M231.1,459.7h-10.2v-4h24.8v4h-10.2v32.3h-4.4V459.7z"/>
		<path class="st29" d="M251.1,480.5l-3.5,11.4h-4.5l11.4-36.2h5.2l11.4,36.2h-4.6l-3.6-11.4H251.1z M262.1,476.9l-3.3-10.4
			c-0.7-2.4-1.2-4.5-1.7-6.6h-0.1c-0.5,2.2-1,4.4-1.7,6.6l-3.3,10.5H262.1z"/>
		<path class="st29" d="M298.7,490.7c-1.6,0.9-4.8,1.7-8.8,1.7c-9.4,0-16.5-6.5-16.5-18.3c0-11.3,7.1-19,17.5-19
			c4.2,0,6.8,1,7.9,1.6l-1,3.8c-1.6-0.9-4-1.5-6.7-1.5c-7.8,0-13,5.4-13,14.9c0,8.9,4.7,14.6,12.8,14.6c2.6,0,5.3-0.6,7-1.5
			L298.7,490.7z"/>
		<path class="st29" d="M311.8,459.7h-10.2v-4h24.8v4h-10.2v32.3h-4.4V459.7z"/>
		<path class="st29" d="M357.3,473.4c0,12.5-7,19.1-15.5,19.1c-8.8,0-15-7.4-15-18.4c0-11.5,6.6-19,15.5-19
			C351.4,455.1,357.3,462.7,357.3,473.4z M331.4,474c0,7.7,3.9,14.7,10.7,14.7c6.8,0,10.7-6.8,10.7-15.1c0-7.2-3.5-14.7-10.7-14.7
			C335,458.9,331.4,466.1,331.4,474z"/>
	</g>
</g>
<g>
	<path class="st3" d="M477.1,205.5H50.9c-24.3,0-44.3-19.9-44.3-44.3v-3.5c0-24.3,19.9-44.3,44.3-44.3h426.1
		c24.3,0,44.3,19.9,44.3,44.3v3.5C521.3,185.6,501.4,205.5,477.1,205.5z"/>
	<g>
		<g>
			<defs>
				<rect id="SVGID_58_" x="27.5" y="121.2" width="48.4" height="76.8"/>
			</defs>
			<clipPath id="SVGID_59_">
				<use xlink:href="#SVGID_58_"  style="overflow:visible;"/>
			</clipPath>
			<g class="st36">
				<defs>
					<rect id="SVGID_60_" x="27.5" y="121.2" width="48.4" height="76.8"/>
				</defs>
				<clipPath id="SVGID_61_">
					<use xlink:href="#SVGID_60_"  style="overflow:visible;"/>
				</clipPath>
				<path class="st37" d="M74.5,181.9c-0.3-1.1-0.7-2.1-1.1-3.2c0,0,0,0,0,0c-2.3-4.6-5.4-8.6-9-12.3c-1.5-1.6-3-3.3-4.4-5
					c-3-3.5-5-7.3-4.6-12.1c0-0.1,0-0.2,0-0.3c0.3-1.5,0.7-4,0.9-4.6c1.2-4.4,3.5-8.3,5.4-12.3c1.6-3.5,3-7.1,4.1-10.7
					c-0.7,0-1.3-0.1-2-0.1c-1.8,6.2-4.6,12.1-7.5,17.9c-1.2,2.4-2.2,4.9-2.7,7.6c0,0.2-0.2,1.5-0.2,2.6c-0.1,0.2-0.2,0.3-0.2,0.5
					c-0.2,4,1,7.5,3.2,10.7c2.1,3.1,4.7,5.7,7.2,8.4c3.4,3.7,6.5,7.5,8.3,12.4c1.6,4.3,1.9,11,1.7,16.7c0.7,0,1.5-0.1,2.2-0.1
					C76,192.5,75.8,186,74.5,181.9"/>
				<path class="st37" d="M55.5,181.9c-0.3-0.3-0.6-0.9-1-0.3c-0.3,0.5,0.1,0.7,0.3,1c2.9,3.2,5.4,9.6,7.3,15.5c0.4,0,0.8,0,1.1,0
					c-0.5-2-0.9-3.8-1.3-4.7C60.4,188.9,58.3,185,55.5,181.9"/>
				<path class="st37" d="M43.4,198c-1.5-2.6-2.8-5.1-3.6-6.7c-2.5-5.4-4.1-10.9-3.3-16.9c0.4-3.6,1.6-6.9,2.7-10.3
					c1.2-3.6,1.5-7.2,0.7-10.9c0,0,0.1,0,0.1,0c0-0.1-0.1-0.3-0.2-0.5c0-0.2-0.1-0.3-0.2-0.4c-0.7-2-2.1-5.5-2.7-6.7
					c-2.1-4.1-4.1-8.3-4.9-12.9c-0.7-3.8-1.4-7.6-1.8-11.4c-0.5,0-1.1,0-1.6,0c0,0,0,0,0,0c-0.3,0-0.7,0-1,0c0.1,0.7,0.2,1.4,0.3,2
					c1,6.2,1.9,12.5,4.4,18.3c1.2,2.9,3.8,8.5,5,11.7c0,0.1,0,0.1,0,0.2c0.8,2.8,0.7,5.7,0,8.5c-0.4,1.5-0.8,3-1.4,4.4
					c-3.5,8.8-2.6,17.3,1.4,25.6c0.7,1.5,1.9,3.7,3.3,6c0.3,0,0.7,0,1,0c0,0,0,0,0,0C42.1,198,42.7,198,43.4,198"/>
			</g>
		</g>
	</g>
	<g>
		<path class="st29" d="M147,164.5h-13v13.1h14.5v3.9h-18.8v-36.4h18.1v3.9H134v11.5h13V164.5z"/>
		<path class="st29" d="M153.5,175.8c1.9,1.3,4.8,2.4,7.7,2.4c4.4,0,7-2.5,7-6.2c0-3.4-1.8-5.3-6.3-7.2c-5.5-2.1-8.8-5.2-8.8-10.3
			c0-5.7,4.3-9.9,10.8-9.9c3.4,0,5.9,0.9,7.4,1.8l-1.2,3.8c-1.1-0.6-3.3-1.7-6.3-1.7c-4.6,0-6.3,3-6.3,5.5c0,3.4,2,5.1,6.6,7
			c5.7,2.4,8.5,5.3,8.5,10.7c0,5.6-3.8,10.5-11.7,10.5c-3.2,0-6.7-1-8.5-2.3L153.5,175.8z"/>
		<path class="st29" d="M184.9,149.2h-10.2v-4h24.8v4h-10.2v32.4h-4.4V149.2z"/>
		<path class="st29" d="M220.5,164.5h-13v13.1H222v3.9h-18.8v-36.4h18.1v3.9h-13.7v11.5h13V164.5z M219.7,136.9l-6.3,6.3h-3.6
			l4.6-6.3H219.7z"/>
		<path class="st29" d="M234.7,149.2h-10.2v-4h24.8v4h-10.2v32.4h-4.4V149.2z"/>
		<path class="st29" d="M257.4,145.2v36.4H253v-36.4H257.4z"/>
		<path class="st29" d="M288.3,180.4c-1.6,0.9-4.8,1.7-8.8,1.7c-9.4,0-16.5-6.5-16.5-18.4c0-11.4,7.1-19.1,17.5-19.1
			c4.2,0,6.8,1,7.9,1.6l-1,3.8c-1.6-0.9-4-1.5-6.7-1.5c-7.8,0-13,5.5-13,15c0,8.9,4.7,14.6,12.8,14.6c2.6,0,5.3-0.6,7-1.5
			L288.3,180.4z"/>
		<path class="st29" d="M299.3,170.1l-3.5,11.4h-4.5l11.4-36.4h5.2l11.4,36.4h-4.6l-3.6-11.4H299.3z M310.2,166.4L307,156
			c-0.7-2.4-1.2-4.5-1.7-6.6h-0.1c-0.5,2.2-1,4.4-1.7,6.6l-3.3,10.5H310.2z"/>
	</g>
</g>
</svg>
