<?xml version="1.0" encoding="utf-8"?>
<!-- Generator: Adobe Illustrator 23.0.1, SVG Export Plug-In . SVG Version: 6.00 Build 0)  -->
<svg version="1.1" id="Layer_1" xmlns="http://www.w3.org/2000/svg" xmlns:xlink="http://www.w3.org/1999/xlink" x="0px" y="0px"
	 viewBox="0 0 518.5 165.7" style="enable-background:new 0 0 518.5 165.7;" xml:space="preserve">
<style type="text/css">
	.st0{fill:#3F3F3F;}
	.st1{fill:#252626;}
	.st2{fill:none;stroke:#0092A7;stroke-width:4.252;stroke-miterlimit:22.9256;}
	.st3{enable-background:new    ;}
	.st4{filter:url(#Adobe_OpacityMaskFilter);}
	.st5{fill-rule:evenodd;clip-rule:evenodd;fill:url(#SVGID_2_);}
	.st6{fill:url(#SVGID_3_);}
	.st7{mask:url(#SVGID_1_);fill-rule:evenodd;clip-rule:evenodd;fill:url(#SVGID_4_);}
	.st8{fill-rule:evenodd;clip-rule:evenodd;fill:#FFFFFF;}
</style>
<g>
	<path class="st0" d="M184.6,102.5v-72h-4.3v-1.1h17c2.8,0,5.4,0.4,7.8,1.3c2.4,0.9,4.4,2.1,6,3.7c1.7,1.6,2.9,3.4,3.9,5.4
		c0.9,2,1.4,4.2,1.4,6.6v40.3c0,2.3-0.5,4.5-1.4,6.6c-0.9,2-2.2,3.8-3.9,5.4s-3.7,2.8-6,3.7c-2.4,0.9-5,1.3-7.8,1.3h-17v-1.1
		L184.6,102.5C184.6,102.6,184.6,102.5,184.6,102.5z M207.9,46.4c0-2.2-0.3-4.3-0.8-6.2c-0.6-1.9-1.3-3.6-2.3-5
		c-1-1.4-2.1-2.5-3.3-3.4c-1.3-0.8-2.6-1.3-4.1-1.3h-4.2v72h4.2c1.5,0,2.9-0.4,4.1-1.3c1.3-0.8,2.4-2,3.3-3.4c1-1.4,1.7-3.1,2.3-5
		c0.6-1.9,0.8-4,0.8-6.2V46.4L207.9,46.4z M237.3,67.6v35h4.2v1.1h-17v-1.1h4.2v-72h-4.2v-1.2h17c2.8,0,5.4,0.4,7.8,1.3
		c2.4,0.9,4.4,2.1,6,3.7c1.7,1.6,2.9,3.4,3.9,5.4c0.9,2,1.4,4.2,1.4,6.6v4.2c0,4-1.3,7.4-3.8,10.4s-5.9,5-10.2,6c4.2,1,7.6,3,10.2,6
		c2.5,3,3.8,6.5,3.8,10.5v14.4c0,1,0.2,1.9,0.6,2.6s0.9,1.1,1.5,1.1s1.1-0.4,1.5-1.1s0.6-1.6,0.6-2.5h1.1c0,1.9-0.7,3.5-2,4.8
		c-1.3,1.3-3,2-4.9,2c-1.9,0-3.5-0.7-4.9-2c-1.3-1.3-2-3-2-4.9V83.5c0-2.2-0.3-4.3-0.8-6.2c-0.6-1.9-1.3-3.6-2.3-5s-2.1-2.5-3.3-3.4
		c-1.3-0.8-2.6-1.3-4.1-1.3H237.3L237.3,67.6z M237.3,30.5v36h4.2c1.5,0,2.9-0.4,4.1-1.3c1.3-0.8,2.4-2,3.3-3.4c1-1.4,1.7-3.1,2.3-5
		c0.6-1.9,0.8-4,0.8-6.2v-4.2c0-2.2-0.3-4.3-0.8-6.2c-0.6-1.9-1.3-3.6-2.3-5c-1-1.4-2.1-2.5-3.3-3.4c-1.3-0.8-2.6-1.3-4.1-1.3
		L237.3,30.5L237.3,30.5z M270.3,99.4c0-1.5,0.5-2.7,1.5-3.8c1-1,2.3-1.5,3.8-1.5s2.7,0.5,3.8,1.5c1,1,1.5,2.3,1.5,3.8
		s-0.5,2.7-1.5,3.8c-1,1-2.3,1.5-3.8,1.5s-2.7-0.5-3.8-1.5C270.8,102.1,270.3,100.8,270.3,99.4L270.3,99.4z M321,29.4v14.8h-1.1
		c0-1.9-0.2-3.7-0.5-5.4c-0.4-1.7-0.8-3.1-1.5-4.4c-0.6-1.3-1.4-2.3-2.2-3c-0.8-0.7-1.7-1.1-2.7-1.1h-6.9v72h4.2v1.1h-17v-1.1h4.2
		l0.1-72h-6.9c-1,0-1.9,0.4-2.7,1.1c-0.8,0.7-1.6,1.7-2.2,3c-0.6,1.3-1.1,2.7-1.5,4.4s-0.5,3.4-0.5,5.4h-1.1V29.4H321L321,29.4z
		 M358.8,87.7c0,2.3-0.3,4.5-1,6.6c-0.7,2-1.6,3.8-2.8,5.4c-1.2,1.6-2.5,2.8-4,3.7c-1.5,0.9-3.2,1.3-4.9,1.3c-2.5,0-4.8-0.4-6.8-1.3
		c-2.1-0.9-3.9-2.1-5.4-3.7s-2.6-3.4-3.5-5.4c-0.8-2-1.3-4.2-1.3-6.6V30.5h-4.2v-1.1h17v1.1h-4.2v57.2c0,2.2,0.2,4.3,0.6,6.2
		c0.4,1.9,1,3.6,1.7,5c0.7,1.4,1.6,2.5,2.6,3.4c1,0.8,2.2,1.3,3.5,1.3c1.6,0,3.1-0.4,4.6-1.3c1.4-0.8,2.6-2,3.7-3.4s1.9-3.1,2.5-5
		s0.9-4,0.9-6.2V30.5h-4.2v-1.1h10.1v1.1c-1.7,0-2.9,0.3-3.7,0.9c-0.7,0.6-1.1,1.4-1.1,2.3v54H358.8z M381.4,67.6v35h4.2v1.1h-17
		v-1.1h4.2v-72h-4.2v-1.2h17c2.8,0,5.4,0.4,7.8,1.3c2.4,0.9,4.4,2.1,6,3.7c1.7,1.6,2.9,3.4,3.9,5.4c0.9,2,1.4,4.2,1.4,6.6v4.2
		c0,4-1.3,7.4-3.8,10.4s-5.9,5-10.2,6c4.2,1,7.6,3,10.2,6c2.5,3,3.8,6.5,3.8,10.5v14.4c0,1,0.2,1.9,0.6,2.6c0.4,0.7,0.9,1.1,1.5,1.1
		s1.1-0.4,1.5-1.1s0.6-1.6,0.6-2.5h1.1c0,1.9-0.7,3.5-2,4.8c-1.3,1.3-3,2-4.9,2s-3.5-0.7-4.9-2c-1.3-1.3-2-3-2-4.9V83.5
		c0-2.2-0.3-4.3-0.8-6.2c-0.6-1.9-1.3-3.6-2.3-5s-2.1-2.5-3.3-3.4c-1.3-0.8-2.6-1.3-4.1-1.3H381.4L381.4,67.6z M381.4,30.5v36h4.2
		c1.5,0,2.9-0.4,4.1-1.3c1.3-0.8,2.4-2,3.3-3.4c1-1.4,1.7-3.1,2.3-5s0.8-4,0.8-6.2v-4.2c0-2.2-0.3-4.3-0.8-6.2
		c-0.6-1.9-1.3-3.6-2.3-5c-1-1.4-2.1-2.5-3.3-3.4c-1.3-0.8-2.6-1.3-4.1-1.3L381.4,30.5L381.4,30.5z M430.9,29.4v1.1h-4.2v72h4.2v1.1
		h-17v-1.1h4.2v-72h-4.2v-1.1H430.9L430.9,29.4z M436.4,103.6l23-73.1h-14c-1,0-1.9,0.4-2.7,1.1c-0.8,0.7-1.5,1.7-2.2,3
		c-0.6,1.3-1.1,2.7-1.5,4.4s-0.5,3.4-0.5,5.4h-1.1v-15h31.1l-23,73.1h14c0.9,0,1.8-0.4,2.6-1.1c0.8-0.7,1.6-1.7,2.2-3
		s1.1-2.7,1.5-4.4c0.4-1.7,0.5-3.4,0.5-5.4h1.1v14.8h-31V103.6z M501.5,45.3c0-2.2-0.2-4.3-0.6-6.2s-1-3.6-1.7-5
		c-0.7-1.4-1.6-2.5-2.6-3.4c-1-0.8-2.2-1.3-3.5-1.3s-2.5,0.4-3.5,1.3c-1,0.8-1.9,2-2.6,3.4c-0.7,1.4-1.3,3.1-1.7,5
		c-0.4,1.9-0.6,4-0.6,6.2v42.4c0,2.2,0.2,4.3,0.6,6.2c0.4,1.9,1,3.6,1.7,5s1.6,2.5,2.6,3.4c1,0.8,2.2,1.3,3.5,1.3s2.5-0.4,3.5-1.3
		c1-0.8,1.9-2,2.6-3.4s1.3-3.1,1.7-5c0.4-1.9,0.6-4,0.6-6.2V45.3L501.5,45.3z M476.1,45.3c0-2.3,0.4-4.5,1.3-6.6
		c0.8-2,2-3.8,3.5-5.4c1.5-1.6,3.3-2.8,5.4-3.7s4.4-1.3,6.8-1.3c2.5,0,4.7,0.4,6.8,1.3c2.1,0.9,3.9,2.1,5.4,3.7
		c1.5,1.6,2.6,3.4,3.5,5.4c0.8,2,1.3,4.2,1.3,6.6v42.4c0,2.3-0.4,4.5-1.3,6.6c-0.8,2-2,3.8-3.5,5.4s-3.3,2.8-5.4,3.7
		c-2.1,0.9-4.4,1.3-6.8,1.3c-2.5,0-4.7-0.4-6.8-1.3c-2.1-0.9-3.9-2.1-5.4-3.7s-2.6-3.4-3.5-5.4c-0.8-2-1.3-4.2-1.3-6.6V45.3z"/>
	<g>
		<path class="st1" d="M514.4,25.3c0.4-0.1,0.7-0.3,0.9-0.6c0.2-0.3,0.3-0.6,0.3-1c0-0.3-0.1-0.6-0.2-0.8c-0.1-0.2-0.3-0.4-0.5-0.5
			c-0.2-0.1-0.4-0.2-0.7-0.3c-0.2-0.1-0.5-0.1-0.7-0.1h-2.6v0.1h0.6v6.1h-0.6v0.1h2.3v-0.1h-0.6v-2.9h0.6l1,2.9h-0.5v0.2h2.3v-0.1
			h-0.6L514.4,25.3z M514.1,24.8c-0.2,0.1-0.3,0.2-0.5,0.3s-0.4,0.1-0.6,0.1h-0.3v-3h0.3c0.2,0,0.4,0,0.6,0.1
			c0.2,0.1,0.4,0.2,0.5,0.3c0.1,0.1,0.2,0.3,0.3,0.5c0.1,0.2,0.1,0.4,0.1,0.6c0,0.2,0,0.4-0.1,0.6C514.3,24.5,514.2,24.7,514.1,24.8
			z"/>
		<path class="st1" d="M518.1,23.2c-0.3-0.6-0.7-1.2-1.1-1.7c-0.5-0.5-1-0.9-1.7-1.1c-0.6-0.3-1.3-0.4-2-0.4s-1.4,0.1-2,0.4
			c-0.6,0.3-1.2,0.7-1.7,1.1c-0.5,0.5-0.9,1-1.1,1.7c-0.2,0.6-0.4,1.2-0.4,2c0,0.7,0.1,1.4,0.4,2c0.3,0.6,0.7,1.2,1.1,1.7
			c0.5,0.5,1,0.9,1.7,1.1c0.6,0.3,1.3,0.4,2,0.4s1.4-0.1,2-0.4c0.6-0.3,1.2-0.7,1.7-1.1c0.5-0.5,0.9-1,1.1-1.7
			c0.3-0.6,0.4-1.3,0.4-2C518.5,24.5,518.4,23.8,518.1,23.2z M517.7,27c-0.2,0.6-0.6,1.1-1,1.5c-0.4,0.4-0.9,0.8-1.5,1
			c-0.6,0.3-1.2,0.4-1.8,0.4s-1.2-0.2-1.8-0.4c-0.6-0.2-1.1-0.6-1.5-1s-0.8-0.9-1-1.5c-0.3-0.6-0.4-1.2-0.4-1.8
			c0-0.7,0.1-1.3,0.4-1.8c0.2-0.6,0.6-1.1,1-1.5s0.9-0.8,1.5-1c0.6-0.3,1.2-0.4,1.8-0.4s1.2,0.2,1.8,0.4c0.6,0.2,1.1,0.6,1.5,1
			c0.4,0.4,0.8,0.9,1,1.5c0.3,0.6,0.4,1.2,0.4,1.8C518.1,25.8,517.9,26.4,517.7,27z"/>
	</g>
	<line class="st2" x1="180.2" y1="117.6" x2="509.9" y2="117.6"/>
	<g class="st3">
		<path class="st0" d="M197.2,141.7c-1.1-0.6-1.9-1.4-2.5-2.5c-0.6-1.1-0.9-2.2-0.9-3.5s0.3-2.5,0.9-3.5c0.6-1,1.5-1.9,2.5-2.5
			c1.1-0.6,2.3-0.9,3.6-0.9c1,0,1.9,0.2,2.7,0.5s1.5,0.8,2.1,1.4l-0.6,0.6c-1.1-1.1-2.5-1.6-4.2-1.6c-1.1,0-2.2,0.3-3.1,0.8
			c-0.9,0.5-1.7,1.2-2.2,2.2c-0.5,0.9-0.8,1.9-0.8,3.1c0,1.1,0.3,2.2,0.8,3.1c0.5,0.9,1.3,1.6,2.2,2.2c0.9,0.5,2,0.8,3.1,0.8
			c1.7,0,3.1-0.5,4.2-1.6l0.6,0.6c-0.6,0.6-1.3,1.1-2.1,1.4c-0.8,0.3-1.7,0.5-2.7,0.5C199.5,142.6,198.3,142.3,197.2,141.7z"/>
		<path class="st0" d="M215,128.9h1v13.6h-1V128.9z"/>
		<path class="st0" d="M236.2,142.5l-3.3-4.6c-0.5,0.1-0.9,0.1-1.3,0.1h-3.9v4.5h-1v-13.6h4.9c1.7,0,3.1,0.4,4,1.2
			c1,0.8,1.5,1.9,1.5,3.4c0,1.1-0.3,2-0.8,2.7s-1.3,1.3-2.4,1.5l3.4,4.8H236.2z M231.6,137.2c1.5,0,2.6-0.3,3.3-1
			c0.7-0.7,1.1-1.6,1.1-2.7c0-1.2-0.4-2.1-1.1-2.7c-0.7-0.6-1.9-1-3.3-1h-3.9v7.4C227.7,137.2,231.6,137.2,231.6,137.2z"/>
		<path class="st0" d="M248.1,141.1c-1-1-1.4-2.5-1.4-4.4v-7.8h1v7.8c0,1.7,0.4,2.9,1.1,3.8c0.8,0.8,1.9,1.2,3.3,1.2
			c1.4,0,2.5-0.4,3.3-1.2c0.8-0.8,1.1-2.1,1.1-3.8v-7.8h1v7.8c0,1.9-0.5,3.4-1.4,4.4c-1,1-2.3,1.5-4,1.5
			C250.4,142.6,249,142.1,248.1,141.1z"/>
		<path class="st0" d="M267.4,142.1c-0.6-0.3-1.2-0.8-1.5-1.4l0.6-0.7c0.4,0.6,0.8,1,1.3,1.3s1.1,0.4,1.7,0.4c0.9,0,1.6-0.3,2-0.8
			c0.4-0.5,0.7-1.3,0.7-2.4v-8.7h-5v-0.9h6v9.6c0,1.4-0.3,2.4-0.9,3.1c-0.6,0.7-1.5,1-2.8,1C268.7,142.6,268,142.5,267.4,142.1z"/>
		<path class="st0" d="M291.9,138.7H284l-1.7,3.8h-1.1l6.3-13.6h1l6.3,13.6h-1.1L291.9,138.7z M291.5,137.9l-3.6-7.9l-3.6,7.9H291.5
			z M289.6,125.5h1.4l-3.1,2.3h-1.1L289.6,125.5z"/>
		<path class="st0" d="M314.3,128.9v13.6h-0.8l-9.3-11.8v11.8h-1v-13.6h0.8l9.3,11.8v-11.8H314.3z"/>
		<path class="st0" d="M327.2,141.7c-1.1-0.6-1.9-1.4-2.5-2.5c-0.6-1.1-0.9-2.2-0.9-3.5s0.3-2.5,0.9-3.5c0.6-1,1.5-1.9,2.5-2.5
			c1.1-0.6,2.3-0.9,3.6-0.9c1.3,0,2.5,0.3,3.6,0.9c1.1,0.6,1.9,1.4,2.5,2.5c0.6,1.1,0.9,2.2,0.9,3.5s-0.3,2.5-0.9,3.5
			c-0.6,1.1-1.5,1.9-2.5,2.5c-1.1,0.6-2.3,0.9-3.6,0.9C329.5,142.6,328.3,142.3,327.2,141.7z M333.9,141c0.9-0.5,1.6-1.2,2.2-2.2
			c0.5-0.9,0.8-1.9,0.8-3.1c0-1.1-0.3-2.2-0.8-3.1c-0.5-0.9-1.3-1.6-2.2-2.2c-0.9-0.5-2-0.8-3.1-0.8s-2.2,0.3-3.1,0.8
			s-1.7,1.2-2.2,2.2c-0.5,0.9-0.8,1.9-0.8,3.1c0,1.1,0.3,2.2,0.8,3.1c0.5,0.9,1.3,1.6,2.2,2.2c0.9,0.5,2,0.8,3.1,0.8
			C332,141.7,333,141.5,333.9,141z"/>
		<path class="st0" d="M367.3,130.1c1,0.8,1.5,1.9,1.5,3.4c0,1.4-0.5,2.5-1.5,3.4c-1,0.9-2.3,1.2-4,1.2h-3.9v4.5h-1V129h4.9
			C365,128.9,366.3,129.3,367.3,130.1z M366.6,136.2c0.8-0.6,1.1-1.5,1.1-2.7s-0.4-2.1-1.1-2.7c-0.8-0.6-1.9-1-3.3-1h-3.9v7.4h3.9
			C364.7,137.2,365.8,136.9,366.6,136.2z"/>
		<path class="st0" d="M378.1,128.9h1v12.7h7.8v0.9h-8.8V128.9z"/>
		<path class="st0" d="M403.9,138.7H396l-1.7,3.8h-1.1l6.3-13.6h1l6.3,13.6h-1.1L403.9,138.7z M403.6,137.9L400,130l-3.6,7.9H403.6z
			 M401.6,125.5h1.4l-3.1,2.3h-1.1L401.6,125.5z"/>
		<path class="st0" d="M416,142.1c-0.9-0.3-1.6-0.8-2.1-1.3l0.4-0.7c0.5,0.5,1.1,0.9,1.9,1.2c0.8,0.3,1.7,0.5,2.6,0.5
			c1.3,0,2.3-0.2,2.9-0.7c0.7-0.5,1-1.1,1-1.9c0-0.6-0.2-1.1-0.5-1.5c-0.3-0.4-0.8-0.6-1.3-0.8s-1.2-0.4-2.1-0.6
			c-1-0.2-1.8-0.5-2.4-0.7s-1.1-0.6-1.5-1.1s-0.6-1.1-0.6-2c0-0.7,0.2-1.3,0.5-1.8c0.3-0.5,0.9-1,1.6-1.3s1.6-0.5,2.7-0.5
			c0.8,0,1.5,0.1,2.2,0.3c0.7,0.2,1.4,0.5,1.9,0.9l-0.4,0.8c-0.5-0.4-1.1-0.7-1.8-0.9c-0.7-0.2-1.3-0.3-1.9-0.3
			c-1.3,0-2.2,0.3-2.9,0.8c-0.6,0.5-1,1.2-1,2c0,0.6,0.2,1.1,0.5,1.5c0.3,0.4,0.8,0.6,1.3,0.8c0.5,0.2,1.2,0.4,2.1,0.6
			c1,0.2,1.8,0.5,2.4,0.7c0.6,0.2,1.1,0.6,1.5,1.1s0.6,1.1,0.6,1.9c0,0.7-0.2,1.3-0.5,1.8c-0.4,0.5-0.9,1-1.6,1.3
			c-0.7,0.3-1.6,0.5-2.7,0.5C417.8,142.6,416.9,142.5,416,142.1z"/>
		<path class="st0" d="M435.5,129.8h-4.9v-0.9h10.8v0.9h-4.9v12.7h-1V129.8L435.5,129.8z"/>
		<path class="st0" d="M449.9,128.9h1v13.6h-1V128.9z"/>
		<path class="st0" d="M463.8,141.7c-1.1-0.6-1.9-1.4-2.5-2.5c-0.6-1.1-0.9-2.2-0.9-3.5s0.3-2.5,0.9-3.5c0.6-1.1,1.5-1.9,2.5-2.5
			c1.1-0.6,2.3-0.9,3.6-0.9c1,0,1.9,0.2,2.7,0.5c0.8,0.3,1.5,0.8,2.1,1.4l-0.6,0.6c-1.1-1.1-2.5-1.6-4.2-1.6c-1.1,0-2.2,0.3-3.1,0.8
			s-1.7,1.2-2.2,2.2c-0.5,0.9-0.8,1.9-0.8,3.1c0,1.1,0.3,2.2,0.8,3.1c0.5,0.9,1.3,1.6,2.2,2.2c0.9,0.6,2,0.8,3.1,0.8
			c1.7,0,3.1-0.5,4.2-1.6l0.6,0.6c-0.6,0.6-1.3,1.1-2.1,1.4c-0.8,0.3-1.7,0.5-2.7,0.5C466,142.6,464.8,142.3,463.8,141.7z"/>
		<path class="st0" d="M483.4,141.7c-1.1-0.6-1.9-1.4-2.5-2.5c-0.6-1.1-0.9-2.2-0.9-3.5s0.3-2.5,0.9-3.5c0.6-1.1,1.5-1.9,2.5-2.5
			c1.1-0.6,2.3-0.9,3.6-0.9s2.5,0.3,3.6,0.9c1.1,0.6,1.9,1.4,2.5,2.5c0.6,1.1,0.9,2.2,0.9,3.5s-0.3,2.5-0.9,3.5
			c-0.6,1.1-1.5,1.9-2.5,2.5c-1.1,0.6-2.3,0.9-3.6,0.9S484.5,142.3,483.4,141.7z M490.1,141c0.9-0.5,1.6-1.2,2.2-2.2
			c0.5-0.9,0.8-1.9,0.8-3.1c0-1.1-0.3-2.2-0.8-3.1c-0.5-0.9-1.3-1.6-2.2-2.2c-0.9-0.5-2-0.8-3.1-0.8s-2.2,0.3-3.1,0.8
			s-1.7,1.2-2.2,2.2c-0.5,0.9-0.8,1.9-0.8,3.1c0,1.1,0.3,2.2,0.8,3.1c0.5,0.9,1.3,1.6,2.2,2.2c0.9,0.5,2,0.8,3.1,0.8
			S489.2,141.5,490.1,141z"/>
	</g>
</g>
<defs>
	<filter id="Adobe_OpacityMaskFilter" filterUnits="userSpaceOnUse" x="0.1" y="3.3" width="161.1" height="162.4">
		
			<feColorMatrix  type="matrix" values="-1 0 0 0 1  0 -1 0 0 1  0 0 -1 0 1  0 0 0 1 0" color-interpolation-filters="sRGB" result="source"/>
		<feFlood  style="flood-color:white;flood-opacity:1" result="back"/>
		<feBlend  in="source" in2="back" mode="normal"/>
	</filter>
</defs>
<mask maskUnits="userSpaceOnUse" x="0.1" y="3.3" width="161.1" height="162.4" id="SVGID_1_">
	<g class="st4">
		<linearGradient id="SVGID_2_" gradientUnits="userSpaceOnUse" x1="55.8211" y1="104.541" x2="55.8211" y2="6.4199">
			<stop  offset="0.2929" style="stop-color:#000000"/>
			<stop  offset="0.4825" style="stop-color:#2C2C2C"/>
			<stop  offset="0.9096" style="stop-color:#9B9B9B"/>
			<stop  offset="1" style="stop-color:#B3B3B3"/>
		</linearGradient>
		<path class="st5" d="M23.3,28.5C43.3,7.3,74.1-0.9,92,10.4c18,11.3,16.3,37.7-3.7,59c-20,21.3-50.8,29.4-68.7,18.1
			C1.7,76.2,3.3,49.8,23.3,28.5z"/>
		<linearGradient id="SVGID_3_" gradientUnits="userSpaceOnUse" x1="95.4112" y1="163.8133" x2="95.4112" y2="-0.7878">
			<stop  offset="0" style="stop-color:#000000"/>
			<stop  offset="0.5" style="stop-color:#4C4C4C;stop-opacity:0.6"/>
			<stop  offset="1" style="stop-color:#000000"/>
		</linearGradient>
		<path class="st6" d="M111,9.3c18,14.9,29.6,37.5,29.6,62.9c0,44.8-36.1,81.2-80.5,81.2c-10.8,0-21-2.1-30.4-6
			c13.9,11.5,31.6,18.3,51,18.3c44.5,0,80.5-36.3,80.5-81.2C161.2,50.6,140.4,21.4,111,9.3z"/>
	</g>
</mask>
<radialGradient id="SVGID_4_" cx="95.6044" cy="-9.6845" r="133.134" gradientTransform="matrix(0.7684 0 0 0.7747 37.701 49.8058)" gradientUnits="userSpaceOnUse">
	<stop  offset="0" style="stop-color:#4CC6E5"/>
	<stop  offset="0.2743" style="stop-color:#2CB2CB"/>
	<stop  offset="0.5435" style="stop-color:#14A2B8"/>
	<stop  offset="0.7919" style="stop-color:#0599AD"/>
	<stop  offset="1" style="stop-color:#0096A9"/>
</radialGradient>
<ellipse class="st7" cx="80.6" cy="84.5" rx="80.5" ry="81.2"/>
<path class="st8" d="M50.4,30.3c-14.5,0-26.4,12-26.4,26.6h39.6v93.3c5,0,9.7-1.4,13.6-3.8c-3.2-32.3,8-39.6,19.9-47.2
	c1-0.6,1.9-1.2,2.9-1.9c5-2.7,11-5.7,1.1-17.1c-9.3-12.8-12.6-22.5-15.9-32.5c-1.8-5.5-3.7-11.1-6.7-17.4H50.4L50.4,30.3z
	 M79.7,144.7c-1.9-21.9,3.3-31.3,10.6-37.5c-0.1,0.1-0.1,0.2-0.2,0.3v16.1C90.1,132.1,86,139.8,79.7,144.7L79.7,144.7z M110.1,92.6
	c0,0,0.1-0.1,0.1-0.1c0,0,0,0,0,0.1C110.2,92.5,110.2,92.5,110.1,92.6L110.1,92.6z M91.2,56.9c-1.3-3.4-2.4-6.7-3.5-10
	c-1.8-5.3-3.5-10.7-6.3-16.6h48.3c0,14.7-11.9,26.6-26.4,26.6H91.2z"/>
</svg>
