<?xml version="1.0" encoding="utf-8"?>
<!-- Generator: Adobe Illustrator 22.0.1, SVG Export Plug-In . SVG Version: 6.00 Build 0)  -->
<svg version="1.1" xmlns="http://www.w3.org/2000/svg" xmlns:xlink="http://www.w3.org/1999/xlink" x="0px" y="0px"
	 viewBox="0 0 477.3 122.2" style="enable-background:new 0 0 477.3 122.2;" xml:space="preserve">
<style type="text/css">
	.st0{fill-rule:evenodd;clip-rule:evenodd;fill:#0092A7;}
	.st1{fill-rule:evenodd;clip-rule:evenodd;fill:#061636;}
	.st2{fill-rule:evenodd;clip-rule:evenodd;fill:none;stroke:#0092A7;stroke-width:4.252;stroke-miterlimit:22.9256;}
	.st3{filter:url(#Adobe_OpacityMaskFilter);}
	.st4{fill-rule:evenodd;clip-rule:evenodd;fill:url(#SVGID_2_);}
	.st5{fill:url(#SVGID_3_);}
	.st6{mask:url(#SVGID_1_);fill-rule:evenodd;clip-rule:evenodd;fill:url(#SVGID_4_);}
	.st7{fill-rule:evenodd;clip-rule:evenodd;fill:#FFFFFF;}
</style>
<g id="Layer_1">
	<g>
		<path class="st0" d="M4.4,83.1v-72H0.1V10h17c2.8,0,5.4,0.4,7.8,1.3c2.4,0.9,4.4,2.1,6,3.7c1.7,1.6,2.9,3.4,3.9,5.4
			c0.9,2,1.4,4.2,1.4,6.6v40.3c0,2.3-0.5,4.5-1.4,6.6c-0.9,2-2.2,3.8-3.9,5.4c-1.7,1.6-3.7,2.8-6,3.7c-2.4,0.9-5,1.3-7.8,1.3h-17
			v-1.1H4.4L4.4,83.1z M27.7,27c0-2.2-0.3-4.3-0.8-6.2c-0.6-1.9-1.3-3.6-2.3-5c-1-1.4-2.1-2.5-3.3-3.4c-1.3-0.8-2.6-1.3-4.1-1.3
			h-4.2v72h4.2c1.5,0,2.9-0.4,4.1-1.3c1.3-0.8,2.4-2,3.3-3.4c1-1.4,1.7-3.1,2.3-5c0.6-1.9,0.8-4,0.8-6.2V27L27.7,27z M57.1,48.2v35
			h4.2v1.1h-17v-1.1h4.2v-72h-4.2V10h17c2.8,0,5.4,0.4,7.8,1.3c2.4,0.9,4.4,2.1,6,3.7c1.7,1.6,2.9,3.4,3.9,5.4
			c0.9,2,1.4,4.2,1.4,6.6v4.2c0,4-1.3,7.4-3.8,10.4c-2.5,3-5.9,5-10.2,6c4.2,1,7.6,3,10.2,6c2.5,3,3.8,6.5,3.8,10.5v14.3
			c0,1,0.2,1.9,0.6,2.6c0.4,0.7,0.9,1.1,1.5,1.1c0.6,0,1.1-0.4,1.5-1.1c0.4-0.7,0.6-1.6,0.6-2.5h1.1c0,1.9-0.7,3.5-2,4.8
			c-1.3,1.3-3,2-4.9,2c-1.9,0-3.5-0.7-4.9-2c-1.3-1.3-2-3-2-4.9V64.1c0-2.2-0.3-4.3-0.8-6.2c-0.6-1.9-1.3-3.6-2.3-5
			c-1-1.4-2.1-2.5-3.3-3.4c-1.3-0.8-2.6-1.3-4.1-1.3H57.1L57.1,48.2z M57.1,11.1v36h4.2c1.5,0,2.9-0.4,4.1-1.3
			c1.3-0.8,2.4-2,3.3-3.4c1-1.4,1.7-3.1,2.3-5c0.6-1.9,0.8-4,0.8-6.2V27c0-2.2-0.3-4.3-0.8-6.2c-0.6-1.9-1.3-3.6-2.3-5
			c-1-1.4-2.1-2.5-3.3-3.4c-1.3-0.8-2.6-1.3-4.1-1.3H57.1L57.1,11.1z M90.1,79.9c0-1.5,0.5-2.7,1.5-3.8c1-1,2.3-1.5,3.8-1.5
			c1.5,0,2.7,0.5,3.8,1.5c1,1,1.5,2.3,1.5,3.8c0,1.5-0.5,2.7-1.5,3.8c-1,1-2.3,1.5-3.8,1.5c-1.5,0-2.7-0.5-3.8-1.5
			C90.6,82.7,90.1,81.4,90.1,79.9L90.1,79.9z M140.8,10v14.8h-1.1c0-1.9-0.2-3.7-0.5-5.4c-0.4-1.7-0.8-3.1-1.5-4.4
			c-0.6-1.3-1.4-2.3-2.2-3c-0.8-0.7-1.7-1.1-2.7-1.1h-6.9v72h4.2v1.1h-17v-1.1h4.2l0.1-72h-6.9c-1,0-1.9,0.4-2.7,1.1
			c-0.8,0.7-1.6,1.7-2.2,3c-0.6,1.3-1.1,2.7-1.5,4.4c-0.4,1.7-0.5,3.4-0.5,5.4h-1.1V10H140.8L140.8,10z M178.6,68.3
			c0,2.3-0.3,4.5-1,6.6c-0.7,2-1.6,3.8-2.8,5.4c-1.2,1.6-2.5,2.8-4,3.7c-1.5,0.9-3.2,1.3-4.9,1.3c-2.5,0-4.8-0.4-6.8-1.3
			c-2.1-0.9-3.9-2.1-5.4-3.7c-1.5-1.6-2.6-3.4-3.5-5.4c-0.8-2-1.3-4.2-1.3-6.6V11.1h-4.2V10h17v1.1h-4.2v57.2c0,2.2,0.2,4.3,0.6,6.2
			c0.4,1.9,1,3.6,1.7,5c0.7,1.4,1.6,2.5,2.6,3.4c1,0.8,2.2,1.3,3.5,1.3c1.6,0,3.1-0.4,4.6-1.3c1.4-0.8,2.6-2,3.7-3.4
			c1.1-1.4,1.9-3.1,2.5-5c0.6-1.9,0.9-4,0.9-6.2V11.1h-4.2V10h10.1v1.1c-1.7,0-2.9,0.3-3.7,0.9c-0.7,0.6-1.1,1.4-1.1,2.3V68.3
			L178.6,68.3z M201.2,48.2v35h4.2v1.1h-17v-1.1h4.2v-72h-4.2V10h17c2.8,0,5.4,0.4,7.8,1.3c2.4,0.9,4.4,2.1,6,3.7
			c1.7,1.6,2.9,3.4,3.9,5.4c0.9,2,1.4,4.2,1.4,6.6v4.2c0,4-1.3,7.4-3.8,10.4c-2.5,3-5.9,5-10.2,6c4.2,1,7.6,3,10.2,6
			c2.5,3,3.8,6.5,3.8,10.5v14.3c0,1,0.2,1.9,0.6,2.6c0.4,0.7,0.9,1.1,1.5,1.1c0.6,0,1.1-0.4,1.5-1.1c0.4-0.7,0.6-1.6,0.6-2.5h1.1
			c0,1.9-0.7,3.5-2,4.8c-1.3,1.3-3,2-4.9,2c-1.9,0-3.5-0.7-4.9-2c-1.3-1.3-2-3-2-4.9V64.1c0-2.2-0.3-4.3-0.8-6.2
			c-0.6-1.9-1.3-3.6-2.3-5c-1-1.4-2.1-2.5-3.3-3.4c-1.3-0.8-2.6-1.3-4.1-1.3H201.2L201.2,48.2z M201.2,11.1v36h4.2
			c1.5,0,2.9-0.4,4.1-1.3c1.3-0.8,2.4-2,3.3-3.4c1-1.4,1.7-3.1,2.3-5c0.6-1.9,0.8-4,0.8-6.2V27c0-2.2-0.3-4.3-0.8-6.2
			c-0.6-1.9-1.3-3.6-2.3-5c-1-1.4-2.1-2.5-3.3-3.4c-1.3-0.8-2.6-1.3-4.1-1.3H201.2L201.2,11.1z M250.7,10v1.1h-4.2v72h4.2v1.1h-17
			v-1.1h4.2v-72h-4.2V10H250.7L250.7,10z M256.2,84.2l23-73.1h-14c-1,0-1.9,0.4-2.7,1.1c-0.8,0.7-1.5,1.7-2.2,3
			c-0.6,1.3-1.1,2.7-1.5,4.4c-0.4,1.7-0.5,3.4-0.5,5.4h-1.1V10h31.1l-23,73.1h14c0.9,0,1.8-0.4,2.6-1.1c0.8-0.7,1.6-1.7,2.2-3
			c0.6-1.3,1.1-2.7,1.5-4.4c0.4-1.7,0.5-3.4,0.5-5.4h1.1v14.8H256.2L256.2,84.2z M321.3,25.9c0-2.2-0.2-4.3-0.6-6.2
			c-0.4-1.9-1-3.6-1.7-5c-0.7-1.4-1.6-2.5-2.6-3.4c-1-0.8-2.2-1.3-3.5-1.3c-1.3,0-2.5,0.4-3.5,1.3c-1,0.8-1.9,2-2.6,3.4
			c-0.7,1.4-1.3,3.1-1.7,5c-0.4,1.9-0.6,4-0.6,6.2v42.4c0,2.2,0.2,4.3,0.6,6.2c0.4,1.9,1,3.6,1.7,5c0.7,1.4,1.6,2.5,2.6,3.4
			c1,0.8,2.2,1.3,3.5,1.3c1.3,0,2.5-0.4,3.5-1.3c1-0.8,1.9-2,2.6-3.4c0.7-1.4,1.3-3.1,1.7-5c0.4-1.9,0.6-4,0.6-6.2V25.9L321.3,25.9z
			 M295.9,25.9c0-2.3,0.4-4.5,1.3-6.6c0.8-2,2-3.8,3.5-5.4c1.5-1.6,3.3-2.8,5.4-3.7c2.1-0.9,4.4-1.3,6.8-1.3c2.5,0,4.7,0.4,6.8,1.3
			c2.1,0.9,3.9,2.1,5.4,3.7c1.5,1.6,2.6,3.4,3.5,5.4c0.8,2,1.3,4.2,1.3,6.6v42.4c0,2.3-0.4,4.5-1.3,6.6c-0.8,2-2,3.8-3.5,5.4
			c-1.5,1.6-3.3,2.8-5.4,3.7c-2.1,0.9-4.4,1.3-6.8,1.3c-2.5,0-4.7-0.4-6.8-1.3c-2.1-0.9-3.9-2.1-5.4-3.7c-1.5-1.6-2.6-3.4-3.5-5.4
			c-0.8-2-1.3-4.2-1.3-6.6V25.9z"/>
		<path class="st0" d="M332.4,8.8h0.6v0.1h-2.3V8.8h0.6V2.7h-0.6V2.6h2.6c0.2,0,0.5,0,0.7,0.1c0.3,0.1,0.5,0.2,0.7,0.3
			c0.2,0.1,0.4,0.3,0.5,0.5c0.1,0.2,0.2,0.5,0.2,0.8c0,0.4-0.1,0.7-0.3,1c-0.2,0.3-0.5,0.5-0.9,0.6l1,3h0.6v0.1h-2.3V8.8h0.5l-1-2.9
			h-0.6V8.8L332.4,8.8z M332.4,5.8h0.4c0.2,0,0.4,0,0.6-0.1c0.2-0.1,0.3-0.2,0.5-0.3c0.1-0.1,0.2-0.3,0.3-0.5
			c0.1-0.2,0.1-0.4,0.1-0.6c0-0.2,0-0.4-0.1-0.6c-0.1-0.2-0.2-0.4-0.3-0.5c-0.1-0.1-0.3-0.2-0.5-0.3c-0.2-0.1-0.4-0.1-0.6-0.1h-0.3
			V5.8L332.4,5.8z M328.5,5.7c0,0.6,0.1,1.2,0.4,1.8c0.2,0.6,0.6,1.1,1,1.5c0.4,0.4,0.9,0.8,1.5,1c0.6,0.2,1.2,0.4,1.8,0.4
			s1.2-0.1,1.8-0.4c0.6-0.2,1.1-0.6,1.5-1c0.4-0.4,0.8-0.9,1-1.5c0.2-0.6,0.4-1.2,0.4-1.8c0-0.6-0.1-1.2-0.4-1.8
			c-0.2-0.6-0.6-1.1-1-1.5c-0.4-0.4-0.9-0.8-1.5-1c-0.6-0.2-1.2-0.4-1.8-0.4s-1.2,0.1-1.8,0.4c-0.6,0.2-1.1,0.6-1.5,1
			c-0.4,0.4-0.8,0.9-1,1.5C328.6,4.5,328.5,5.1,328.5,5.7L328.5,5.7z M327.9,5.7c0,0.7,0.1,1.4,0.4,2c0.3,0.6,0.7,1.2,1.1,1.7
			c0.5,0.5,1,0.9,1.7,1.1c0.6,0.3,1.3,0.4,2,0.4c0.7,0,1.4-0.1,2-0.4c0.6-0.3,1.2-0.7,1.7-1.1c0.5-0.5,0.9-1,1.1-1.7
			c0.3-0.6,0.4-1.3,0.4-2c0-0.7-0.1-1.4-0.4-2c-0.3-0.6-0.7-1.2-1.1-1.7c-0.5-0.5-1-0.9-1.7-1.1c-0.6-0.3-1.3-0.4-2-0.4
			c-0.7,0-1.4,0.1-2,0.4c-0.6,0.3-1.2,0.7-1.7,1.1c-0.5,0.5-0.9,1-1.1,1.7C328.1,4.3,327.9,5,327.9,5.7z"/>
		<path class="st1" d="M4.5,120c1.3,0,2.5-0.5,3.3-1.3L7,117.9c-0.7,0.7-1.5,1-2.4,1c-1.9,0-3.4-1.4-3.4-3.3c0-1.9,1.4-3.3,3.4-3.3
			c0.9,0,1.7,0.3,2.4,1l0.8-0.8c-0.8-0.9-1.9-1.3-3.3-1.3c-2.6,0-4.5,1.8-4.5,4.4C0,118.1,2,120,4.5,120L4.5,120z M9.6,119.9h1.2
			v-8.6H9.6V119.9L9.6,119.9z M20.4,119.9l-2-2.9c1.2-0.4,1.9-1.4,1.9-2.7c0-1.9-1.3-3-3.6-3h-3.3v8.6h1.2v-2.6h2.1
			c0.2,0,0.4,0,0.5,0l1.8,2.6H20.4L20.4,119.9z M16.7,116.2h-2.1v-3.9h2.1c1.6,0,2.4,0.7,2.4,1.9C19,115.5,18.2,116.2,16.7,116.2
			L16.7,116.2z M25.8,120c2.3,0,3.6-1.3,3.6-3.8v-4.9h-1.2v4.8c0,1.9-0.9,2.8-2.4,2.8c-1.5,0-2.4-0.9-2.4-2.8v-4.8h-1.2v4.9
			C22.2,118.7,23.5,120,25.8,120L25.8,120z M33,120c1.7,0,2.7-0.9,2.7-2.9v-5.8h-4.3v1.1h3.1v4.8c0,1.1-0.5,1.7-1.5,1.7
			c-0.7,0-1.3-0.4-1.8-1l-0.7,0.8C31.1,119.5,32,120,33,120L33,120z M44.4,119.9h1.3l-3.9-8.6h-1.2l-3.9,8.6H38l0.9-2.1h4.6
			L44.4,119.9L44.4,119.9z M39.3,116.8l1.8-4.2l1.8,4.2H39.3L39.3,116.8z M53.1,111.3v6.4l-5.1-6.4h-1v8.6h1.2v-6.4l5.1,6.4h1v-8.6
			H53.1L53.1,111.3z M60.8,120c2.6,0,4.5-1.9,4.5-4.4c0-2.5-1.9-4.4-4.5-4.4c-2.6,0-4.6,1.9-4.6,4.4C56.2,118.1,58.1,120,60.8,120
			L60.8,120z M60.8,118.9c-1.9,0-3.3-1.4-3.3-3.3c0-1.9,1.4-3.3,3.3-3.3c1.9,0,3.3,1.4,3.3,3.3C64.1,117.5,62.7,118.9,60.8,118.9
			L60.8,118.9z M73.8,111.3h-3.3v8.6h1.2v-2.6h2.1c2.2,0,3.6-1.1,3.6-3C77.4,112.4,76,111.3,73.8,111.3L73.8,111.3z M73.8,116.2
			h-2.1v-3.8h2.1c1.6,0,2.4,0.7,2.4,1.9C76.2,115.5,75.3,116.2,73.8,116.2L73.8,116.2z M79.2,119.9H85v-1.1h-4.6v-7.5h-1.2V119.9
			L79.2,119.9z M91.9,109h-1.5l-1.7,1.6h1.1L91.9,109L91.9,109z M92.9,119.9h1.3l-3.9-8.6h-1.2l-3.9,8.6h1.3l0.9-2.1h4.6L92.9,119.9
			L92.9,119.9z M87.8,116.8l1.8-4.2l1.8,4.2H87.8L87.8,116.8z M97.9,120c2.3,0,3.3-1.1,3.3-2.4c0-3.1-5.2-1.8-5.2-3.9
			c0-0.7,0.6-1.4,2.1-1.4c0.8,0,1.6,0.2,2.3,0.7l0.4-1c-0.7-0.5-1.7-0.8-2.8-0.8c-2.3,0-3.3,1.1-3.3,2.4c0,3.2,5.2,1.9,5.2,4
			c0,0.7-0.6,1.3-2.1,1.3c-1.1,0-2.2-0.4-2.8-1l-0.5,1C95.3,119.5,96.6,120,97.9,120L97.9,120z M104.6,119.9h1.2v-7.5h2.9v-1.1h-7.1
			v1.1h2.9V119.9L104.6,119.9z M110.1,119.9h1.2v-8.6h-1.2V119.9L110.1,119.9z M117.7,120c1.3,0,2.5-0.5,3.3-1.3l-0.8-0.8
			c-0.7,0.7-1.5,1-2.4,1c-1.9,0-3.4-1.4-3.4-3.3c0-1.9,1.4-3.3,3.4-3.3c0.9,0,1.7,0.3,2.4,1l0.8-0.8c-0.8-0.9-1.9-1.3-3.3-1.3
			c-2.6,0-4.5,1.8-4.5,4.4C113.2,118.1,115.1,120,117.7,120L117.7,120z M126.4,120c2.6,0,4.5-1.9,4.5-4.4c0-2.5-1.9-4.4-4.5-4.4
			c-2.6,0-4.6,1.9-4.6,4.4C121.8,118.1,123.8,120,126.4,120L126.4,120z M126.4,118.9c-1.9,0-3.3-1.4-3.3-3.3c0-1.9,1.4-3.3,3.3-3.3
			c1.9,0,3.3,1.4,3.3,3.3C129.7,117.5,128.3,118.9,126.4,118.9L126.4,118.9z M132.7,118.3c-0.5,0-0.8,0.3-0.8,0.8
			c0,0.4,0.2,0.6,0.5,0.8l-0.5,1.8h0.8l0.6-1.7c0.2-0.5,0.2-0.6,0.2-0.9C133.5,118.6,133.2,118.3,132.7,118.3L132.7,118.3z
			 M139.9,118.8v-2.8h4.3v-1h-4.3v-2.6h4.8v-1.1h-6v8.6h6.2v-1.1H139.9L139.9,118.8z M149.3,120c2.3,0,3.3-1.1,3.3-2.4
			c0-3.1-5.2-1.8-5.2-3.9c0-0.7,0.6-1.4,2.1-1.4c0.8,0,1.6,0.2,2.3,0.7l0.4-1c-0.7-0.5-1.7-0.8-2.8-0.8c-2.3,0-3.3,1.1-3.3,2.4
			c0,3.2,5.2,1.9,5.2,4c0,0.7-0.6,1.3-2.1,1.3c-1.1,0-2.2-0.4-2.8-1l-0.5,1C146.7,119.5,148,120,149.3,120L149.3,120z M156,119.9
			h1.2v-7.5h2.9v-1.1h-7.1v1.1h2.9V119.9L156,119.9z M166.8,109h-1.5l-1.7,1.6h1.1L166.8,109L166.8,109z M162.7,118.8v-2.8h4.3v-1
			h-4.3v-2.6h4.8v-1.1h-6v8.6h6.2v-1.1H162.7L162.7,118.8z M171.4,119.9h1.2v-7.5h2.9v-1.1h-7.1v1.1h2.9V119.9L171.4,119.9z
			 M176.9,119.9h1.2v-8.6h-1.2V119.9L176.9,119.9z M184.5,120c1.3,0,2.5-0.5,3.3-1.3l-0.8-0.8c-0.7,0.7-1.5,1-2.4,1
			c-1.9,0-3.4-1.4-3.4-3.3c0-1.9,1.4-3.3,3.4-3.3c0.9,0,1.7,0.3,2.4,1l0.8-0.8c-0.8-0.9-1.9-1.3-3.3-1.3c-2.6,0-4.5,1.8-4.5,4.4
			C180,118.1,181.9,120,184.5,120L184.5,120z M193.2,120c2.6,0,4.5-1.9,4.5-4.4c0-2.5-1.9-4.4-4.5-4.4c-2.6,0-4.6,1.9-4.6,4.4
			C188.6,118.1,190.6,120,193.2,120L193.2,120z M193.2,118.9c-1.9,0-3.3-1.4-3.3-3.3c0-1.9,1.4-3.3,3.3-3.3c1.9,0,3.3,1.4,3.3,3.3
			C196.5,117.5,195.1,118.9,193.2,118.9L193.2,118.9z M209.6,111.3h-1.2l-2.8,4.5l-2.7-4.5h-1.3l3.4,5.6v3h1.2v-3L209.6,111.3
			L209.6,111.3z M221.2,119.9l-2-2.9c1.2-0.4,1.9-1.4,1.9-2.7c0-1.9-1.3-3-3.6-3h-3.3v8.6h1.2v-2.6h2.1c0.2,0,0.4,0,0.5,0l1.8,2.6
			H221.2L221.2,119.9z M217.4,116.2h-2.1v-3.9h2.1c1.6,0,2.4,0.7,2.4,1.9C219.8,115.5,219,116.2,217.4,116.2L217.4,116.2z
			 M224.2,118.8v-2.8h4.3v-1h-4.3v-2.6h4.8v-1.1h-6v8.6h6.2v-1.1H224.2L224.2,118.8z M235,120c1.3,0,2.5-0.5,3.3-1.3l-0.8-0.8
			c-0.7,0.7-1.5,1-2.4,1c-1.9,0-3.4-1.4-3.4-3.3c0-1.9,1.4-3.3,3.4-3.3c0.9,0,1.7,0.3,2.4,1l0.8-0.8c-0.8-0.9-1.9-1.3-3.3-1.3
			c-2.6,0-4.5,1.8-4.5,4.4C230.5,118.1,232.4,120,235,120L235,120z M243.7,120c2.6,0,4.5-1.9,4.5-4.4c0-2.5-1.9-4.4-4.5-4.4
			c-2.6,0-4.6,1.9-4.6,4.4C239.1,118.1,241,120,243.7,120L243.7,120z M243.7,118.9c-1.9,0-3.3-1.4-3.3-3.3c0-1.9,1.4-3.3,3.3-3.3
			c1.9,0,3.3,1.4,3.3,3.3C247,117.5,245.6,118.9,243.7,118.9L243.7,118.9z M256.2,111.3v6.4l-5.1-6.4h-1v8.6h1.2v-6.4l5.1,6.4h1
			v-8.6H256.2L256.2,111.3z M262.5,120c2.3,0,3.3-1.1,3.3-2.4c0-3.1-5.2-1.8-5.2-3.9c0-0.7,0.6-1.4,2.1-1.4c0.8,0,1.6,0.2,2.3,0.7
			l0.4-1c-0.7-0.5-1.7-0.8-2.8-0.8c-2.3,0-3.3,1.1-3.3,2.4c0,3.2,5.2,1.9,5.2,4c0,0.7-0.6,1.3-2.1,1.3c-1.1,0-2.2-0.4-2.8-1l-0.5,1
			C259.9,119.5,261.2,120,262.5,120L262.5,120z M269.2,119.9h1.2v-7.5h2.9v-1.1h-7.1v1.1h2.9V119.9L269.2,119.9z M281.7,119.9
			l-2-2.9c1.2-0.4,1.9-1.4,1.9-2.7c0-1.9-1.3-3-3.6-3h-3.3v8.6h1.2v-2.6h2.1c0.2,0,0.4,0,0.5,0l1.8,2.6H281.7L281.7,119.9z
			 M278,116.2h-2.1v-3.9h2.1c1.6,0,2.4,0.7,2.4,1.9C280.4,115.5,279.5,116.2,278,116.2L278,116.2z M287.1,120c2.3,0,3.6-1.3,3.6-3.8
			v-4.9h-1.2v4.8c0,1.9-0.9,2.8-2.4,2.8c-1.5,0-2.4-0.9-2.4-2.8v-4.8h-1.2v4.9C283.5,118.7,284.9,120,287.1,120L287.1,120z
			 M297.1,120c1.3,0,2.5-0.5,3.3-1.3l-0.8-0.8c-0.7,0.7-1.5,1-2.4,1c-1.9,0-3.4-1.4-3.4-3.3c0-1.9,1.4-3.3,3.4-3.3
			c0.9,0,1.7,0.3,2.4,1l0.8-0.8c-0.8-0.9-1.9-1.3-3.3-1.3c-2.6,0-4.5,1.8-4.5,4.4C292.5,118.1,294.5,120,297.1,120L297.1,120z
			 M303.7,119.9h1.2v-7.5h2.9v-1.1h-7.1v1.1h2.9V119.9L303.7,119.9z M309.2,119.9h1.2v-8.6h-1.2V119.9L309.2,119.9z M319.1,111.3
			l-3.1,7l-3.1-7h-1.3l3.8,8.6h1.2l3.8-8.6H319.1L319.1,111.3z M325.2,120c2.6,0,4.5-1.9,4.5-4.4c0-2.5-1.9-4.4-4.5-4.4
			c-2.6,0-4.6,1.9-4.6,4.4C320.6,118.1,322.6,120,325.2,120L325.2,120z M325.2,118.9c-1.9,0-3.3-1.4-3.3-3.3c0-1.9,1.4-3.3,3.3-3.3
			c1.9,0,3.3,1.4,3.3,3.3C328.5,117.5,327.1,118.9,325.2,118.9z"/>
		<line class="st2" x1="0" y1="98.2" x2="329.7" y2="98.2"/>
	</g>
</g>
<g id="Layer_2">
	<g>
		<defs>
			<filter id="Adobe_OpacityMaskFilter" filterUnits="userSpaceOnUse" x="356.1" y="0" width="121.2" height="122.2">
				
					<feColorMatrix  type="matrix" values="-1 0 0 0 1  0 -1 0 0 1  0 0 -1 0 1  0 0 0 1 0" color-interpolation-filters="sRGB" result="source"/>
				<feFlood  style="flood-color:white;flood-opacity:1" result="back"/>
				<feBlend  in="source" in2="back" mode="normal"/>
			</filter>
		</defs>
		<mask maskUnits="userSpaceOnUse" x="356.1" y="0" width="121.2" height="122.2" id="SVGID_1_">
			<g class="st3">
				<linearGradient id="SVGID_2_" gradientUnits="userSpaceOnUse" x1="398.0045" y1="76.1463" x2="398.0045" y2="2.3108">
					<stop  offset="0.2929" style="stop-color:#000000"/>
					<stop  offset="0.4825" style="stop-color:#2C2C2C"/>
					<stop  offset="0.9096" style="stop-color:#9B9B9B"/>
					<stop  offset="1" style="stop-color:#B3B3B3"/>
				</linearGradient>
				<path class="st4" d="M373.5,19c15-16,38.2-22.1,51.7-13.6c13.5,8.5,12.3,28.4-2.8,44.4c-15,16-38.2,22.1-51.7,13.6
					C357.3,54.9,358.5,35,373.5,19z"/>
				<linearGradient id="SVGID_3_" gradientUnits="userSpaceOnUse" x1="427.7958" y1="120.7483" x2="427.7958" y2="-3.1129">
					<stop  offset="0" style="stop-color:#000000"/>
					<stop  offset="0.5" style="stop-color:#4C4C4C;stop-opacity:0.6"/>
					<stop  offset="1" style="stop-color:#000000"/>
				</linearGradient>
				<path class="st5" d="M439.6,4.5c13.6,11.2,22.2,28.2,22.2,47.3c0,33.7-27.1,61.1-60.6,61.1c-8.1,0-15.8-1.6-22.9-4.5
					c10.4,8.6,23.8,13.8,38.3,13.8c33.5,0,60.6-27.4,60.6-61.1C477.3,35.5,461.7,13.6,439.6,4.5z"/>
			</g>
		</mask>
		
			<radialGradient id="SVGID_4_" cx="540.2671" cy="-17.7284" r="100.1825" gradientTransform="matrix(0.7684 0 0 0.7747 24.5039 43.0472)" gradientUnits="userSpaceOnUse">
			<stop  offset="0" style="stop-color:#4CC6E5"/>
			<stop  offset="0.2743" style="stop-color:#2CB2CB"/>
			<stop  offset="0.5435" style="stop-color:#14A2B8"/>
			<stop  offset="0.7919" style="stop-color:#0599AD"/>
			<stop  offset="1" style="stop-color:#0096A9"/>
		</radialGradient>
		<ellipse class="st6" cx="416.7" cy="61.1" rx="60.6" ry="61.1"/>
		<path class="st7" d="M394,20.2c-10.9,0-19.9,9-19.9,20.1h29.8v70.2c3.7,0,7.3-1.1,10.3-2.9c-2.4-24.3,6.1-29.8,15-35.5
			c0.7-0.5,1.5-0.9,2.2-1.4c3.8-2,8.3-4.3,0.8-12.9c-7-9.6-9.5-16.9-12-24.5c-1.4-4.2-2.8-8.4-5-13.1H394L394,20.2z M416,106.3
			c-1.4-16.5,2.5-23.5,8-28.2c0,0.1-0.1,0.1-0.1,0.2v12.1C423.8,96.9,420.7,102.7,416,106.3L416,106.3z M438.9,67.1
			c0,0,0.1-0.1,0.1-0.1c0,0,0,0,0,0.1C439,67.1,438.9,67.1,438.9,67.1L438.9,67.1z M424.7,40.3c-1-2.6-1.8-5-2.7-7.6
			c-1.3-4-2.7-8-4.7-12.5h36.4c0,11-9,20.1-19.9,20.1H424.7z"/>
	</g>
</g>
</svg>
