<?xml version="1.0" encoding="utf-8"?>
<!-- Generator: Adobe Illustrator 22.0.1, SVG Export Plug-In . SVG Version: 6.00 Build 0)  -->
<svg version="1.1" id="Layer_1" xmlns="http://www.w3.org/2000/svg" xmlns:xlink="http://www.w3.org/1999/xlink" x="0px" y="0px"
	 viewBox="0 0 329.3 329.3" style="enable-background:new 0 0 329.3 329.3;" xml:space="preserve">
<style type="text/css">
	.st0{filter:url(#Adobe_OpacityMaskFilter);}
	.st1{fill-rule:evenodd;clip-rule:evenodd;fill:url(#SVGID_2_);}
	.st2{fill:url(#SVGID_3_);}
	.st3{mask:url(#SVGID_1_);fill-rule:evenodd;clip-rule:evenodd;fill:url(#SVGID_4_);}
	.st4{fill-rule:evenodd;clip-rule:evenodd;fill:#FFFFFF;}
</style>
<defs>
	<filter id="Adobe_OpacityMaskFilter" filterUnits="userSpaceOnUse" x="0" y="0" width="329.3" height="329.3">
		
			<feColorMatrix  type="matrix" values="-1 0 0 0 1  0 -1 0 0 1  0 0 -1 0 1  0 0 0 1 0" color-interpolation-filters="sRGB" result="source"/>
		<feFlood  style="flood-color:white;flood-opacity:1" result="back"/>
		<feBlend  in="source" in2="back" mode="normal"/>
	</filter>
</defs>
<mask maskUnits="userSpaceOnUse" x="0" y="0" width="329.3" height="329.3" id="SVGID_1_">
	<g class="st0">
		<linearGradient id="SVGID_2_" gradientUnits="userSpaceOnUse" x1="113.9122" y1="205.1871" x2="113.9122" y2="6.2269">
			<stop  offset="0.2929" style="stop-color:#000000"/>
			<stop  offset="0.4825" style="stop-color:#2C2C2C"/>
			<stop  offset="0.9096" style="stop-color:#9B9B9B"/>
			<stop  offset="1" style="stop-color:#B3B3B3"/>
		</linearGradient>
		<path class="st1" d="M47.4,51.1C88.3,7.9,151.2-8.5,187.9,14.4c36.7,22.9,33.4,76.4-7.5,119.6c-40.9,43.2-103.8,59.6-140.5,36.7
			C3.2,147.8,6.6,94.3,47.4,51.1z"/>
		<linearGradient id="SVGID_3_" gradientUnits="userSpaceOnUse" x1="194.8475" y1="325.3737" x2="194.8475" y2="-8.3882">
			<stop  offset="0" style="stop-color:#000000"/>
			<stop  offset="0.5" style="stop-color:#4C4C4C;stop-opacity:0.6"/>
			<stop  offset="1" style="stop-color:#000000"/>
		</linearGradient>
		<path class="st2" d="M226.8,12.2c36.9,30.2,60.4,76.1,60.4,127.5c0,90.9-73.7,164.6-164.6,164.6c-22,0-43-4.3-62.2-12.2
			c28.4,23.2,64.7,37.2,104.2,37.2c90.9,0,164.6-73.7,164.6-164.6C329.3,95.7,286.9,36.7,226.8,12.2z"/>
	</g>
</mask>
<radialGradient id="SVGID_4_" cx="227.052" cy="78.9875" r="209.1377" gradientUnits="userSpaceOnUse">
	<stop  offset="0" style="stop-color:#4CC6E5"/>
	<stop  offset="0.2743" style="stop-color:#2CB2CB"/>
	<stop  offset="0.5435" style="stop-color:#14A2B8"/>
	<stop  offset="0.7919" style="stop-color:#0599AD"/>
	<stop  offset="1" style="stop-color:#0096A9"/>
</radialGradient>
<circle class="st3" cx="164.6" cy="164.6" r="164.6"/>
<path class="st4" d="M102.9,54.6c-29.7,0-54,24.3-54,54h81.1v189.1c10.2,0,19.7-2.9,27.9-7.8c-6.6-65.6,16.4-80.2,40.7-95.7
	c2-1.3,4-2.5,6-3.8c10.2-5.5,22.4-11.6,2.2-34.6c-19.1-25.9-25.7-45.6-32.5-65.9c-3.8-11.2-7.6-22.6-13.7-35.3H102.9L102.9,54.6z
	 M162.7,286.6c-3.9-44.4,6.7-63.4,21.7-76.1c-0.1,0.2-0.3,0.4-0.4,0.6v32.6C184,261.1,175.6,276.7,162.7,286.6L162.7,286.6z
	 M225,180.9c0.1-0.1,0.2-0.2,0.3-0.3c0,0,0,0.1,0,0.1C225.2,180.8,225.1,180.8,225,180.9L225,180.9z M186.3,108.6
	c-2.7-6.9-5-13.6-7.2-20.4c-3.6-10.7-7.3-21.6-12.8-33.7H265c0,29.7-24.3,54-54,54H186.3z"/>
</svg>
