<?xml version="1.0" encoding="utf-8"?>
<!-- Generator: Adobe Illustrator 22.0.1, SVG Export Plug-In . SVG Version: 6.00 Build 0)  -->
<svg version="1.1" id="Layer_1" xmlns="http://www.w3.org/2000/svg" xmlns:xlink="http://www.w3.org/1999/xlink" x="0px" y="0px"
	 viewBox="0 0 861.1 861.1" style="enable-background:new 0 0 861.1 861.1;" xml:space="preserve">
<style type="text/css">
	.st0{fill:#0096A9;fill-opacity:0.4;}
	.st1{fill:#0096A9;}
	.st2{clip-path:url(#SVGID_2_);}
	.st3{clip-path:url(#SVGID_4_);fill:#FFFFFF;}
	.st4{fill:#FFFFFF;}
	.st5{clip-path:url(#SVGID_6_);}
	.st6{clip-path:url(#SVGID_8_);fill:#FFFFFF;}
	.st7{clip-path:url(#SVGID_10_);}
	.st8{clip-path:url(#SVGID_12_);fill:#FFFFFF;}
	.st9{clip-path:url(#SVGID_14_);}
	.st10{clip-path:url(#SVGID_16_);fill:#FFFFFF;}
	.st11{clip-path:url(#SVGID_18_);}
	.st12{clip-path:url(#SVGID_20_);fill:#FFFFFF;}
	.st13{clip-path:url(#SVGID_22_);}
	.st14{clip-path:url(#SVGID_24_);}
	.st15{filter:url(#Adobe_OpacityMaskFilter);}
	.st16{clip-path:url(#SVGID_26_);}
	.st17{enable-background:new    ;}
	.st18{clip-path:url(#SVGID_29_);}
	.st19{clip-path:url(#SVGID_31_);fill:url(#SVGID_32_);}
	.st20{filter:url(#Adobe_OpacityMaskFilter_1_);}
	.st21{clip-path:url(#SVGID_34_);fill:url(#SVGID_35_);}
	.st22{clip-path:url(#SVGID_34_);mask:url(#SVGID_27_);fill:url(#SVGID_36_);}
	.st23{clip-path:url(#SVGID_38_);}
	.st24{clip-path:url(#SVGID_40_);fill:url(#SVGID_41_);}
	.st25{clip-path:url(#SVGID_26_);fill-rule:evenodd;clip-rule:evenodd;fill:#FFFFFF;}
</style>
<g>
	<circle class="st0" cx="430.6" cy="430.6" r="430.6"/>
	<g id="cirugia_1_">
		<g>
			<circle class="st1" cx="430.6" cy="154" r="78.6"/>
			<g>
				<g>
					<defs>
						<rect id="SVGID_1_" x="374.8" y="98.4" width="111.5" height="111.2"/>
					</defs>
					<clipPath id="SVGID_2_">
						<use xlink:href="#SVGID_1_"  style="overflow:visible;"/>
					</clipPath>
					<g class="st2">
						<defs>
							<rect id="SVGID_3_" x="374.8" y="98.4" width="111.5" height="111.2"/>
						</defs>
						<clipPath id="SVGID_4_">
							<use xlink:href="#SVGID_3_"  style="overflow:visible;"/>
						</clipPath>
						<path class="st3" d="M438,153.9c3.4-3.5,6.8-7.1,10.2-10.6c3.7-3.8,7.4-7.7,11.1-11.5c1.3-1.4,1.5-3.2,0.5-4.6
							c-1.3-1.7-3-2.2-4.6-1.3c-0.3,0.1-0.5,0.3-0.7,0.6c-3.8,3.9-7.6,7.9-11.4,11.9c-0.1,0.1-0.1,0.2-0.2,0.4
							c-1.1,1.1-2.1,2.1-3.2,3.2c-5.8,6-11.6,12.1-17.4,18.2c-0.3,0.3-0.5,0.6-0.9,0.6c-0.5-1.2-1.6-1.9-2.4-2.8
							c-1.3-1.4-1.3-2.3,0-3.7c17.1-17.9,34.3-35.7,51.4-53.6c2.2-2.3,4.8-2.6,7.5-1.3c2.8,2.5,5.4,5.2,7.8,8.2
							c1.3,3.3,0.5,6-1.9,8.5c-16.9,17.5-33.7,35.1-50.6,52.7c-1.5,1.6-2.4,1.6-3.8,0c-0.9-0.9-1.9-1.7-2.5-2.9
							C430.6,161.8,434.3,157.9,438,153.9"/>
						<path class="st3" d="M408.5,196.7c-0.3,0.4-0.5,0.8-0.8,1.1c-2.2,2.8-4.7,5.3-7.7,7.2c-3.6,2.3-7.4,3.7-11.6,4.1
							c-2.7,0.3-5.3,0.3-8,0.1c-1.7-0.1-3.4-0.3-5-1.1c-0.7-0.4-0.8-0.9-0.2-1.5c0.9-1,2.1-1.8,2.9-3l0.2-0.2
							c0.9-0.8,1.8-1.8,2.6-2.7l0,0l0,0c1.1-1,2.2-2.2,3.2-3.4c0.1-0.1,0.1-0.1,0.2-0.2c1.7-1.8,3.6-3.4,5-5.4l0,0
							c1.4-1,2.4-2.3,3.6-3.5c2.6-2.7,5.2-5.3,7.8-8.1c1.1-1.2,2.3-2.2,3.2-3.5l0,0c0.3,0,0.4-0.2,0.5-0.4
							c4.3-4.4,8.6-8.8,12.8-13.3c0.2-0.1,0.4-0.2,0.4-0.5c0.1,0,0.2,0,0.3,0c0.4,0.6,0.9,1.1,1.4,1.5c0.1,0.1,0.3,0.3,0.4,0.4
							c0,0.1,0.1,0.1,0.1,0.2c1.4,1.4,2.7,2.9,4.1,4.3c0.4,0.4,0.6,0.7,0,1.2c-1.4,1.1-2.4,2.5-3.3,4c-1.8,2.9-3.5,5.9-5,9.1
							c-0.4,0.6-0.8,1.2-0.9,1.9c-0.1,0.7-1,1-0.6,1.8c-0.9,0.2-0.8,1.1-1.2,1.7c-0.3,0.1-0.2,0.4-0.2,0.6c-0.8,0.9-1.2,2.1-1.6,3.1
							c-0.7,1.3-1.5,2.5-2.2,3.8C408.7,196.3,408.6,196.5,408.5,196.7"/>
						<path class="st3" d="M425.3,204h2c0.6,0,1.2,0,1.8,0c0.2,0,0.4,0,0.7,0c0.2,0,0.3,0,0.5,0c1.1,0.2,2.3-0.1,3.4,0.2
							c0.4,0.4,0.5,0.9,0.5,1.4c0,0.7,0,1.3,0,2c0,1.4-0.1,1.6-1.5,1.9c-0.2,0-0.4,0-0.6,0c-4.3,0-8.6-0.1-12.9,0
							c-1,0-1.4-0.2-1.5-1.3c-0.1-1,0-1.9,0-2.9c0-0.8,0.4-1.2,1.3-1.2c1.6,0,3.1,0,4.7,0c0.4,0,0.8,0,1.2,0L425.3,204z"/>
						<path class="st3" d="M440.2,209.4c-0.6-0.1-0.6-0.6-0.6-1c0-1,0-2.1,0-3.1c0-0.8,0.4-1.1,1.2-1.1c4.6,0,9.2,0,13.8,0
							c0.9,0,1.4,0.5,1.4,1.5c0,0.7,0,1.3,0,2c0,1.5-0.3,1.9-1.8,1.9c-4.1,0-8.2,0-12.3,0c-0.4,0-0.7,0-1.1,0.1
							C440.6,209.4,440.4,209.4,440.2,209.4"/>
						<path class="st3" d="M475.3,209.5c-3.8,0-7.5-0.1-11.3-0.1c-2.7,0-2.7,0-2.7-2.8c0-0.3,0-0.7,0-1c0-1.1,0.4-1.5,1.4-1.5
							c4.6,0,9.2,0,13.7,0c0.9,0,1.3,0.5,1.3,1.4c0,0.8,0,1.6,0,2.4c0,0.6-0.2,1.1-0.6,1.4c-0.1,0-0.3,0.1-0.4,0.1
							c-0.3-0.1-0.5-0.1-0.8,0C475.7,209.4,475.5,209.4,475.3,209.5"/>
						<path class="st3" d="M411.5,204.1c0.2,0,0.4,0.1,0.6,0.1c0.6,0.6,0.4,1.4,0.4,2.1c0.1,3.1,0.1,3.2-3,3.1c-2.8,0-5.5,0-8.5,0
							c1.2-0.9,2.2-1.6,3.2-2.3c0.5-0.4,1-0.7,1.4-1.2c1.3-1.7,3-2.1,5-1.8C410.9,204.1,411.2,204.1,411.5,204.1"/>
					</g>
				</g>
			</g>
		</g>
		<g>
			<path class="st4" d="M364.4,274.1c-1.9-1-3.4-2.5-4.4-4.3c-1.1-1.8-1.6-3.9-1.6-6.3c0-2.3,0.5-4.4,1.6-6.3
				c1.1-1.8,2.6-3.3,4.4-4.3s4-1.6,6.4-1.6c2,0,3.8,0.4,5.4,1.1c1.6,0.7,2.9,1.7,4,3.1l-3.4,3.2c-1.5-1.8-3.5-2.8-5.7-2.8
				c-1.4,0-2.7,0.3-3.8,1s-2,1.5-2.6,2.7c-0.6,1.1-0.9,2.4-0.9,3.9c0,1.5,0.3,2.8,0.9,3.9c0.6,1.1,1.5,2,2.6,2.7s2.4,1,3.8,1
				c2.3,0,4.2-0.9,5.7-2.8l3.4,3.2c-1.1,1.4-2.4,2.4-4.1,3.1s-3.4,1.1-5.4,1.1C368.4,275.7,366.3,275.2,364.4,274.1z"/>
			<path class="st4" d="M383.8,251.8h5.3v23.5h-5.3V251.8z"/>
			<path class="st4" d="M409,275.3l-4.4-6.5h-0.3h-4.6v6.5h-5.3v-23.5h9.9c2,0,3.8,0.3,5.3,1c1.5,0.7,2.6,1.7,3.4,3
				c0.8,1.3,1.2,2.8,1.2,4.5c0,1.7-0.4,3.3-1.2,4.5c-0.8,1.3-2,2.2-3.5,2.9l5.1,7.6H409z M407.7,257.3c-0.8-0.7-2-1.1-3.6-1.1h-4.3
				v8.2h4.3c1.6,0,2.8-0.4,3.6-1.1c0.8-0.7,1.2-1.7,1.2-3C408.9,259,408.5,258,407.7,257.3z"/>
			<path class="st4" d="M421,272.9c-1.8-1.9-2.7-4.5-2.7-8v-13.2h5.3v13c0,4.2,1.7,6.3,5.1,6.3c1.7,0,2.9-0.5,3.8-1.5
				s1.3-2.6,1.3-4.8v-13h5.2v13.2c0,3.4-0.9,6.1-2.7,8c-1.8,1.9-4.4,2.8-7.6,2.8C425.4,275.7,422.8,274.8,421,272.9z"/>
			<path class="st4" d="M459.7,263.2h4.8v9.5c-1.2,1-2.7,1.7-4.3,2.2s-3.3,0.8-4.9,0.8c-2.4,0-4.5-0.5-6.4-1.6
				c-1.9-1-3.4-2.5-4.5-4.3c-1.1-1.8-1.6-3.9-1.6-6.3c0-2.3,0.5-4.4,1.6-6.3c1.1-1.8,2.6-3.3,4.5-4.3c1.9-1,4.1-1.6,6.5-1.6
				c2,0,3.8,0.3,5.5,1c1.6,0.7,3,1.7,4.1,3l-3.4,3.2c-1.6-1.8-3.6-2.7-5.9-2.7c-1.5,0-2.8,0.3-3.9,0.9c-1.1,0.6-2,1.5-2.6,2.7
				s-0.9,2.5-0.9,3.9c0,1.5,0.3,2.8,0.9,3.9s1.5,2,2.6,2.7c1.1,0.6,2.4,1,3.8,1c1.5,0,2.9-0.3,4.1-1V263.2z"/>
			<path class="st4" d="M473.5,245h5.5l-5.9,4.8h-4L473.5,245z M469.4,251.8h5.3v23.5h-5.3V251.8z"/>
			<path class="st4" d="M495.2,270.2h-10.6l-2,5h-5.4l10.2-23.5h5.2l10.2,23.5h-5.6L495.2,270.2z M493.5,266.1l-3.6-9l-3.6,9H493.5z
				"/>
		</g>
	</g>
	<g id="formacion_1_">
		<g>
			<circle class="st1" cx="178.8" cy="340.9" r="78.6"/>
			<g>
				<g>
					<defs>
						<rect id="SVGID_5_" x="125.2" y="289.3" width="107.2" height="103.1"/>
					</defs>
					<clipPath id="SVGID_6_">
						<use xlink:href="#SVGID_5_"  style="overflow:visible;"/>
					</clipPath>
					<g class="st5">
						<defs>
							<rect id="SVGID_7_" x="125.2" y="289.3" width="107.2" height="103.1"/>
						</defs>
						<clipPath id="SVGID_8_">
							<use xlink:href="#SVGID_7_"  style="overflow:visible;"/>
						</clipPath>
						<path class="st6" d="M231.2,387.9H126.4c-0.6,0-1.2-0.5-1.2-1.2v-1.1c0-0.6,0.5-1.2,1.2-1.2h104.8c0.6,0,1.2,0.5,1.2,1.2v1.1
							C232.3,387.4,231.8,387.9,231.2,387.9"/>
						<path class="st6" d="M142.7,289.3H131c-3.2,0-5.8,2.6-5.8,5.8v78.4c0,3.2,2.6,5.8,5.8,5.8h11.7c3.2,0,5.8-2.6,5.8-5.8v-78.4
							C148.6,291.9,146,289.3,142.7,289.3 M145.2,361.3c0,1.5-1.2,2.7-2.7,2.7h-3.1c-1.5,0-2.7-1.2-2.7-2.7v-64.7
							c0-1.5,1.2-2.7,2.7-2.7h3.1c1.5,0,2.7,1.2,2.7,2.7V361.3z"/>
						<path class="st6" d="M175.5,289.3h-11.1c-3.4,0-6.1,2.7-6.1,6.1v77.8c0,3.4,2.7,6.1,6.1,6.1h11.1c3.4,0,6.1-2.7,6.1-6.1v-77.8
							C181.6,292.1,178.9,289.3,175.5,289.3 M179.3,362.3c0,1.9-1.5,3.4-3.4,3.4h-6.8c-1.9,0-3.4-1.5-3.4-3.4V299
							c0-1.9,1.5-3.4,3.4-3.4h6.8c1.9,0,3.4,1.5,3.4,3.4V362.3z"/>
						<path class="st6" d="M232.1,367.7l-24.7-73.7c-1.1-3.2-4.6-5-7.8-3.9l-10.4,3.5c-3.2,1.1-5,4.6-3.9,7.8l24.7,73.7
							c1.1,3.2,4.6,5,7.8,3.9l10.4-3.5C231.5,374.5,233.2,371,232.1,367.7 M216.9,368.2l-1.5,0.5c-1.3,0.4-2.7-0.3-3.2-1.6
							l-20.7-61.7c-0.4-1.3,0.3-2.7,1.6-3.2l1.5-0.5c1.3-0.4,2.7,0.3,3.2,1.6l20.7,61.7C218.9,366.3,218.2,367.7,216.9,368.2"/>
					</g>
				</g>
			</g>
		</g>
		<g>
			<path class="st4" d="M85.7,455.1c-1.6-1-2.9-2.4-3.8-4.2c-0.9-1.8-1.4-3.8-1.4-6.1c0-2.3,0.5-4.3,1.4-6.1
				c0.9-1.8,2.2-3.2,3.8-4.2c1.6-1,3.4-1.5,5.5-1.5c1.7,0,3.2,0.3,4.6,1c1.4,0.7,2.5,1.7,3.5,3l-2.9,3.1c-1.3-1.8-3-2.7-4.9-2.7
				c-1.2,0-2.3,0.3-3.3,0.9c-1,0.6-1.7,1.5-2.2,2.6c-0.5,1.1-0.8,2.4-0.8,3.8c0,1.4,0.3,2.7,0.8,3.8c0.5,1.1,1.3,2,2.2,2.6
				c1,0.6,2,0.9,3.3,0.9c2,0,3.6-0.9,4.9-2.7l2.9,3.1c-0.9,1.3-2.1,2.3-3.5,3c-1.4,0.7-2.9,1-4.6,1
				C89.1,456.6,87.3,456.1,85.7,455.1z"/>
			<path class="st4" d="M104.3,453.9c-1.6-1.8-2.3-4.4-2.3-7.8v-12.8h4.5v12.6c0,4.1,1.5,6.1,4.4,6.1c1.4,0,2.5-0.5,3.3-1.5
				c0.7-1,1.1-2.5,1.1-4.7v-12.6h4.5v12.8c0,3.4-0.8,5.9-2.3,7.8c-1.6,1.8-3.7,2.7-6.5,2.7C108,456.6,105.9,455.7,104.3,453.9z"/>
			<path class="st4" d="M136.7,456.2l-3.8-6.4h-0.2h-4v6.4h-4.5v-22.9h8.5c1.7,0,3.2,0.3,4.5,1c1.3,0.7,2.3,1.6,3,2.9
				c0.7,1.2,1,2.7,1,4.4c0,1.7-0.4,3.2-1.1,4.4c-0.7,1.2-1.7,2.2-3,2.8l4.4,7.4H136.7z M135.6,438.7c-0.7-0.7-1.7-1-3.1-1h-3.7v8
				h3.7c1.4,0,2.4-0.3,3.1-1c0.7-0.7,1.1-1.7,1.1-2.9C136.6,440.3,136.3,439.3,135.6,438.7z"/>
			<path class="st4" d="M157.3,456.2l-3.8-6.4h-0.2h-4v6.4h-4.5v-22.9h8.5c1.7,0,3.2,0.3,4.5,1c1.3,0.7,2.3,1.6,3,2.9
				c0.7,1.2,1,2.7,1,4.4c0,1.7-0.4,3.2-1.1,4.4c-0.7,1.2-1.7,2.2-3,2.8l4.4,7.4H157.3z M156.2,438.7c-0.7-0.7-1.7-1-3.1-1h-3.7v8
				h3.7c1.4,0,2.4-0.3,3.1-1c0.7-0.7,1.1-1.7,1.1-2.9C157.3,440.3,156.9,439.3,156.2,438.7z"/>
			<path class="st4" d="M165.5,433.3h4.5v22.9h-4.5V433.3z"/>
			<path class="st4" d="M178.6,455.1c-1.6-1-2.9-2.4-3.8-4.2c-0.9-1.8-1.4-3.8-1.4-6.1c0-2.3,0.5-4.3,1.4-6.1
				c0.9-1.8,2.2-3.2,3.8-4.2c1.6-1,3.4-1.5,5.5-1.5c1.7,0,3.2,0.3,4.6,1c1.4,0.7,2.5,1.7,3.5,3l-2.9,3.1c-1.3-1.8-3-2.7-4.9-2.7
				c-1.2,0-2.3,0.3-3.3,0.9c-1,0.6-1.7,1.5-2.2,2.6c-0.5,1.1-0.8,2.4-0.8,3.8c0,1.4,0.3,2.7,0.8,3.8c0.5,1.1,1.3,2,2.2,2.6
				c1,0.6,2,0.9,3.3,0.9c2,0,3.6-0.9,4.9-2.7l2.9,3.1c-0.9,1.3-2.1,2.3-3.5,3c-1.4,0.7-2.9,1-4.6,1
				C182.1,456.6,180.2,456.1,178.6,455.1z"/>
			<path class="st4" d="M197.2,453.9c-1.6-1.8-2.3-4.4-2.3-7.8v-12.8h4.5v12.6c0,4.1,1.5,6.1,4.4,6.1c1.4,0,2.5-0.5,3.3-1.5
				c0.7-1,1.1-2.5,1.1-4.7v-12.6h4.5v12.8c0,3.4-0.8,5.9-2.3,7.8c-1.6,1.8-3.7,2.7-6.5,2.7C201,456.6,198.8,455.7,197.2,453.9z"/>
			<path class="st4" d="M217.1,433.3h4.5v18.6h9.8v4.3h-14.4V433.3z"/>
			<path class="st4" d="M236,453.9c-1.6-1.8-2.3-4.4-2.3-7.8v-12.8h4.5v12.6c0,4.1,1.5,6.1,4.4,6.1c1.4,0,2.5-0.5,3.3-1.5
				c0.7-1,1.1-2.5,1.1-4.7v-12.6h4.5v12.8c0,3.4-0.8,5.9-2.3,7.8c-1.6,1.8-3.7,2.7-6.5,2.7C239.8,456.6,237.6,455.7,236,453.9z"/>
			<path class="st4" d="M273.8,456.2l0-13.7l-5.8,11.3h-2l-5.8-11v13.4h-4.3v-22.9h3.8l7.3,14.2l7.2-14.2h3.7l0.1,22.9H273.8z"/>
		</g>
	</g>
	<g id="estetica_1_">
		<g>
			<circle class="st1" cx="686.4" cy="340.8" r="78.6"/>
			<g>
				<g>
					<defs>
						<rect id="SVGID_9_" x="643.3" y="275.3" width="82.8" height="131"/>
					</defs>
					<clipPath id="SVGID_10_">
						<use xlink:href="#SVGID_9_"  style="overflow:visible;"/>
					</clipPath>
					<g class="st7">
						<defs>
							<rect id="SVGID_11_" x="643.3" y="275.3" width="82.8" height="131"/>
						</defs>
						<clipPath id="SVGID_12_">
							<use xlink:href="#SVGID_11_"  style="overflow:visible;"/>
						</clipPath>
						<path class="st8" d="M723.7,378.8c-0.6-1.8-1.2-3.6-1.8-5.4c0,0,0,0.1,0,0.1c-4-7.9-9.3-14.7-15.4-21
							c-2.6-2.7-5.1-5.6-7.6-8.4c-5.1-5.9-8.6-12.4-7.9-20.7c0-0.2,0.1-0.4,0.1-0.6c0.5-2.6,1.3-6.8,1.6-7.9c2.1-7.4,6-14.1,9.2-21
							c2.8-6,5.1-12.1,7-18.2c-1.1-0.1-2.2-0.1-3.4-0.2c-3.2,10.6-7.9,20.6-12.8,30.5c-2,4.1-3.8,8.4-4.7,13
							c0.1,0.3-0.3,2.6-0.4,4.4c-0.2,0.3-0.3,0.6-0.3,0.9c-0.4,6.8,1.7,12.8,5.5,18.3c3.6,5.2,8,9.7,12.3,14.3
							c5.9,6.2,11.2,12.8,14.2,21.1c2.7,7.3,3.2,18.8,2.9,28.5c1.2,0,2.5-0.1,3.7-0.1C726.3,396.8,726,385.7,723.7,378.8"/>
						<path class="st8" d="M691.1,378.7c-0.5-0.5-1-1.6-1.7-0.5c-0.5,0.8,0.1,1.3,0.5,1.6c5,5.4,9.3,16.3,12.5,26.5
							c0.7,0,1.3,0,2-0.1c-0.8-3.4-1.6-6.5-2.2-8C699.5,390.7,695.9,384.1,691.1,378.7"/>
						<path class="st8" d="M670.4,406.3c-2.5-4.4-4.8-8.6-6.2-11.4c-4.3-9.1-6.9-18.6-5.6-28.8c0.8-6.1,2.7-11.8,4.6-17.6
							c2-6.1,2.6-12.3,1.1-18.6c0.1,0,0.1,0,0.2-0.1c-0.1-0.2-0.2-0.5-0.3-0.8c0-0.3-0.1-0.6-0.3-0.8c-1.3-3.4-3.6-9.4-4.7-11.5
							c-3.6-7-6.9-14.1-8.4-22c-1.2-6.4-2.4-12.9-3.1-19.4c-0.9,0-1.8,0-2.7,0c0,0,0,0,0,0c-0.6,0-1.2,0-1.8,0
							c0.1,1.2,0.3,2.3,0.5,3.5c1.8,10.6,3.2,21.3,7.5,31.3c2.1,5,6.6,14.4,8.6,19.9c0,0.1,0,0.2,0.1,0.4c1.3,4.8,1.2,9.7-0.1,14.5
							c-0.7,2.5-1.4,5.1-2.3,7.5c-5.9,15-4.4,29.5,2.4,43.7c1.2,2.5,3.3,6.3,5.6,10.3c0.6,0,1.2,0,1.7,0c0,0,0,0,0,0
							C668.3,406.3,669.4,406.3,670.4,406.3"/>
					</g>
				</g>
			</g>
		</g>
		<g>
			<path class="st4" d="M636.4,452.9v4.3h-15.2v-22.9h14.8v4.3h-10.3v5h9.1v4.1h-9.1v5.3H636.4z"/>
			<path class="st4" d="M642,456.8c-1.4-0.5-2.6-1.1-3.5-1.9l1.5-4c0.8,0.7,1.8,1.3,3,1.7c1.2,0.4,2.3,0.7,3.5,0.7
				c1.3,0,2.2-0.2,2.9-0.7c0.6-0.4,0.9-1,0.9-1.8c0-0.5-0.2-1-0.5-1.4s-0.8-0.6-1.4-0.9c-0.6-0.2-1.3-0.5-2.3-0.7
				c-1.5-0.4-2.7-0.8-3.7-1.2c-1-0.4-1.8-1.1-2.5-2c-0.7-0.9-1-2.1-1-3.7c0-1.3,0.3-2.5,0.9-3.6c0.6-1.1,1.5-1.9,2.8-2.6
				c1.2-0.6,2.8-0.9,4.6-0.9c1.3,0,2.5,0.2,3.7,0.5c1.2,0.3,2.2,0.9,3.1,1.5l-1.4,4c-1.8-1.2-3.6-1.8-5.4-1.8
				c-1.3,0-2.2,0.2-2.8,0.7c-0.6,0.5-0.9,1.1-0.9,1.9s0.4,1.4,1.1,1.8c0.7,0.4,1.8,0.8,3.2,1.1c1.5,0.4,2.7,0.8,3.7,1.2
				c1,0.4,1.8,1.1,2.5,2c0.7,0.9,1,2.1,1,3.6c0,1.3-0.3,2.5-0.9,3.6c-0.6,1.1-1.6,1.9-2.8,2.6c-1.3,0.6-2.8,0.9-4.6,0.9
				C645,457.5,643.5,457.3,642,456.8z"/>
			<path class="st4" d="M661.8,438.5h-6.3v-4.3h17.1v4.3h-6.3v18.6h-4.5V438.5z"/>
			<path class="st4" d="M690.2,452.9v4.3H675v-22.9h14.8v4.3h-10.3v5h9.1v4.1h-9.1v5.3H690.2z M683.7,427.6h4.7l-5.1,4.7h-3.4
				L683.7,427.6z"/>
			<path class="st4" d="M697.9,438.5h-6.3v-4.3h17.1v4.3h-6.3v18.6h-4.5V438.5z"/>
			<path class="st4" d="M711.2,434.2h4.5v22.9h-4.5V434.2z"/>
			<path class="st4" d="M724.3,456c-1.6-1-2.9-2.4-3.8-4.2c-0.9-1.8-1.4-3.8-1.4-6.1c0-2.3,0.5-4.3,1.4-6.1c0.9-1.8,2.2-3.2,3.8-4.2
				c1.6-1,3.4-1.5,5.5-1.5c1.7,0,3.2,0.3,4.6,1c1.4,0.7,2.5,1.7,3.5,3L735,441c-1.3-1.8-3-2.7-4.9-2.7c-1.2,0-2.3,0.3-3.3,0.9
				c-1,0.6-1.7,1.5-2.2,2.6c-0.5,1.1-0.8,2.4-0.8,3.8c0,1.4,0.3,2.7,0.8,3.8c0.5,1.1,1.3,2,2.2,2.6c1,0.6,2,0.9,3.3,0.9
				c2,0,3.6-0.9,4.9-2.7l2.9,3.1c-0.9,1.3-2.1,2.3-3.5,3s-2.9,1-4.6,1C727.8,457.5,726,457,724.3,456z"/>
			<path class="st4" d="M753.5,452.2h-9.1l-1.7,4.9H738l8.8-22.9h4.5l8.8,22.9h-4.8L753.5,452.2z M752,448.2l-3.1-8.8l-3.1,8.8H752z
				"/>
		</g>
	</g>
	<g id="contacto_1_">
		<g>
			<circle class="st1" cx="271.4" cy="640.7" r="78.6"/>
			<g>
				<g>
					<defs>
						<rect id="SVGID_13_" x="201.8" y="569.9" width="139.3" height="141.6"/>
					</defs>
					<clipPath id="SVGID_14_">
						<use xlink:href="#SVGID_13_"  style="overflow:visible;"/>
					</clipPath>
					<g class="st9">
						<defs>
							<rect id="SVGID_15_" x="201.8" y="569.9" width="139.3" height="141.6"/>
						</defs>
						<clipPath id="SVGID_16_">
							<use xlink:href="#SVGID_15_"  style="overflow:visible;"/>
						</clipPath>
						<path class="st10" d="M271.5,569.9c38.5,0,69.7,31.8,69.6,70.9c-0.1,39.1-31.4,70.8-69.8,70.7c-38.4-0.1-69.5-31.8-69.5-70.8
							C201.8,601.6,233,569.9,271.5,569.9 M222.6,682.3c26.1,32,74.1,30,97.5-0.1c-0.6-0.2-1.1-0.5-1.7-0.7
							c-9.3-3.6-18.7-6.9-28.2-9.8c-1.4-0.4-1.8-1.1-1.9-2.5c-0.2-3.2,0.6-6.1,1.9-8.9c1.6-3.3,2.6-6.8,3.2-10.5
							c0.1-0.4,0.1-0.9,0.4-1.3c2-2.6,3.1-5.6,3.8-8.8c0.8-3.6,1.8-7.2,0.5-10.9c-0.3-0.9-0.4-1.9-0.4-2.8c0-3.4,0.3-6.8,0.9-10.2
							c1.8-11-3.9-21.8-14.1-26c-8.4-3.4-17.1-3.5-25.6-0.2c-10,3.9-16.4,15-14.9,25.2c0.8,5.3,1.3,10.5,0.4,16
							c-1,5.9,0.9,11.5,3.9,16.7c0.6,1.1,1.1,2.2,1.3,3.4c0.5,2.7,1.2,5.3,2.3,7.8c1.6,3.5,1.8,7.2,1.7,11c0,1.1-0.5,1.6-1.6,2
							c-3.8,1.2-7.6,2.4-11.4,3.7C234.5,677.6,228.5,679.7,222.6,682.3"/>
					</g>
				</g>
			</g>
		</g>
		<g>
			<path class="st4" d="M197.6,763c-1.6-1-2.9-2.4-3.8-4.2c-0.9-1.8-1.4-3.8-1.4-6.1c0-2.3,0.5-4.3,1.4-6.1c0.9-1.8,2.2-3.2,3.8-4.2
				c1.6-1,3.4-1.5,5.5-1.5c1.7,0,3.2,0.3,4.6,1c1.4,0.7,2.5,1.7,3.5,3l-2.9,3.1c-1.3-1.8-3-2.7-4.9-2.7c-1.2,0-2.3,0.3-3.3,0.9
				c-1,0.6-1.7,1.5-2.2,2.6s-0.8,2.4-0.8,3.8c0,1.4,0.3,2.7,0.8,3.8s1.3,2,2.2,2.6c1,0.6,2,0.9,3.3,0.9c2,0,3.6-0.9,4.9-2.7l2.9,3.1
				c-0.9,1.3-2.1,2.3-3.5,3c-1.4,0.7-2.9,1-4.6,1C201,764.5,199.2,764,197.6,763z"/>
			<path class="st4" d="M217.7,763c-1.6-1-2.9-2.4-3.8-4.2c-0.9-1.8-1.4-3.8-1.4-6.1c0-2.2,0.5-4.3,1.4-6.1c0.9-1.8,2.2-3.2,3.8-4.2
				s3.5-1.5,5.5-1.5c2,0,3.9,0.5,5.5,1.5s2.9,2.4,3.8,4.2s1.4,3.8,1.4,6.1c0,2.2-0.5,4.3-1.4,6.1s-2.2,3.2-3.8,4.2s-3.5,1.5-5.5,1.5
				C221.2,764.5,219.4,764,217.7,763z M226.4,759.1c0.9-0.6,1.7-1.5,2.2-2.6s0.8-2.4,0.8-3.8c0-1.4-0.3-2.7-0.8-3.8s-1.3-2-2.2-2.6
				c-0.9-0.6-2-0.9-3.1-0.9c-1.2,0-2.2,0.3-3.1,0.9s-1.7,1.5-2.2,2.6s-0.8,2.4-0.8,3.8c0,1.4,0.3,2.7,0.8,3.8s1.3,2,2.2,2.6
				c0.9,0.6,2,0.9,3.1,0.9C224.4,760,225.5,759.7,226.4,759.1z"/>
			<path class="st4" d="M255.4,741.3v22.9h-3.7l-9.8-13.9v13.9h-4.5v-22.9h3.8l9.8,13.9v-13.9H255.4z"/>
			<path class="st4" d="M264.2,745.6h-6.3v-4.3H275v4.3h-6.3v18.6h-4.5V745.6z"/>
			<path class="st4" d="M289.4,759.2h-9.1l-1.7,4.9h-4.7l8.8-22.9h4.5l8.8,22.9h-4.8L289.4,759.2z M287.9,755.2l-3.1-8.8l-3.1,8.8
				H287.9z"/>
			<path class="st4" d="M301.6,763c-1.6-1-2.9-2.4-3.8-4.2c-0.9-1.8-1.4-3.8-1.4-6.1c0-2.3,0.5-4.3,1.4-6.1c0.9-1.8,2.2-3.2,3.8-4.2
				c1.6-1,3.4-1.5,5.5-1.5c1.7,0,3.2,0.3,4.6,1c1.4,0.7,2.5,1.7,3.5,3l-2.9,3.1c-1.3-1.8-3-2.7-4.9-2.7c-1.2,0-2.3,0.3-3.3,0.9
				c-1,0.6-1.7,1.5-2.2,2.6s-0.8,2.4-0.8,3.8c0,1.4,0.3,2.7,0.8,3.8s1.3,2,2.2,2.6c1,0.6,2,0.9,3.3,0.9c2,0,3.6-0.9,4.9-2.7l2.9,3.1
				c-0.9,1.3-2.1,2.3-3.5,3c-1.4,0.7-2.9,1-4.6,1C305,764.5,303.2,764,301.6,763z"/>
			<path class="st4" d="M322.1,745.6h-6.3v-4.3h17.1v4.3h-6.3v18.6h-4.5V745.6z"/>
			<path class="st4" d="M339.1,763c-1.6-1-2.9-2.4-3.8-4.2c-0.9-1.8-1.4-3.8-1.4-6.1c0-2.2,0.5-4.3,1.4-6.1c0.9-1.8,2.2-3.2,3.8-4.2
				s3.5-1.5,5.5-1.5c2,0,3.9,0.5,5.5,1.5s2.9,2.4,3.8,4.2s1.4,3.8,1.4,6.1c0,2.2-0.5,4.3-1.4,6.1s-2.2,3.2-3.8,4.2s-3.5,1.5-5.5,1.5
				C342.5,764.5,340.7,764,339.1,763z M347.7,759.1c0.9-0.6,1.7-1.5,2.2-2.6s0.8-2.4,0.8-3.8c0-1.4-0.3-2.7-0.8-3.8s-1.3-2-2.2-2.6
				c-0.9-0.6-2-0.9-3.1-0.9c-1.2,0-2.2,0.3-3.1,0.9s-1.7,1.5-2.2,2.6s-0.8,2.4-0.8,3.8c0,1.4,0.3,2.7,0.8,3.8s1.3,2,2.2,2.6
				c0.9,0.6,2,0.9,3.1,0.9C345.7,760,346.8,759.7,347.7,759.1z"/>
		</g>
	</g>
	<g id="logo_1_">
		<g>
			<circle class="st1" cx="586.8" cy="640.7" r="78.6"/>
			<g>
				<g>
					<defs>
						<rect id="SVGID_17_" x="544.1" y="577.8" width="88.9" height="122.3"/>
					</defs>
					<clipPath id="SVGID_18_">
						<use xlink:href="#SVGID_17_"  style="overflow:visible;"/>
					</clipPath>
					<g class="st11">
						<defs>
							<rect id="SVGID_19_" x="544.1" y="577.8" width="88.9" height="122.3"/>
						</defs>
						<clipPath id="SVGID_20_">
							<use xlink:href="#SVGID_19_"  style="overflow:visible;"/>
						</clipPath>
						<path class="st12" d="M572.8,629.2c-0.8-0.6-1.6-1.2-2.3-1.9c-1.7-1.5-1.5-3.4,0.3-4.9c1.3-1,1.7-2.5,2.4-3.8
							c1-2,1.9-3.9,2.9-5.9c0.8-1.6,1.7-3.1,2.1-4.8c0.1-0.3,0.4-0.5,0.5-0.8c1.4,1.1,3,1.9,4.5,2.8c-0.2,1.2-1,2-1.5,3.1
							c-0.6,1-1.3,2-1.6,3.2c-0.9,1.9-1.9,3.8-2.9,5.7c-0.5,0.9-0.9,1.9-1.3,3c-0.1,0.4,0.1,0.6,0.3,0.8c2,1.6,4.2,2.8,6.3,4.2
							c0.4,0.3,0.7,0,0.9-0.3c0.9-1.5,1.8-3.1,2.7-4.6c0.8-1.4,1.7-2.8,2.5-4.2c0.8-1.4,1.6-2.9,2.4-4.4c0.2-0.4,0.5-0.7,0.8-1
							c0.5-0.1,0.8,0.2,1.1,0.4c1.7,1.1,3.4,2.2,5.2,3.2c1.8,1,3.5,2.2,5.3,3.1c2.8,1.5,5.5,3.3,8.2,4.9c-0.6,1-1.4,1.9-2.2,2.9
							c-0.6,0.7-1,1.5-1.5,2.2c-0.7,1.1-1.7,2.1-2.3,3.3c-0.9,1.6-2.3,2.9-3.1,4.6c-0.2,0.4-0.2,0.9-0.1,1.3c0.2,1-0.4,2-1,2.3
							c-0.9,0.5-2.2,1.1-3.4,0.4c-0.6-0.3-1.3-0.3-1.9-0.6c-0.4-0.2-1-0.2-1.3,0.4c-0.9,1.4-1.9,2.9-2.5,4.5
							c-0.1,0.3-0.3,0.5-0.4,0.7c-1,1.5-1.6,3-2.4,4.6c-0.8,1.6-1.6,3.2-2.3,4.8c-1,2.3-2,4.5-3.1,6.8c-0.8,1.7-1.3,3.5-2.4,5.1
							c-0.7,1-1.1,2.2-1.6,3.4c-0.3,0.7-0.8,1.3-1.4,1.6c-1.6,0.9-2.8,2.3-4.3,3.3c-1.4,0.8-2.8,1.6-4.2,2.5
							c-0.7,0.4-1.5,0.9-2.1,1.4c-1,0.8-2.3,1.2-3.2,2.1c-0.4,0.4-1.2,0.2-1.5,0.9c-0.3,0.2-0.6,0.2-0.8,0.4
							c-1.7,1.2-3.5,2.2-5.2,3.4c-2,1.4-3.9,2.8-5.8,4.3c-1.2,1-2.4,2-3.5,3.1c-0.8,0.8-1.9,1.3-2.3,2.5c-0.5-0.1-0.5-0.5-0.4-0.8
							c0.5-0.8,0.7-1.8,1.1-2.6c1.2-2.2,2.1-4.5,3.2-6.8c0.7-1.6,1.6-3,2.2-4.7c0.6-1.5,1.5-2.9,2.3-4.4c0.8-1.5,1.5-3,2.3-4.5
							c1.4-2.7,3.1-5.3,4.4-8.1c0.2-0.4,0.5-0.6,0.9-0.7c2.2-0.2,3.2-2.5,2.7-4.2c-0.3-1-1.3-1.6-2.2-1.2c-1.3,0.5-2.3,1.9-2.2,3.3
							c0.1,1,0.3,1.8-0.4,2.7c-0.5,0.6-0.9,1.4-1.3,2.2c-0.7,1.5-1.5,3-2.3,4.4c-0.5,0.9-1,1.8-1.5,2.7c-0.7,1.3-1.4,2.5-1.9,3.9
							c-0.4,1.1-1,2.2-1.5,3.3c-1.5,2.9-2.7,5.9-4.2,8.9c-0.8,1.6-1.6,3.3-2.2,5.1c-0.1,0.3-0.2,0.8-0.7,0.8
							c0.1-1.3,0.3-2.6,0.7-3.8c0.2-0.7,0.2-1.6,0.3-2.4c0.1-2.1,0.9-4,1-6.1c0.1-1.5,0.6-3.1,0.9-4.6c0.2-1.2,0.4-2.4,1-3.5
							c0.8-1.6,1.6-3.1,2.5-4.7c1.3-2.4,2.5-4.7,3.8-7c1-1.8,1.9-3.6,3-5.3c1.3-2,2.3-4.1,3.6-6.1c1.1-1.7,2.1-3.4,3.2-5.1
							c1.4-2.2,2.7-4.4,4.1-6.6c1.4-2.1,2.6-4.2,4.2-6.2c1.2-1.6,2.2-3.3,3.5-4.9c0.2-0.3,0.3-0.8-0.1-0.9
							C574.6,630.6,573.8,629.7,572.8,629.2"/>
						<path class="st12" d="M611.8,626.9c-2.7-1.6-5.4-3.4-8.2-4.9c-1.8-1-3.5-2.1-5.3-3.1c-1.8-1-3.5-2.2-5.2-3.2
							c-0.3-0.2-0.7-0.5-1.1-0.4c-0.1-0.2-0.3-0.5-0.4-0.6c-1.1-0.2-0.8-0.8-0.4-1.5c1-1.7,2.1-3.5,3.1-5.2c0.7-1.1,1.3-2.3,2-3.4
							c1.2-2,2.3-4,3.5-5.9c0.6-1,1.2-2.1,1.8-3.1c0.9-1.6,1.8-3.1,2.7-4.6c0.8-1.4,1.6-2.8,2.4-4.2c1-1.8,2.1-3.5,3.2-5.2
							c0.1-0.1,0.1-0.3,0.2-0.4c0.3-0.6,0.5-1,1.5-0.7c1.6,0.4,3.2,1,4.8,1.6c1.6,0.6,3.1,1.5,4.7,2.2c1.4,0.6,2.7,1.5,4,2.2
							c2.1,1.2,4.1,2.6,6,4.2c0.4,0.4,0.9,0.7,1.4,1.1c0.4,0.3,0.6,0.6,0.7,1c-1.1,1.7-2.1,3.5-3.1,5.2c-1.3,2.2-2.7,4.3-4,6.5
							c-0.8,1.3-1.5,2.7-2.3,4c-1.4,2.1-2.4,4.4-3.9,6.4c-0.5,0.6-0.8,1.3-1.2,2c-1.3,2.5-2.9,4.8-4.3,7.3
							C613.6,625,613.1,626.3,611.8,626.9"/>
						<path class="st12" d="M631.3,630c-0.4-2.1-0.9-4.2-1.6-6.2c-0.9-2.4-1.8-4.8-3.1-7.1c-0.9-1.6-1.8-3.2-2.9-4.7
							c-0.9,1.4-1.6,2.7-2.5,4c-0.5,0.7-0.4,1.3-0.1,2c0.2,0.4,0.5,0.8,0.7,1.2c0.7,2.1,1.6,4.2,2.2,6.4c0.6,2.3,1.1,4.6,1.3,6.9
							c0.4,4.1,0.6,8.3-0.3,12.4c-0.4,1.7-0.5,3.4-0.9,5.1c-0.8,3.3-2,6.3-3.3,9.4c-0.3,0.7-0.6,1.3-0.9,2c-0.9,1.6-1.7,3.2-2.7,4.7
							c-0.6,1-1.3,2-2,3c-1,1.5-2.3,2.8-3.4,4.2c-0.9,1.2-2,2.2-3,3.3c-1,1.1-2.2,2-3.2,3c-1.3,1.3-2.7,2.3-4.1,3.4
							c-1.5,1.2-3.1,2.2-4.6,3.2c-2.1,1.4-4.3,2.6-6.6,3.8c-1.2,0.6-2.4,1.3-3.7,1.8c-1.2,0.4-2.3,1.2-3.6,1.4
							c-0.1,0.1-0.1,0.4-0.4,0.4c-1.7,0.3-3.2,1-4.8,1.5c-2.5,0.8-5,1.4-7.5,2.1c-1.4,0.4-2.8,0.4-4.2,0.7c-3,0.7-6.1,0.6-9.1,1.1
							c-2.8,0.4-5.6,0.3-8.3,0.3c-0.3,0.3-0.6,0.6-0.9,0.9c3.7,0,7.4,0,11-0.6c2-0.3,4.1-0.3,6.1-0.8c2.1-0.4,4.2-0.6,6.3-1
							c2.3-0.4,4.6-1,6.8-1.5c1.2-0.3,2.3-0.7,3.5-1c1.9-0.5,3.7-1.4,5.7-1.7c0.5-0.9,1.6-0.8,2.4-1.2c2.3-1,4.6-1.9,6.9-3.1
							c1.8-1,3.7-1.9,5.4-3c2-1.3,4.1-2.7,6-4.1c2.4-1.7,4.6-3.6,6.8-5.6c1.9-1.7,3.5-3.6,5.2-5.6c2.2-2.6,4.1-5.4,5.9-8.4
							c1.4-2.4,2.6-5.1,3.6-7.7c0.7-1.7,1.3-3.5,1.7-5.3c0.5-2.6,1.2-5.1,1.2-7.8C632,637.9,632,633.9,631.3,630"/>
						<path class="st12" d="M583.2,609.9c-1.5-1-3.1-1.7-4.5-2.8c-0.1-1.3,0.9-2.3,1.5-3.3c0.4-0.7,0.8-1.5,1.3-2.2
							c0.9-1.2,1.5-2.6,2.3-3.9c1-1.7,2.2-3.4,3.1-5.2c0.6-1.2,1.4-2.3,2-3.5c1.1-1.9,2.3-3.8,3.3-5.6c1-1.8,2.2-3.4,3-5.3
							c0.2-0.3,0.6-0.3,0.9-0.3c2.1,0.1,4.1,0.3,6.2,0.4c0.8,0.1,0.9,0.3,0.6,0.9c-1.1,2.3-2.5,4.4-3.7,6.6c-1.3,2.5-2.9,5-4.3,7.5
							c-1.1,2-2.3,4-3.5,6c-1.5,2.6-3,5.3-4.5,7.9c-0.6,1-1.2,2.1-1.8,3.1c-0.3,0.5-0.5,0.6-0.9,0.2
							C584,610.1,583.5,610.1,583.2,609.9"/>
						<path class="st12" d="M572.8,582.6c1.4,0.7,2.9,0.6,4.3,1c2.2,0.6,4.5,1.1,6.6,1.9c0.9,0.3,1.9,0.6,2.8,0.9
							c0.4,0.1,0.9,0.2,0.7,0.9c-0.2,0.6-0.4,0.9-1.1,0.6c-2.5-1.1-5.1-2-7.7-2.8c-2.3-0.7-4.6-1.6-7-1.9
							C571.7,582.2,572.3,582.6,572.8,582.6"/>
					</g>
				</g>
			</g>
		</g>
		<g>
			<path class="st4" d="M489.9,740.8h5.4V764h-5.4V740.8z"/>
			<path class="st4" d="M500.7,740.8h10.5c2.5,0,4.7,0.5,6.7,1.4c1.9,1,3.4,2.3,4.5,4.1c1.1,1.7,1.6,3.8,1.6,6.1
				c0,2.3-0.5,4.3-1.6,6.1c-1.1,1.7-2.6,3.1-4.5,4.1c-1.9,1-4.2,1.4-6.7,1.4h-10.5V740.8z M511,759.6c2.3,0,4.2-0.6,5.5-1.9
				s2.1-3,2.1-5.2c0-2.2-0.7-4-2.1-5.2c-1.4-1.3-3.2-1.9-5.5-1.9h-4.9v14.4H511z"/>
			<path class="st4" d="M545.9,759.7v4.3H528v-23.1h17.5v4.3h-12.2v5h10.7v4.2h-10.7v5.4H545.9z"/>
			<path class="st4" d="M571.4,740.8V764H567l-11.5-14.1V764h-5.3v-23.1h4.4l11.5,14.1v-14.1H571.4z"/>
			<path class="st4" d="M581.7,745.2h-7.4v-4.4h20.2v4.4h-7.4V764h-5.4V745.2z"/>
			<path class="st4" d="M597.4,740.8h5.4V764h-5.4V740.8z"/>
			<path class="st4" d="M608.2,740.8h10.5c2.5,0,4.7,0.5,6.7,1.4c1.9,1,3.4,2.3,4.5,4.1c1.1,1.7,1.6,3.8,1.6,6.1
				c0,2.3-0.5,4.3-1.6,6.1c-1.1,1.7-2.6,3.1-4.5,4.1c-1.9,1-4.2,1.4-6.7,1.4h-10.5V740.8z M618.5,759.6c2.3,0,4.2-0.6,5.5-1.9
				s2.1-3,2.1-5.2c0-2.2-0.7-4-2.1-5.2c-1.4-1.3-3.2-1.9-5.5-1.9h-4.9v14.4H618.5z"/>
			<path class="st4" d="M650.4,759h-10.7l-2,5h-5.5l10.3-23.1h5.3l10.4,23.1h-5.6L650.4,759z M648.8,755l-3.7-8.9l-3.7,8.9H648.8z"
				/>
			<path class="st4" d="M660.5,740.8H671c2.5,0,4.7,0.5,6.7,1.4c1.9,1,3.4,2.3,4.5,4.1c1.1,1.7,1.6,3.8,1.6,6.1
				c0,2.3-0.5,4.3-1.6,6.1c-1.1,1.7-2.6,3.1-4.5,4.1c-1.9,1-4.2,1.4-6.7,1.4h-10.5V740.8z M670.8,759.6c2.3,0,4.2-0.6,5.5-1.9
				s2.1-3,2.1-5.2c0-2.2-0.7-4-2.1-5.2c-1.4-1.3-3.2-1.9-5.5-1.9h-4.9v14.4H670.8z"/>
		</g>
	</g>
</g>
<g id="menulogo">
	<g>
		<defs>
			<rect id="SVGID_21_" x="310.6" y="310.6" width="240" height="240"/>
		</defs>
		<clipPath id="SVGID_22_">
			<use xlink:href="#SVGID_21_"  style="overflow:visible;"/>
		</clipPath>
		<g class="st13">
			<defs>
				<rect id="SVGID_23_" x="310.6" y="310.6" width="240" height="240"/>
			</defs>
			<clipPath id="SVGID_24_">
				<use xlink:href="#SVGID_23_"  style="overflow:visible;"/>
			</clipPath>
			<g class="st14">
				<defs>
					<rect id="SVGID_25_" x="310.6" y="310.6" width="240" height="240"/>
				</defs>
				<clipPath id="SVGID_26_">
					<use xlink:href="#SVGID_25_"  style="overflow:visible;"/>
				</clipPath>
				<defs>
					<filter id="Adobe_OpacityMaskFilter" filterUnits="userSpaceOnUse" x="279.6" y="279.6" width="301.9" height="301.9">
						
							<feColorMatrix  type="matrix" values="-1 0 0 0 1  0 -1 0 0 1  0 0 -1 0 1  0 0 0 1 0" color-interpolation-filters="sRGB" result="source"/>
						<feFlood  style="flood-color:white;flood-opacity:1" result="back"/>
						<feBlend  in="source" in2="back" mode="normal"/>
					</filter>
				</defs>
				<mask maskUnits="userSpaceOnUse" x="279.6" y="279.6" width="301.9" height="301.9" id="SVGID_27_">
					<g class="st15">
						<rect x="310.6" y="310.6" class="st16" width="240" height="240"/>
						<g class="st17">
							<g>
								<defs>
									<rect id="SVGID_28_" x="310.6" y="310.6" width="240" height="240"/>
								</defs>
								<clipPath id="SVGID_29_" class="st16">
									<use xlink:href="#SVGID_28_"  style="overflow:visible;"/>
								</clipPath>
								<g>
									<defs>
										<path id="SVGID_30_" d="M345.1,347.8c29.8-31.5,75.6-43.5,102.4-26.8c26.8,16.7,24.3,55.7-5.5,87.2
											c-29.8,31.5-75.6,43.5-102.4,26.8C312.9,418.3,315.3,379.3,345.1,347.8"/>
									</defs>
									<clipPath id="SVGID_31_" class="st18">
										<use xlink:href="#SVGID_30_"  style="overflow:visible;"/>
									</clipPath>
									
										<linearGradient id="SVGID_32_" gradientUnits="userSpaceOnUse" x1="35.7871" y1="825.3369" x2="36.516" y2="825.3369" gradientTransform="matrix(0 -198.9602 -198.9602 0 164602.8281 7580.3452)">
										<stop  offset="0" style="stop-color:#000000"/>
										<stop  offset="0.2929" style="stop-color:#000000"/>
										<stop  offset="0.4825" style="stop-color:#2C2C2C"/>
										<stop  offset="0.9096" style="stop-color:#9B9B9B"/>
										<stop  offset="1" style="stop-color:#B3B3B3"/>
									</linearGradient>
									<rect x="312.9" y="304.4" class="st19" width="161.4" height="147.3"/>
								</g>
								<g>
									<defs>
										<path id="SVGID_33_" d="M475.9,319.4c26.9,22,44.1,55.5,44.1,92.9c0,66.3-53.7,120-120,120c-16,0-31.3-3.2-45.3-8.9
											c20.7,16.9,47.1,27.1,75.9,27.1c66.3,0,120-53.7,120-120C550.6,380.3,519.7,337.3,475.9,319.4"/>
									</defs>
									<clipPath id="SVGID_34_" class="st18">
										<use xlink:href="#SVGID_33_"  style="overflow:visible;"/>
									</clipPath>
									<defs>
										<filter id="Adobe_OpacityMaskFilter_1_" filterUnits="userSpaceOnUse" x="354.6" y="319.4" width="195.9" height="231.1">
											<feColorMatrix  type="matrix" values="1 0 0 0 0  0 1 0 0 0  0 0 1 0 0  0 0 0 1 0"/>
										</filter>
									</defs>
									<mask maskUnits="userSpaceOnUse" x="354.6" y="319.4" width="195.9" height="231.1" id="SVGID_27_">
										<g class="st20">
											
												<linearGradient id="SVGID_35_" gradientUnits="userSpaceOnUse" x1="35.3927" y1="825.9002" x2="36.1216" y2="825.9002" gradientTransform="matrix(0 -333.7618 -333.7618 0 276106.5313 12360.4756)">
												<stop  offset="0" style="stop-color:#FFFFFF"/>
												<stop  offset="0.5" style="stop-color:#999999"/>
												<stop  offset="1" style="stop-color:#FFFFFF"/>
											</linearGradient>
											<rect x="354.6" y="319.4" class="st21" width="195.9" height="231.1"/>
										</g>
									</mask>
									
										<linearGradient id="SVGID_36_" gradientUnits="userSpaceOnUse" x1="35.3927" y1="825.9002" x2="36.1216" y2="825.9002" gradientTransform="matrix(0 -333.7618 -333.7618 0 276106.5625 12360.4766)">
										<stop  offset="0" style="stop-color:#000000"/>
										<stop  offset="0.5" style="stop-color:#4C4C4C"/>
										<stop  offset="1" style="stop-color:#000000"/>
									</linearGradient>
									<rect x="354.6" y="319.4" class="st22" width="195.9" height="231.1"/>
								</g>
							</g>
						</g>
					</g>
				</mask>
				<g class="st16">
					<g>
						<defs>
							<rect id="SVGID_37_" x="310.6" y="310.6" width="240" height="240"/>
						</defs>
						<clipPath id="SVGID_38_">
							<use xlink:href="#SVGID_37_"  style="overflow:visible;"/>
						</clipPath>
						<g class="st23">
							<defs>
								<path id="SVGID_39_" d="M430.6,310.6c66.3,0,120,53.7,120,120s-53.7,120-120,120s-120-53.7-120-120S364.3,310.6,430.6,310.6
									"/>
							</defs>
							<clipPath id="SVGID_40_">
								<use xlink:href="#SVGID_39_"  style="overflow:visible;"/>
							</clipPath>
							
								<radialGradient id="SVGID_41_" cx="35.7152" cy="827.4223" r="0.7289" gradientTransform="matrix(207.3587 -27.2209 -27.2209 -207.3587 15593.377 172913.5156)" gradientUnits="userSpaceOnUse">
								<stop  offset="0" style="stop-color:#4CC6E5"/>
								<stop  offset="0.2734" style="stop-color:#2CB2CC"/>
								<stop  offset="0.5433" style="stop-color:#14A2B8"/>
								<stop  offset="0.7922" style="stop-color:#0599AD"/>
								<stop  offset="1" style="stop-color:#0096A9"/>
							</radialGradient>
							<polygon class="st24" points="279.6,314.6 546.5,279.6 581.5,546.5 314.6,581.5 							"/>
						</g>
					</g>
				</g>
				<path class="st25" d="M385.6,350.3c-21.7,0-39.4,17.7-39.4,39.4h59.1v137.8c7.4,0,14.4-2.1,20.3-5.7
					c-4.8-47.8,12-58.5,29.7-69.7c1.4-0.9,2.9-1.8,4.3-2.8c7.4-4,16.3-8.5,1.6-25.2c-13.9-18.9-18.7-33.2-23.7-48
					c-2.7-8.2-5.5-16.5-10-25.7H385.6z M429.2,519.4c-2.9-32.3,4.9-46.2,15.8-55.4c-0.1,0.1-0.2,0.3-0.3,0.4v23.8
					C444.7,500.9,438.6,512.2,429.2,519.4 M474.6,442.4c0.1-0.1,0.1-0.1,0.2-0.2c0,0,0,0.1,0,0.1
					C474.7,442.4,474.6,442.4,474.6,442.4 M446.4,389.7c-2-5-3.6-9.9-5.3-14.8c-2.6-7.8-5.3-15.7-9.4-24.5h72
					c0,21.7-17.7,39.4-39.4,39.4H446.4z"/>
			</g>
		</g>
	</g>
</g>
</svg>
