<svg version="1.1" id="menulogo" class="menulogo menu-circular-svg borde-animado" xmlns="http://www.w3.org/2000/svg" xmlns:xlink="http://www.w3.org/1999/xlink" x="0px" y="0px"
	 viewBox="0 0 240 240" style="enable-background:new 0 0 240 240;" xml:space="preserve">
<g>
	
	<g>
		<defs>
			<rect id="SVGID_21_" y="0" width="240" height="240"/>
		</defs>
		<clipPath id="SVGID_22_">
			<use xlink:href="#SVGID_21_"  style="overflow:visible;"/>
		</clipPath>	
		<g class="st13">
			<defs>
				<rect id="SVGID_23_" y="0" width="240" height="240"/>
			</defs>
			<clipPath id="SVGID_24_">
				<use xlink:href="#SVGID_23_"  style="overflow:visible;"/>
			</clipPath>
			<g class="st14">
				<defs>
					<rect id="SVGID_25_" y="0" width="240" height="240"/>
				</defs>
				<clipPath id="SVGID_26_">
					<use xlink:href="#SVGID_25_"  style="overflow:visible;"/>
				</clipPath>
				<defs>
					<filter id="Adobe_OpacityMaskFilter" filterUnits="userSpaceOnUse" x="-31" y="-31" width="301.9" height="301.9">
							<feColorMatrix  type="matrix" values="-1 0 0 0 1  0 -1 0 0 1  0 0 -1 0 1  0 0 0 1 0" color-interpolation-filters="sRGB" result="source"/>
						<feFlood  style="flood-color:white;flood-opacity:1" result="back"/>
						<feBlend  in="source" in2="back" mode="normal"/>
					</filter>
				</defs>
				<mask maskUnits="userSpaceOnUse" x="-31" y="-31" width="301.9" height="301.9" id="SVGID_27_">
					<g class="st15">
						<rect y="0" class="st16" width="240" height="240"/>
						<g class="st17">
							<g>
								<defs>
									<rect id="SVGID_28_" y="0" width="240" height="240"/>
								</defs>
								<clipPath id="SVGID_29_" class="st16">
									<use xlink:href="#SVGID_28_"  style="overflow:visible;"/>
								</clipPath>
								<g>
									<defs>
										<path id="SVGID_30_" d="M34.6,37.2C64.4,5.8,110.2-6.2,137,10.5c26.8,16.7,24.3,55.7-5.5,87.2
											c-29.8,31.5-75.6,43.5-102.4,26.8S4.8,68.7,34.6,37.2"/>
									</defs>
									<clipPath id="SVGID_31_" class="st18">
										<use xlink:href="#SVGID_30_"  style="overflow:visible;"/>
									</clipPath>
									
										<linearGradient id="SVGID_32_" gradientUnits="userSpaceOnUse" x1="-274.7818" y1="514.768" x2="-274.0529" y2="514.768" gradientTransform="matrix(0 -198.9602 -198.9602 0 102501.3906 -54521.0898)">
										<stop  offset="0" style="stop-color:#000000"/>
										<stop  offset="0.2929" style="stop-color:#000000"/>
										<stop  offset="0.4825" style="stop-color:#2C2C2C"/>
										<stop  offset="0.9096" style="stop-color:#9B9B9B"/>
										<stop  offset="1" style="stop-color:#B3B3B3"/>
									</linearGradient>
									<rect x="2.3" y="-6.2" class="st19" width="161.4" height="147.3"/>
								</g>
								<g>
									<defs>
										<path id="SVGID_33_" d="M165.3,8.9c26.9,22,44.1,55.5,44.1,92.9c0,66.3-53.7,120-120,120c-16,0-31.3-3.2-45.3-8.9
											C64.7,229.8,91.2,240,120,240c66.3,0,120-53.7,120-120C240,69.8,209.1,26.7,165.3,8.9"/>
									</defs>
									<clipPath id="SVGID_34_" class="st18">
										<use xlink:href="#SVGID_33_"  style="overflow:visible;"/>
									</clipPath>
									<defs>
										<filter id="Adobe_OpacityMaskFilter_1_" filterUnits="userSpaceOnUse" x="44.1" y="8.9" width="195.9" height="231.1">
											<feColorMatrix  type="matrix" values="1 0 0 0 0  0 1 0 0 0  0 0 1 0 0  0 0 0 1 0"/>
										</filter>
									</defs>
									<mask maskUnits="userSpaceOnUse" x="44.1" y="8.9" width="195.9" height="231.1" id="SVGID_27_">
										<g class="st20">
											
												<linearGradient id="SVGID_35_" gradientUnits="userSpaceOnUse" x1="-275.1762" y1="515.3313" x2="-274.4473" y2="515.3313" gradientTransform="matrix(0 -333.7618 -333.7618 0 172139.9219 -91606.1328)">
												<stop  offset="0" style="stop-color:#FFFFFF"/>
												<stop  offset="0.5" style="stop-color:#999999"/>
												<stop  offset="1" style="stop-color:#FFFFFF"/>
											</linearGradient>
											<rect x="44.1" y="8.9" class="st21" width="195.9" height="231.1"/>
										</g>
									</mask>
									<linearGradient id="SVGID_36_" gradientUnits="userSpaceOnUse" x1="-275.1762" y1="515.3313" x2="-274.4473" y2="515.3313" gradientTransform="matrix(0 -333.7618 -333.7618 0 172139.9375 -91606.1406)">
										<stop  offset="0" style="stop-color:#000000"/>
										<stop  offset="0.5" style="stop-color:#4C4C4C"/>
										<stop  offset="1" style="stop-color:#000000"/>
									</linearGradient>
									<rect x="44.1" y="8.9" class="st22" width="195.9" height="231.1"/>
								</g>
							</g>
						</g>
					</g>
				</mask>
				<g class="st16">
					<g>
						<defs>
							<rect id="SVGID_37_" y="0" width="240" height="240"/>
						</defs>
						<clipPath id="SVGID_38_">
							<use xlink:href="#SVGID_37_"  style="overflow:visible;"/>
						</clipPath>
						<g class="st23">
							<defs>
								<path id="SVGID_39_" d="M120,0c66.3,0,120,53.7,120,120s-53.7,120-120,120S0,186.3,0,120S53.7,0,120,0"/>
							</defs>
							<clipPath id="SVGID_40_">
								<use xlink:href="#SVGID_39_"  style="overflow:visible;"/>
							</clipPath>
							
								<radialGradient id="SVGID_41_" cx="-274.8538" cy="516.8534" r="0.7289" gradientTransform="matrix(207.3587 -27.2209 -27.2209 -207.3587 71228.0078 99749.8438)" gradientUnits="userSpaceOnUse">
								<stop  offset="0" style="stop-color:#4CC6E5"/>
								<stop  offset="0.2734" style="stop-color:#2CB2CC"/>
								<stop  offset="0.5433" style="stop-color:#14A2B8"/>
								<stop  offset="0.7922" style="stop-color:#0599AD"/>
								<stop  offset="1" style="stop-color:#0096A9"/>
							</radialGradient>
							<polygon class="st24" points="-31,4.1 235.9,-31 271,235.9 4.1,271"/>
						</g>
					</g>
				</g>
				<path class="st25" d="M75,39.8c-21.7,0-39.4,17.7-39.4,39.4h59.1V217c7.4,0,14.4-2.1,20.3-5.7c-4.8-47.8,12-58.5,29.7-69.7
					c1.4-0.9,2.9-1.8,4.3-2.8c7.4-4,16.3-8.5,1.6-25.2c-13.9-18.9-18.7-33.2-23.7-48c-2.7-8.2-5.5-16.5-10-25.7H75z M118.6,208.9
					c-2.9-32.3,4.9-46.2,15.8-55.4c-0.1,0.1-0.2,0.3-0.3,0.4v23.8C134.1,190.3,128,201.7,118.6,208.9 M164,131.8
					c0.1-0.1,0.1-0.1,0.2-0.2c0,0,0,0.1,0,0.1C164.1,131.8,164.1,131.8,164,131.8 M135.8,79.2c-2-5-3.6-9.9-5.3-14.8
					c-2.6-7.8-5.3-15.7-9.4-24.5h72c0,21.7-17.7,39.4-39.4,39.4H135.8z"/>
			</g>
		</g>
	</g>
</g>
</svg>	
