<?xml version="1.0" encoding="utf-8"?>
<!-- Generator: Adobe Illustrator 22.0.1, SVG Export Plug-In . SVG Version: 6.00 Build 0)  -->
<svg version="1.1" id="Layer_1" xmlns="http://www.w3.org/2000/svg" xmlns:xlink="http://www.w3.org/1999/xlink" x="0px" y="0px"
	 viewBox="0 0 338.4 121.2" style="enable-background:new 0 0 338.4 121.2;" xml:space="preserve">
<style type="text/css">
	.st0{fill-rule:evenodd;clip-rule:evenodd;fill:#0092A7;}
	.st1{fill-rule:evenodd;clip-rule:evenodd;fill:#061636;}
	.st2{fill-rule:evenodd;clip-rule:evenodd;fill:none;stroke:#0092A7;stroke-width:4.252;stroke-miterlimit:22.9256;}
</style>
<g>
	<path class="st0" d="M4.4,82.6v-72H0.1V9.5h17c2.8,0,5.4,0.4,7.8,1.3c2.4,0.9,4.4,2.1,6,3.7c1.7,1.6,2.9,3.4,3.9,5.4
		c0.9,2,1.4,4.2,1.4,6.6v40.3c0,2.3-0.5,4.5-1.4,6.6c-0.9,2-2.2,3.8-3.9,5.4c-1.7,1.6-3.7,2.8-6,3.7c-2.4,0.9-5,1.3-7.8,1.3h-17
		v-1.1H4.4L4.4,82.6z M27.7,26.5c0-2.2-0.3-4.3-0.8-6.2c-0.6-1.9-1.3-3.6-2.3-5c-1-1.4-2.1-2.5-3.3-3.4c-1.3-0.8-2.6-1.3-4.1-1.3
		h-4.2v72h4.2c1.5,0,2.9-0.4,4.1-1.3c1.3-0.8,2.4-2,3.3-3.4c1-1.4,1.7-3.1,2.3-5c0.6-1.9,0.8-4,0.8-6.2V26.5L27.7,26.5z M57.1,47.7
		v35h4.2v1.1h-17v-1.1h4.2v-72h-4.2V9.5h17c2.8,0,5.4,0.4,7.8,1.3c2.4,0.9,4.4,2.1,6,3.7c1.7,1.6,2.9,3.4,3.9,5.4
		c0.9,2,1.4,4.2,1.4,6.6v4.2c0,4-1.3,7.4-3.8,10.4c-2.5,3-5.9,5-10.2,6c4.2,1,7.6,3,10.2,6c2.5,3,3.8,6.5,3.8,10.5V78
		c0,1,0.2,1.9,0.6,2.6c0.4,0.7,0.9,1.1,1.5,1.1c0.6,0,1.1-0.4,1.5-1.1c0.4-0.7,0.6-1.6,0.6-2.5h1.1c0,1.9-0.7,3.5-2,4.8
		c-1.3,1.3-3,2-4.9,2c-1.9,0-3.5-0.7-4.9-2c-1.3-1.3-2-3-2-4.9V63.6c0-2.2-0.3-4.3-0.8-6.2c-0.6-1.9-1.3-3.6-2.3-5
		c-1-1.4-2.1-2.5-3.3-3.4c-1.3-0.8-2.6-1.3-4.1-1.3H57.1L57.1,47.7z M57.1,10.6v36h4.2c1.5,0,2.9-0.4,4.1-1.3c1.3-0.8,2.4-2,3.3-3.4
		c1-1.4,1.7-3.1,2.3-5c0.6-1.9,0.8-4,0.8-6.2v-4.2c0-2.2-0.3-4.3-0.8-6.2c-0.6-1.9-1.3-3.6-2.3-5c-1-1.4-2.1-2.5-3.3-3.4
		c-1.3-0.8-2.6-1.3-4.1-1.3H57.1L57.1,10.6z M90.1,79.5c0-1.5,0.5-2.7,1.5-3.8c1-1,2.3-1.5,3.8-1.5c1.5,0,2.7,0.5,3.8,1.5
		c1,1,1.5,2.3,1.5,3.8c0,1.5-0.5,2.7-1.5,3.8c-1,1-2.3,1.5-3.8,1.5c-1.5,0-2.7-0.5-3.8-1.5C90.6,82.2,90.1,80.9,90.1,79.5L90.1,79.5
		z M140.8,9.5v14.8h-1.1c0-1.9-0.2-3.7-0.5-5.4c-0.4-1.7-0.8-3.1-1.5-4.4c-0.6-1.3-1.4-2.3-2.2-3c-0.8-0.7-1.7-1.1-2.7-1.1h-6.9v72
		h4.2v1.1h-17v-1.1h4.2l0.1-72h-6.9c-1,0-1.9,0.4-2.7,1.1c-0.8,0.7-1.6,1.7-2.2,3c-0.6,1.3-1.1,2.7-1.5,4.4
		c-0.4,1.7-0.5,3.4-0.5,5.4h-1.1V9.5H140.8L140.8,9.5z M178.6,67.8c0,2.3-0.3,4.5-1,6.6c-0.7,2-1.6,3.8-2.8,5.4
		c-1.2,1.6-2.5,2.8-4,3.7c-1.5,0.9-3.2,1.3-4.9,1.3c-2.5,0-4.8-0.4-6.8-1.3c-2.1-0.9-3.9-2.1-5.4-3.7c-1.5-1.6-2.6-3.4-3.5-5.4
		c-0.8-2-1.3-4.2-1.3-6.6V10.6h-4.2V9.5h17v1.1h-4.2v57.2c0,2.2,0.2,4.3,0.6,6.2c0.4,1.9,1,3.6,1.7,5c0.7,1.4,1.6,2.5,2.6,3.4
		c1,0.8,2.2,1.3,3.5,1.3c1.6,0,3.1-0.4,4.6-1.3c1.4-0.8,2.6-2,3.7-3.4c1.1-1.4,1.9-3.1,2.5-5c0.6-1.9,0.9-4,0.9-6.2V10.6h-4.2V9.5
		h10.1v1.1c-1.7,0-2.9,0.3-3.7,0.9c-0.7,0.6-1.1,1.4-1.1,2.3V67.8L178.6,67.8z M201.2,47.7v35h4.2v1.1h-17v-1.1h4.2v-72h-4.2V9.5h17
		c2.8,0,5.4,0.4,7.8,1.3c2.4,0.9,4.4,2.1,6,3.7c1.7,1.6,2.9,3.4,3.9,5.4c0.9,2,1.4,4.2,1.4,6.6v4.2c0,4-1.3,7.4-3.8,10.4
		c-2.5,3-5.9,5-10.2,6c4.2,1,7.6,3,10.2,6c2.5,3,3.8,6.5,3.8,10.5V78c0,1,0.2,1.9,0.6,2.6c0.4,0.7,0.9,1.1,1.5,1.1
		c0.6,0,1.1-0.4,1.5-1.1c0.4-0.7,0.6-1.6,0.6-2.5h1.1c0,1.9-0.7,3.5-2,4.8c-1.3,1.3-3,2-4.9,2c-1.9,0-3.5-0.7-4.9-2
		c-1.3-1.3-2-3-2-4.9V63.6c0-2.2-0.3-4.3-0.8-6.2c-0.6-1.9-1.3-3.6-2.3-5c-1-1.4-2.1-2.5-3.3-3.4c-1.3-0.8-2.6-1.3-4.1-1.3H201.2
		L201.2,47.7z M201.2,10.6v36h4.2c1.5,0,2.9-0.4,4.1-1.3c1.3-0.8,2.4-2,3.3-3.4c1-1.4,1.7-3.1,2.3-5c0.6-1.9,0.8-4,0.8-6.2v-4.2
		c0-2.2-0.3-4.3-0.8-6.2c-0.6-1.9-1.3-3.6-2.3-5c-1-1.4-2.1-2.5-3.3-3.4c-1.3-0.8-2.6-1.3-4.1-1.3H201.2L201.2,10.6z M250.7,9.5v1.1
		h-4.2v72h4.2v1.1h-17v-1.1h4.2v-72h-4.2V9.5H250.7L250.7,9.5z M256.2,83.7l23-73.1h-14c-1,0-1.9,0.4-2.7,1.1
		c-0.8,0.7-1.5,1.7-2.2,3c-0.6,1.3-1.1,2.7-1.5,4.4c-0.4,1.7-0.5,3.4-0.5,5.4h-1.1V9.5h31.1l-23,73.1h14c0.9,0,1.8-0.4,2.6-1.1
		c0.8-0.7,1.6-1.7,2.2-3c0.6-1.3,1.1-2.7,1.5-4.4c0.4-1.7,0.5-3.4,0.5-5.4h1.1v14.8H256.2L256.2,83.7z M321.3,25.4
		c0-2.2-0.2-4.3-0.6-6.2c-0.4-1.9-1-3.6-1.7-5c-0.7-1.4-1.6-2.5-2.6-3.4c-1-0.8-2.2-1.3-3.5-1.3c-1.3,0-2.5,0.4-3.5,1.3
		c-1,0.8-1.9,2-2.6,3.4c-0.7,1.4-1.3,3.1-1.7,5c-0.4,1.9-0.6,4-0.6,6.2v42.4c0,2.2,0.2,4.3,0.6,6.2c0.4,1.9,1,3.6,1.7,5
		c0.7,1.4,1.6,2.5,2.6,3.4c1,0.8,2.2,1.3,3.5,1.3c1.3,0,2.5-0.4,3.5-1.3c1-0.8,1.9-2,2.6-3.4c0.7-1.4,1.3-3.1,1.7-5
		c0.4-1.9,0.6-4,0.6-6.2V25.4L321.3,25.4z M295.9,25.4c0-2.3,0.4-4.5,1.3-6.6c0.8-2,2-3.8,3.5-5.4c1.5-1.6,3.3-2.8,5.4-3.7
		c2.1-0.9,4.4-1.3,6.8-1.3c2.5,0,4.7,0.4,6.8,1.3c2.1,0.9,3.9,2.1,5.4,3.7c1.5,1.6,2.6,3.4,3.5,5.4c0.8,2,1.3,4.2,1.3,6.6v42.4
		c0,2.3-0.4,4.5-1.3,6.6c-0.8,2-2,3.8-3.5,5.4c-1.5,1.6-3.3,2.8-5.4,3.7c-2.1,0.9-4.4,1.3-6.8,1.3c-2.5,0-4.7-0.4-6.8-1.3
		c-2.1-0.9-3.9-2.1-5.4-3.7c-1.5-1.6-2.6-3.4-3.5-5.4c-0.8-2-1.3-4.2-1.3-6.6V25.4z"/>
	<path class="st0" d="M332.4,8.3h0.6v0.1h-2.3V8.3h0.6V2.2h-0.6V2.1h2.6c0.2,0,0.5,0,0.7,0.1c0.3,0.1,0.5,0.2,0.7,0.3
		c0.2,0.1,0.4,0.3,0.5,0.5c0.1,0.2,0.2,0.5,0.2,0.8c0,0.4-0.1,0.7-0.3,1c-0.2,0.3-0.5,0.5-0.9,0.6l1,3h0.6v0.1h-2.3V8.3h0.5l-1-2.9
		h-0.6V8.3L332.4,8.3z M332.4,5.3h0.4c0.2,0,0.4,0,0.6-0.1c0.2-0.1,0.3-0.2,0.5-0.3c0.1-0.1,0.2-0.3,0.3-0.5
		c0.1-0.2,0.1-0.4,0.1-0.6c0-0.2,0-0.4-0.1-0.6c-0.1-0.2-0.2-0.4-0.3-0.5c-0.1-0.1-0.3-0.2-0.5-0.3c-0.2-0.1-0.4-0.1-0.6-0.1h-0.3
		V5.3L332.4,5.3z M328.5,5.3c0,0.6,0.1,1.2,0.4,1.8c0.2,0.6,0.6,1.1,1,1.5c0.4,0.4,0.9,0.8,1.5,1c0.6,0.2,1.2,0.4,1.8,0.4
		s1.2-0.1,1.8-0.4c0.6-0.2,1.1-0.6,1.5-1c0.4-0.4,0.8-0.9,1-1.5c0.2-0.6,0.4-1.2,0.4-1.8c0-0.6-0.1-1.2-0.4-1.8
		c-0.2-0.6-0.6-1.1-1-1.5c-0.4-0.4-0.9-0.8-1.5-1c-0.6-0.2-1.2-0.4-1.8-0.4s-1.2,0.1-1.8,0.4c-0.6,0.2-1.1,0.6-1.5,1
		c-0.4,0.4-0.8,0.9-1,1.5C328.6,4,328.5,4.6,328.5,5.3L328.5,5.3z M327.9,5.3c0,0.7,0.1,1.4,0.4,2c0.3,0.6,0.7,1.2,1.1,1.7
		c0.5,0.5,1,0.9,1.7,1.1c0.6,0.3,1.3,0.4,2,0.4c0.7,0,1.4-0.1,2-0.4c0.6-0.3,1.2-0.7,1.7-1.1c0.5-0.5,0.9-1,1.1-1.7
		c0.3-0.6,0.4-1.3,0.4-2c0-0.7-0.1-1.4-0.4-2c-0.3-0.6-0.7-1.2-1.1-1.7c-0.5-0.5-1-0.9-1.7-1.1c-0.6-0.3-1.3-0.4-2-0.4
		c-0.7,0-1.4,0.1-2,0.4c-0.6,0.3-1.2,0.7-1.7,1.1c-0.5,0.5-0.9,1-1.1,1.7C328.1,3.9,327.9,4.5,327.9,5.3z"/>
	<path class="st1" d="M4.5,119.5c1.3,0,2.5-0.5,3.3-1.3L7,117.4c-0.7,0.7-1.5,1-2.4,1c-1.9,0-3.4-1.4-3.4-3.3c0-1.9,1.4-3.3,3.4-3.3
		c0.9,0,1.7,0.3,2.4,1l0.8-0.8c-0.8-0.9-1.9-1.3-3.3-1.3c-2.6,0-4.5,1.8-4.5,4.4C0,117.6,2,119.5,4.5,119.5L4.5,119.5z M9.6,119.4
		h1.2v-8.6H9.6V119.4L9.6,119.4z M20.4,119.4l-2-2.9c1.2-0.4,1.9-1.4,1.9-2.7c0-1.9-1.3-3-3.6-3h-3.3v8.6h1.2v-2.6h2.1
		c0.2,0,0.4,0,0.5,0l1.8,2.6H20.4L20.4,119.4z M16.7,115.7h-2.1v-3.9h2.1c1.6,0,2.4,0.7,2.4,1.9C19,115,18.2,115.7,16.7,115.7
		L16.7,115.7z M25.8,119.5c2.3,0,3.6-1.3,3.6-3.8v-4.9h-1.2v4.8c0,1.9-0.9,2.8-2.4,2.8c-1.5,0-2.4-0.9-2.4-2.8v-4.8h-1.2v4.9
		C22.2,118.2,23.5,119.5,25.8,119.5L25.8,119.5z M33,119.5c1.7,0,2.7-0.9,2.7-2.9v-5.8h-4.3v1.1h3.1v4.8c0,1.1-0.5,1.7-1.5,1.7
		c-0.7,0-1.3-0.4-1.8-1l-0.7,0.8C31.1,119,32,119.5,33,119.5L33,119.5z M44.4,119.4h1.3l-3.9-8.6h-1.2l-3.9,8.6H38l0.9-2.1h4.6
		L44.4,119.4L44.4,119.4z M39.3,116.3l1.8-4.2l1.8,4.2H39.3L39.3,116.3z M53.1,110.8v6.4l-5.1-6.4h-1v8.6h1.2V113l5.1,6.4h1v-8.6
		H53.1L53.1,110.8z M60.8,119.5c2.6,0,4.5-1.9,4.5-4.4c0-2.5-1.9-4.4-4.5-4.4c-2.6,0-4.6,1.9-4.6,4.4
		C56.2,117.6,58.1,119.5,60.8,119.5L60.8,119.5z M60.8,118.4c-1.9,0-3.3-1.4-3.3-3.3c0-1.9,1.4-3.3,3.3-3.3c1.9,0,3.3,1.4,3.3,3.3
		C64.1,117,62.7,118.4,60.8,118.4L60.8,118.4z M73.8,110.8h-3.3v8.6h1.2v-2.6h2.1c2.2,0,3.6-1.1,3.6-3
		C77.4,111.9,76,110.8,73.8,110.8L73.8,110.8z M73.8,115.7h-2.1v-3.8h2.1c1.6,0,2.4,0.7,2.4,1.9C76.2,115,75.3,115.7,73.8,115.7
		L73.8,115.7z M79.2,119.4H85v-1.1h-4.6v-7.5h-1.2V119.4L79.2,119.4z M91.9,108.5h-1.5l-1.7,1.6h1.1L91.9,108.5L91.9,108.5z
		 M92.9,119.4h1.3l-3.9-8.6h-1.2l-3.9,8.6h1.3l0.9-2.1h4.6L92.9,119.4L92.9,119.4z M87.8,116.3l1.8-4.2l1.8,4.2H87.8L87.8,116.3z
		 M97.9,119.5c2.3,0,3.3-1.1,3.3-2.4c0-3.1-5.2-1.8-5.2-3.9c0-0.7,0.6-1.4,2.1-1.4c0.8,0,1.6,0.2,2.3,0.7l0.4-1
		c-0.7-0.5-1.7-0.8-2.8-0.8c-2.3,0-3.3,1.1-3.3,2.4c0,3.2,5.2,1.9,5.2,4c0,0.7-0.6,1.3-2.1,1.3c-1.1,0-2.2-0.4-2.8-1l-0.5,1
		C95.3,119,96.6,119.5,97.9,119.5L97.9,119.5z M104.6,119.4h1.2v-7.5h2.9v-1.1h-7.1v1.1h2.9V119.4L104.6,119.4z M110.1,119.4h1.2
		v-8.6h-1.2V119.4L110.1,119.4z M117.7,119.5c1.3,0,2.5-0.5,3.3-1.3l-0.8-0.8c-0.7,0.7-1.5,1-2.4,1c-1.9,0-3.4-1.4-3.4-3.3
		c0-1.9,1.4-3.3,3.4-3.3c0.9,0,1.7,0.3,2.4,1l0.8-0.8c-0.8-0.9-1.9-1.3-3.3-1.3c-2.6,0-4.5,1.8-4.5,4.4
		C113.2,117.6,115.1,119.5,117.7,119.5L117.7,119.5z M126.4,119.5c2.6,0,4.5-1.9,4.5-4.4c0-2.5-1.9-4.4-4.5-4.4
		c-2.6,0-4.6,1.9-4.6,4.4C121.8,117.6,123.8,119.5,126.4,119.5L126.4,119.5z M126.4,118.4c-1.9,0-3.3-1.4-3.3-3.3
		c0-1.9,1.4-3.3,3.3-3.3c1.9,0,3.3,1.4,3.3,3.3C129.7,117,128.3,118.4,126.4,118.4L126.4,118.4z M132.7,117.8
		c-0.5,0-0.8,0.3-0.8,0.8c0,0.4,0.2,0.6,0.5,0.8l-0.5,1.8h0.8l0.6-1.7c0.2-0.5,0.2-0.6,0.2-0.9C133.5,118.1,133.2,117.8,132.7,117.8
		L132.7,117.8z M139.9,118.3v-2.8h4.3v-1h-4.3v-2.6h4.8v-1.1h-6v8.6h6.2v-1.1H139.9L139.9,118.3z M149.3,119.5
		c2.3,0,3.3-1.1,3.3-2.4c0-3.1-5.2-1.8-5.2-3.9c0-0.7,0.6-1.4,2.1-1.4c0.8,0,1.6,0.2,2.3,0.7l0.4-1c-0.7-0.5-1.7-0.8-2.8-0.8
		c-2.3,0-3.3,1.1-3.3,2.4c0,3.2,5.2,1.9,5.2,4c0,0.7-0.6,1.3-2.1,1.3c-1.1,0-2.2-0.4-2.8-1l-0.5,1C146.7,119,148,119.5,149.3,119.5
		L149.3,119.5z M156,119.4h1.2v-7.5h2.9v-1.1h-7.1v1.1h2.9V119.4L156,119.4z M166.8,108.5h-1.5l-1.7,1.6h1.1L166.8,108.5
		L166.8,108.5z M162.7,118.3v-2.8h4.3v-1h-4.3v-2.6h4.8v-1.1h-6v8.6h6.2v-1.1H162.7L162.7,118.3z M171.4,119.4h1.2v-7.5h2.9v-1.1
		h-7.1v1.1h2.9V119.4L171.4,119.4z M176.9,119.4h1.2v-8.6h-1.2V119.4L176.9,119.4z M184.5,119.5c1.3,0,2.5-0.5,3.3-1.3l-0.8-0.8
		c-0.7,0.7-1.5,1-2.4,1c-1.9,0-3.4-1.4-3.4-3.3c0-1.9,1.4-3.3,3.4-3.3c0.9,0,1.7,0.3,2.4,1l0.8-0.8c-0.8-0.9-1.9-1.3-3.3-1.3
		c-2.6,0-4.5,1.8-4.5,4.4C180,117.6,181.9,119.5,184.5,119.5L184.5,119.5z M193.2,119.5c2.6,0,4.5-1.9,4.5-4.4
		c0-2.5-1.9-4.4-4.5-4.4c-2.6,0-4.6,1.9-4.6,4.4C188.6,117.6,190.6,119.5,193.2,119.5L193.2,119.5z M193.2,118.4
		c-1.9,0-3.3-1.4-3.3-3.3c0-1.9,1.4-3.3,3.3-3.3c1.9,0,3.3,1.4,3.3,3.3C196.5,117,195.1,118.4,193.2,118.4L193.2,118.4z
		 M209.6,110.8h-1.2l-2.8,4.5l-2.7-4.5h-1.3l3.4,5.6v3h1.2v-3L209.6,110.8L209.6,110.8z M221.2,119.4l-2-2.9
		c1.2-0.4,1.9-1.4,1.9-2.7c0-1.9-1.3-3-3.6-3h-3.3v8.6h1.2v-2.6h2.1c0.2,0,0.4,0,0.5,0l1.8,2.6H221.2L221.2,119.4z M217.4,115.7
		h-2.1v-3.9h2.1c1.6,0,2.4,0.7,2.4,1.9C219.8,115,219,115.7,217.4,115.7L217.4,115.7z M224.2,118.3v-2.8h4.3v-1h-4.3v-2.6h4.8v-1.1
		h-6v8.6h6.2v-1.1H224.2L224.2,118.3z M235,119.5c1.3,0,2.5-0.5,3.3-1.3l-0.8-0.8c-0.7,0.7-1.5,1-2.4,1c-1.9,0-3.4-1.4-3.4-3.3
		c0-1.9,1.4-3.3,3.4-3.3c0.9,0,1.7,0.3,2.4,1l0.8-0.8c-0.8-0.9-1.9-1.3-3.3-1.3c-2.6,0-4.5,1.8-4.5,4.4
		C230.5,117.6,232.4,119.5,235,119.5L235,119.5z M243.7,119.5c2.6,0,4.5-1.9,4.5-4.4c0-2.5-1.9-4.4-4.5-4.4c-2.6,0-4.6,1.9-4.6,4.4
		C239.1,117.6,241,119.5,243.7,119.5L243.7,119.5z M243.7,118.4c-1.9,0-3.3-1.4-3.3-3.3c0-1.9,1.4-3.3,3.3-3.3
		c1.9,0,3.3,1.4,3.3,3.3C247,117,245.6,118.4,243.7,118.4L243.7,118.4z M256.2,110.8v6.4l-5.1-6.4h-1v8.6h1.2V113l5.1,6.4h1v-8.6
		H256.2L256.2,110.8z M262.5,119.5c2.3,0,3.3-1.1,3.3-2.4c0-3.1-5.2-1.8-5.2-3.9c0-0.7,0.6-1.4,2.1-1.4c0.8,0,1.6,0.2,2.3,0.7l0.4-1
		c-0.7-0.5-1.7-0.8-2.8-0.8c-2.3,0-3.3,1.1-3.3,2.4c0,3.2,5.2,1.9,5.2,4c0,0.7-0.6,1.3-2.1,1.3c-1.1,0-2.2-0.4-2.8-1l-0.5,1
		C259.9,119,261.2,119.5,262.5,119.5L262.5,119.5z M269.2,119.4h1.2v-7.5h2.9v-1.1h-7.1v1.1h2.9V119.4L269.2,119.4z M281.7,119.4
		l-2-2.9c1.2-0.4,1.9-1.4,1.9-2.7c0-1.9-1.3-3-3.6-3h-3.3v8.6h1.2v-2.6h2.1c0.2,0,0.4,0,0.5,0l1.8,2.6H281.7L281.7,119.4z
		 M278,115.7h-2.1v-3.9h2.1c1.6,0,2.4,0.7,2.4,1.9C280.4,115,279.5,115.7,278,115.7L278,115.7z M287.1,119.5c2.3,0,3.6-1.3,3.6-3.8
		v-4.9h-1.2v4.8c0,1.9-0.9,2.8-2.4,2.8c-1.5,0-2.4-0.9-2.4-2.8v-4.8h-1.2v4.9C283.5,118.2,284.9,119.5,287.1,119.5L287.1,119.5z
		 M297.1,119.5c1.3,0,2.5-0.5,3.3-1.3l-0.8-0.8c-0.7,0.7-1.5,1-2.4,1c-1.9,0-3.4-1.4-3.4-3.3c0-1.9,1.4-3.3,3.4-3.3
		c0.9,0,1.7,0.3,2.4,1l0.8-0.8c-0.8-0.9-1.9-1.3-3.3-1.3c-2.6,0-4.5,1.8-4.5,4.4C292.5,117.6,294.5,119.5,297.1,119.5L297.1,119.5z
		 M303.7,119.4h1.2v-7.5h2.9v-1.1h-7.1v1.1h2.9V119.4L303.7,119.4z M309.2,119.4h1.2v-8.6h-1.2V119.4L309.2,119.4z M319.1,110.8
		l-3.1,7l-3.1-7h-1.3l3.8,8.6h1.2l3.8-8.6H319.1L319.1,110.8z M325.2,119.5c2.6,0,4.5-1.9,4.5-4.4c0-2.5-1.9-4.4-4.5-4.4
		c-2.6,0-4.6,1.9-4.6,4.4C320.6,117.6,322.6,119.5,325.2,119.5L325.2,119.5z M325.2,118.4c-1.9,0-3.3-1.4-3.3-3.3
		c0-1.9,1.4-3.3,3.3-3.3c1.9,0,3.3,1.4,3.3,3.3C328.5,117,327.1,118.4,325.2,118.4z"/>
	<line class="st2" x1="0" y1="97.7" x2="329.7" y2="97.7"/>
</g>
</svg>
