<?xml version="1.0" encoding="utf-8"?>
<!-- Generator: Adobe Illustrator 22.0.1, SVG Export Plug-In . SVG Version: 6.00 Build 0)  -->
<svg version="1.1" id="Layer_1" xmlns="http://www.w3.org/2000/svg" xmlns:xlink="http://www.w3.org/1999/xlink" x="0px" y="0px"
	 viewBox="0 0 338.3 127.6" style="enable-background:new 0 0 338.3 127.6;" xml:space="preserve">
<style type="text/css">
	.st0{fill:#3F3F3F;}
	.st1{fill:#252626;}
	.st2{fill:none;stroke:#0092A7;stroke-width:4.252;stroke-miterlimit:22.9256;}
	.st3{enable-background:new    ;}
</style>
<g>
	<path class="st0" d="M4.4,82.5v-72H0.1V9.4h17c2.8,0,5.4,0.4,7.8,1.3c2.4,0.9,4.4,2.1,6,3.7c1.7,1.6,2.9,3.4,3.9,5.4
		c0.9,2,1.4,4.2,1.4,6.6v40.3c0,2.3-0.5,4.5-1.4,6.6c-0.9,2-2.2,3.8-3.9,5.4c-1.7,1.6-3.7,2.8-6,3.7c-2.4,0.9-5,1.3-7.8,1.3h-17
		v-1.1L4.4,82.5C4.4,82.6,4.4,82.5,4.4,82.5z M27.7,26.4c0-2.2-0.3-4.3-0.8-6.2c-0.6-1.9-1.3-3.6-2.3-5s-2.1-2.5-3.3-3.4
		c-1.3-0.8-2.6-1.3-4.1-1.3H13v72h4.2c1.5,0,2.9-0.4,4.1-1.3c1.3-0.8,2.4-2,3.3-3.4c1-1.4,1.7-3.1,2.3-5c0.6-1.9,0.8-4,0.8-6.2
		L27.7,26.4L27.7,26.4z M57.1,47.6v35h4.2v1.1h-17v-1.1h4.2v-72h-4.2V9.4h17c2.8,0,5.4,0.4,7.8,1.3c2.4,0.9,4.4,2.1,6,3.7
		c1.7,1.6,2.9,3.4,3.9,5.4c0.9,2,1.4,4.2,1.4,6.6v4.2c0,4-1.3,7.4-3.8,10.4s-5.9,5-10.2,6c4.2,1,7.6,3,10.2,6
		c2.5,3,3.8,6.5,3.8,10.5v14.4c0,1,0.2,1.9,0.6,2.6s0.9,1.1,1.5,1.1s1.1-0.4,1.5-1.1s0.6-1.6,0.6-2.5h1.1c0,1.9-0.7,3.5-2,4.8
		s-3,2-4.9,2s-3.5-0.7-4.9-2c-1.3-1.3-2-3-2-4.9V63.5c0-2.2-0.3-4.3-0.8-6.2c-0.6-1.9-1.3-3.6-2.3-5s-2.1-2.5-3.3-3.4
		c-1.3-0.8-2.6-1.3-4.1-1.3H57.1L57.1,47.6z M57.1,10.5v36h4.2c1.5,0,2.9-0.4,4.1-1.3c1.3-0.8,2.4-2,3.3-3.4c1-1.4,1.7-3.1,2.3-5
		c0.6-1.9,0.8-4,0.8-6.2v-4.2c0-2.2-0.3-4.3-0.8-6.2c-0.6-1.9-1.3-3.6-2.3-5s-2.1-2.5-3.3-3.4c-1.3-0.8-2.6-1.3-4.1-1.3L57.1,10.5
		L57.1,10.5z M90.1,79.4c0-1.5,0.5-2.7,1.5-3.8c1-1,2.3-1.5,3.8-1.5s2.7,0.5,3.8,1.5c1,1,1.5,2.3,1.5,3.8s-0.5,2.7-1.5,3.8
		c-1,1-2.3,1.5-3.8,1.5s-2.7-0.5-3.8-1.5C90.6,82.1,90.1,80.8,90.1,79.4L90.1,79.4z M140.8,9.4v14.8h-1.1c0-1.9-0.2-3.7-0.5-5.4
		c-0.4-1.7-0.8-3.1-1.5-4.4c-0.6-1.3-1.4-2.3-2.2-3s-1.7-1.1-2.7-1.1h-6.9v72h4.2v1.1h-17v-1.1h4.2l0.1-72h-6.9
		c-1,0-1.9,0.4-2.7,1.1c-0.8,0.7-1.6,1.7-2.2,3s-1.1,2.7-1.5,4.4c-0.4,1.7-0.5,3.4-0.5,5.4h-1.1V9.4H140.8L140.8,9.4z M178.6,67.7
		c0,2.3-0.3,4.5-1,6.6c-0.7,2-1.6,3.8-2.8,5.4s-2.5,2.8-4,3.7c-1.5,0.9-3.2,1.3-4.9,1.3c-2.5,0-4.8-0.4-6.8-1.3
		c-2.1-0.9-3.9-2.1-5.4-3.7s-2.6-3.4-3.5-5.4c-0.8-2-1.3-4.2-1.3-6.6V10.5h-4.2V9.4h17v1.1h-4.2v57.2c0,2.2,0.2,4.3,0.6,6.2
		c0.4,1.9,1,3.6,1.7,5s1.6,2.5,2.6,3.4c1,0.8,2.2,1.3,3.5,1.3c1.6,0,3.1-0.4,4.6-1.3c1.4-0.8,2.6-2,3.7-3.4c1.1-1.4,1.9-3.1,2.5-5
		s0.9-4,0.9-6.2V10.5h-4.2V9.4h10.1v1.1c-1.7,0-2.9,0.3-3.7,0.9c-0.7,0.6-1.1,1.4-1.1,2.3v54H178.6z M201.2,47.6v35h4.2v1.1h-17
		v-1.1h4.2v-72h-4.2V9.4h17c2.8,0,5.4,0.4,7.8,1.3c2.4,0.9,4.4,2.1,6,3.7c1.7,1.6,2.9,3.4,3.9,5.4c0.9,2,1.4,4.2,1.4,6.6v4.2
		c0,4-1.3,7.4-3.8,10.4s-5.9,5-10.2,6c4.2,1,7.6,3,10.2,6c2.5,3,3.8,6.5,3.8,10.5v14.4c0,1,0.2,1.9,0.6,2.6c0.4,0.7,0.9,1.1,1.5,1.1
		s1.1-0.4,1.5-1.1s0.6-1.6,0.6-2.5h1.1c0,1.9-0.7,3.5-2,4.8s-3,2-4.9,2s-3.5-0.7-4.9-2c-1.3-1.3-2-3-2-4.9V63.5
		c0-2.2-0.3-4.3-0.8-6.2c-0.6-1.9-1.3-3.6-2.3-5s-2.1-2.5-3.3-3.4c-1.3-0.8-2.6-1.3-4.1-1.3H201.2L201.2,47.6z M201.2,10.5v36h4.2
		c1.5,0,2.9-0.4,4.1-1.3c1.3-0.8,2.4-2,3.3-3.4c1-1.4,1.7-3.1,2.3-5s0.8-4,0.8-6.2v-4.2c0-2.2-0.3-4.3-0.8-6.2
		c-0.6-1.9-1.3-3.6-2.3-5s-2.1-2.5-3.3-3.4c-1.3-0.8-2.6-1.3-4.1-1.3L201.2,10.5L201.2,10.5z M250.7,9.4v1.1h-4.2v72h4.2v1.1h-17
		v-1.1h4.2v-72h-4.2V9.4H250.7L250.7,9.4z M256.2,83.6l23-73.1h-14c-1,0-1.9,0.4-2.7,1.1c-0.8,0.7-1.5,1.7-2.2,3
		c-0.6,1.3-1.1,2.7-1.5,4.4c-0.4,1.7-0.5,3.4-0.5,5.4h-1.1v-15h31.1l-23,73.1h14c0.9,0,1.8-0.4,2.6-1.1c0.8-0.7,1.6-1.7,2.2-3
		s1.1-2.7,1.5-4.4c0.4-1.7,0.5-3.4,0.5-5.4h1.1v14.8h-31V83.6z M321.3,25.3c0-2.2-0.2-4.3-0.6-6.2c-0.4-1.9-1-3.6-1.7-5
		s-1.6-2.5-2.6-3.4c-1-0.8-2.2-1.3-3.5-1.3s-2.5,0.4-3.5,1.3c-1,0.8-1.9,2-2.6,3.4s-1.3,3.1-1.7,5c-0.4,1.9-0.6,4-0.6,6.2v42.4
		c0,2.2,0.2,4.3,0.6,6.2c0.4,1.9,1,3.6,1.7,5s1.6,2.5,2.6,3.4c1,0.8,2.2,1.3,3.5,1.3s2.5-0.4,3.5-1.3c1-0.8,1.9-2,2.6-3.4
		s1.3-3.1,1.7-5c0.4-1.9,0.6-4,0.6-6.2V25.3L321.3,25.3z M295.9,25.3c0-2.3,0.4-4.5,1.3-6.6c0.8-2,2-3.8,3.5-5.4s3.3-2.8,5.4-3.7
		s4.4-1.3,6.8-1.3c2.5,0,4.7,0.4,6.8,1.3c2.1,0.9,3.9,2.1,5.4,3.7s2.6,3.4,3.5,5.4c0.8,2,1.3,4.2,1.3,6.6v42.4
		c0,2.3-0.4,4.5-1.3,6.6c-0.8,2-2,3.8-3.5,5.4s-3.3,2.8-5.4,3.7c-2.1,0.9-4.4,1.3-6.8,1.3c-2.5,0-4.7-0.4-6.8-1.3
		c-2.1-0.9-3.9-2.1-5.4-3.7s-2.6-3.4-3.5-5.4c-0.8-2-1.3-4.2-1.3-6.6V25.3z"/>
	<g>
		<path class="st1" d="M334.2,5.3c0.4-0.1,0.7-0.3,0.9-0.6c0.2-0.3,0.3-0.6,0.3-1c0-0.3-0.1-0.6-0.2-0.8s-0.3-0.4-0.5-0.5
			s-0.4-0.2-0.7-0.3C333.8,2,333.5,2,333.3,2h-2.6v0.1h0.6v6.1h-0.6v0.1h2.3V8.2h-0.6V5.3h0.6l1,2.9h-0.5v0.2h2.3V8.3h-0.6
			L334.2,5.3z M333.9,4.8c-0.2,0.1-0.3,0.2-0.5,0.3s-0.4,0.1-0.6,0.1h-0.3v-3h0.3c0.2,0,0.4,0,0.6,0.1s0.4,0.2,0.5,0.3
			s0.2,0.3,0.3,0.5c0.1,0.2,0.1,0.4,0.1,0.6s0,0.4-0.1,0.6S334,4.7,333.9,4.8z"/>
		<path class="st1" d="M337.9,3.2c-0.3-0.6-0.7-1.2-1.1-1.7c-0.5-0.5-1-0.9-1.7-1.1c-0.6-0.3-1.3-0.4-2-0.4s-1.4,0.1-2,0.4
			s-1.2,0.7-1.7,1.1c-0.5,0.5-0.9,1-1.1,1.7c-0.2,0.6-0.4,1.2-0.4,2c0,0.7,0.1,1.4,0.4,2s0.7,1.2,1.1,1.7c0.5,0.5,1,0.9,1.7,1.1
			c0.6,0.3,1.3,0.4,2,0.4s1.4-0.1,2-0.4c0.6-0.3,1.2-0.7,1.7-1.1c0.5-0.5,0.9-1,1.1-1.7c0.3-0.6,0.4-1.3,0.4-2S338.2,3.8,337.9,3.2z
			 M337.5,7c-0.2,0.6-0.6,1.1-1,1.5s-0.9,0.8-1.5,1c-0.6,0.3-1.2,0.4-1.8,0.4s-1.2-0.2-1.8-0.4c-0.6-0.2-1.1-0.6-1.5-1
			s-0.8-0.9-1-1.5c-0.3-0.6-0.4-1.2-0.4-1.8c0-0.7,0.1-1.3,0.4-1.8c0.2-0.6,0.6-1.1,1-1.5s0.9-0.8,1.5-1c0.6-0.3,1.2-0.4,1.8-0.4
			s1.2,0.2,1.8,0.4c0.6,0.2,1.1,0.6,1.5,1s0.8,0.9,1,1.5c0.3,0.6,0.4,1.2,0.4,1.8S337.7,6.4,337.5,7z"/>
	</g>
	<line class="st2" x1="0" y1="97.6" x2="329.7" y2="97.6"/>
	<g class="st3">
		<path class="st0" d="M17,121.7c-1.1-0.6-1.9-1.4-2.5-2.5s-0.9-2.2-0.9-3.5c0-1.3,0.3-2.5,0.9-3.5s1.5-1.9,2.5-2.5
			c1.1-0.6,2.3-0.9,3.6-0.9c1,0,1.9,0.2,2.7,0.5c0.8,0.3,1.5,0.8,2.1,1.4l-0.6,0.6c-1.1-1.1-2.5-1.6-4.2-1.6c-1.1,0-2.2,0.3-3.1,0.8
			c-0.9,0.5-1.7,1.2-2.2,2.2c-0.5,0.9-0.8,1.9-0.8,3.1c0,1.1,0.3,2.2,0.8,3.1c0.5,0.9,1.3,1.6,2.2,2.2c0.9,0.5,2,0.8,3.1,0.8
			c1.7,0,3.1-0.5,4.2-1.6l0.6,0.6c-0.6,0.6-1.3,1.1-2.1,1.4c-0.8,0.3-1.7,0.5-2.7,0.5C19.3,122.6,18.1,122.3,17,121.7z"/>
		<path class="st0" d="M34.8,108.9h1v13.6h-1V108.9z"/>
		<path class="st0" d="M56,122.5l-3.3-4.6c-0.5,0.1-0.9,0.1-1.3,0.1h-3.9v4.5h-1v-13.6h4.9c1.7,0,3.1,0.4,4,1.2
			c1,0.8,1.5,1.9,1.5,3.4c0,1.1-0.3,2-0.8,2.7s-1.3,1.3-2.4,1.5l3.4,4.8H56z M51.4,117.2c1.5,0,2.6-0.3,3.3-1s1.1-1.6,1.1-2.7
			c0-1.2-0.4-2.1-1.1-2.7s-1.9-1-3.3-1h-3.9v7.4H51.4z"/>
		<path class="st0" d="M67.9,121.1c-1-1-1.4-2.5-1.4-4.4v-7.8h1v7.8c0,1.7,0.4,2.9,1.1,3.8c0.8,0.8,1.9,1.2,3.3,1.2
			c1.4,0,2.5-0.4,3.3-1.2c0.8-0.8,1.1-2.1,1.1-3.8v-7.8h1v7.8c0,1.9-0.5,3.4-1.4,4.4c-1,1-2.3,1.5-4,1.5
			C70.2,122.6,68.8,122.1,67.9,121.1z"/>
		<path class="st0" d="M87.2,122.1c-0.6-0.3-1.2-0.8-1.5-1.4l0.6-0.7c0.4,0.6,0.8,1,1.3,1.3c0.5,0.3,1.1,0.4,1.7,0.4
			c0.9,0,1.6-0.3,2-0.8c0.4-0.5,0.7-1.3,0.7-2.4v-8.7h-5v-0.9h6v9.6c0,1.4-0.3,2.4-0.9,3.1c-0.6,0.7-1.5,1-2.8,1
			C88.5,122.6,87.8,122.5,87.2,122.1z"/>
		<path class="st0" d="M111.7,118.7h-7.9l-1.7,3.8H101l6.3-13.6h1l6.3,13.6h-1.1L111.7,118.7z M111.3,117.9l-3.6-7.9l-3.6,7.9H111.3
			z M109.4,105.5h1.4l-3.1,2.3h-1.1L109.4,105.5z"/>
		<path class="st0" d="M134.1,108.9v13.6h-0.8l-9.3-11.8v11.8h-1v-13.6h0.8l9.3,11.8v-11.8H134.1z"/>
		<path class="st0" d="M147,121.7c-1.1-0.6-1.9-1.4-2.5-2.5s-0.9-2.2-0.9-3.5c0-1.3,0.3-2.5,0.9-3.5s1.5-1.9,2.5-2.5
			c1.1-0.6,2.3-0.9,3.6-0.9c1.3,0,2.5,0.3,3.6,0.9c1.1,0.6,1.9,1.4,2.5,2.5c0.6,1.1,0.9,2.2,0.9,3.5c0,1.3-0.3,2.5-0.9,3.5
			c-0.6,1.1-1.5,1.9-2.5,2.5c-1.1,0.6-2.3,0.9-3.6,0.9C149.3,122.6,148.1,122.3,147,121.7z M153.7,121c0.9-0.5,1.6-1.2,2.2-2.2
			c0.5-0.9,0.8-1.9,0.8-3.1c0-1.1-0.3-2.2-0.8-3.1c-0.5-0.9-1.3-1.6-2.2-2.2c-0.9-0.5-2-0.8-3.1-0.8c-1.1,0-2.2,0.3-3.1,0.8
			c-0.9,0.5-1.7,1.2-2.2,2.2c-0.5,0.9-0.8,1.9-0.8,3.1c0,1.1,0.3,2.2,0.8,3.1c0.5,0.9,1.3,1.6,2.2,2.2c0.9,0.5,2,0.8,3.1,0.8
			C151.8,121.7,152.8,121.5,153.7,121z"/>
		<path class="st0" d="M187.1,110.1c1,0.8,1.5,1.9,1.5,3.4c0,1.4-0.5,2.5-1.5,3.4s-2.3,1.2-4,1.2h-3.9v4.5h-1v-13.6h4.9
			C184.8,108.9,186.1,109.3,187.1,110.1z M186.4,116.2c0.8-0.6,1.1-1.5,1.1-2.7c0-1.2-0.4-2.1-1.1-2.7c-0.8-0.6-1.9-1-3.3-1h-3.9
			v7.4h3.9C184.5,117.2,185.6,116.9,186.4,116.2z"/>
		<path class="st0" d="M197.9,108.9h1v12.7h7.8v0.9h-8.8V108.9z"/>
		<path class="st0" d="M223.7,118.7h-7.9l-1.7,3.8H213l6.3-13.6h1l6.3,13.6h-1.1L223.7,118.7z M223.4,117.9l-3.6-7.9l-3.6,7.9H223.4
			z M221.4,105.5h1.4l-3.1,2.3h-1.1L221.4,105.5z"/>
		<path class="st0" d="M235.8,122.1c-0.9-0.3-1.6-0.8-2.1-1.3l0.4-0.7c0.5,0.5,1.1,0.9,1.9,1.2c0.8,0.3,1.7,0.5,2.6,0.5
			c1.3,0,2.3-0.2,2.9-0.7c0.7-0.5,1-1.1,1-1.9c0-0.6-0.2-1.1-0.5-1.5s-0.8-0.6-1.3-0.8c-0.5-0.2-1.2-0.4-2.1-0.6
			c-1-0.2-1.8-0.5-2.4-0.7c-0.6-0.2-1.1-0.6-1.5-1.1c-0.4-0.5-0.6-1.1-0.6-2c0-0.7,0.2-1.3,0.5-1.8s0.9-1,1.6-1.3s1.6-0.5,2.7-0.5
			c0.8,0,1.5,0.1,2.2,0.3c0.7,0.2,1.4,0.5,1.9,0.9l-0.4,0.8c-0.5-0.4-1.1-0.7-1.8-0.9c-0.7-0.2-1.3-0.3-1.9-0.3
			c-1.3,0-2.2,0.3-2.9,0.8c-0.6,0.5-1,1.2-1,2c0,0.6,0.2,1.1,0.5,1.5s0.8,0.6,1.3,0.8c0.5,0.2,1.2,0.4,2.1,0.6
			c1,0.2,1.8,0.5,2.4,0.7c0.6,0.2,1.1,0.6,1.5,1.1c0.4,0.5,0.6,1.1,0.6,1.9c0,0.7-0.2,1.3-0.5,1.8c-0.4,0.5-0.9,1-1.6,1.3
			c-0.7,0.3-1.6,0.5-2.7,0.5C237.6,122.6,236.7,122.5,235.8,122.1z"/>
		<path class="st0" d="M255.3,109.8h-4.9v-0.9h10.8v0.9h-4.9v12.7h-1V109.8z"/>
		<path class="st0" d="M269.7,108.9h1v13.6h-1V108.9z"/>
		<path class="st0" d="M283.6,121.7c-1.1-0.6-1.9-1.4-2.5-2.5c-0.6-1.1-0.9-2.2-0.9-3.5c0-1.3,0.3-2.5,0.9-3.5
			c0.6-1.1,1.5-1.9,2.5-2.5c1.1-0.6,2.3-0.9,3.6-0.9c1,0,1.9,0.2,2.7,0.5c0.8,0.3,1.5,0.8,2.1,1.4l-0.6,0.6
			c-1.1-1.1-2.5-1.6-4.2-1.6c-1.1,0-2.2,0.3-3.1,0.8c-0.9,0.5-1.7,1.2-2.2,2.2c-0.5,0.9-0.8,1.9-0.8,3.1c0,1.1,0.3,2.2,0.8,3.1
			c0.5,0.9,1.3,1.6,2.2,2.2s2,0.8,3.1,0.8c1.7,0,3.1-0.5,4.2-1.6l0.6,0.6c-0.6,0.6-1.3,1.1-2.1,1.4c-0.8,0.3-1.7,0.5-2.7,0.5
			C285.8,122.6,284.6,122.3,283.6,121.7z"/>
		<path class="st0" d="M303.2,121.7c-1.1-0.6-1.9-1.4-2.5-2.5c-0.6-1.1-0.9-2.2-0.9-3.5c0-1.3,0.3-2.5,0.9-3.5
			c0.6-1.1,1.5-1.9,2.5-2.5c1.1-0.6,2.3-0.9,3.6-0.9s2.5,0.3,3.6,0.9c1.1,0.6,1.9,1.4,2.5,2.5c0.6,1.1,0.9,2.2,0.9,3.5
			c0,1.3-0.3,2.5-0.9,3.5c-0.6,1.1-1.5,1.9-2.5,2.5c-1.1,0.6-2.3,0.9-3.6,0.9S304.3,122.3,303.2,121.7z M309.9,121
			c0.9-0.5,1.6-1.2,2.2-2.2c0.5-0.9,0.8-1.9,0.8-3.1c0-1.1-0.3-2.2-0.8-3.1c-0.5-0.9-1.3-1.6-2.2-2.2c-0.9-0.5-2-0.8-3.1-0.8
			s-2.2,0.3-3.1,0.8c-0.9,0.5-1.7,1.2-2.2,2.2c-0.5,0.9-0.8,1.9-0.8,3.1c0,1.1,0.3,2.2,0.8,3.1c0.5,0.9,1.3,1.6,2.2,2.2
			c0.9,0.5,2,0.8,3.1,0.8S309,121.5,309.9,121z"/>
	</g>
</g>
</svg>
