<svg version="1.1" id="textos-inicio" xmlns="http://www.w3.org/2000/svg" xmlns:xlink="http://www.w3.org/1999/xlink" x="0px"
	 y="0px" viewBox="0 0 1920 1080" style="enable-background:new 0 0 1920 1080;" xml:space="preserve">
<g id="TuMejorVersion">
	<path d="M167.9,474.9h-39.1v-10.2h90v10.2h-39.1V576h-11.8V474.9z"/>
	<path d="M308.3,492.4V576h-10.8v-15.3c-3,5.1-7.1,9-12.2,11.8c-5.2,2.8-11.1,4.2-17.8,4.2c-10.9,0-19.5-3-25.8-9.1
		c-6.3-6.1-9.5-15-9.5-26.8v-48.5h11.3v47.4c0,8.8,2.2,15.5,6.5,20c4.3,4.6,10.5,6.8,18.6,6.8c8.8,0,15.7-2.7,20.8-8
		c5.1-5.4,7.6-12.8,7.6-22.3v-43.9H308.3z"/>
	<path d="M261.9,597.6v111.3h-11.3v-89l-43.7,74.9h-5.6l-43.7-74.4v88.6h-11.3V597.6h9.7l48.3,82.5l47.9-82.5H261.9z"/>
	<path d="M368.6,670.5h-70c0.6,8.7,4,15.7,10,21.1c6,5.4,13.7,8,22.9,8c5.2,0,10-0.9,14.3-2.8c4.3-1.9,8.1-4.6,11.3-8.2l6.4,7.3
		c-3.7,4.5-8.3,7.8-13.9,10.2c-5.6,2.3-11.7,3.5-18.4,3.5c-8.6,0-16.2-1.8-22.8-5.5c-6.6-3.7-11.8-8.7-15.5-15.2
		c-3.7-6.5-5.6-13.8-5.6-21.9c0-8.2,1.8-15.5,5.3-21.9c3.6-6.5,8.4-11.5,14.6-15.1c6.2-3.6,13.2-5.4,20.9-5.4
		c7.7,0,14.7,1.8,20.8,5.4c6.1,3.6,11,8.6,14.5,15c3.5,6.4,5.2,13.8,5.2,22L368.6,670.5z M307.9,642c-5.5,5.1-8.6,11.8-9.3,20.1
		h59.3c-0.7-8.3-3.8-15-9.3-20.1c-5.5-5.1-12.3-7.7-20.4-7.7C320.1,634.3,313.4,636.9,307.9,642z"/>
	<path d="M369.4,739.1c-3.1-0.9-5.7-2.3-7.7-4.1l4-8.6c3.3,2.9,7.6,4.3,13,4.3c4.5,0,7.9-1.3,10.3-4c2.4-2.7,3.6-6.6,3.6-11.8v-89.8
		h11.3v89.8c0,7.8-2.1,14-6.4,18.6c-4.2,4.6-10.3,6.8-18.1,6.8C375.9,740.5,372.6,740,369.4,739.1z M392.4,604.4
		c-1.6-1.6-2.4-3.5-2.4-5.7c0-2.1,0.8-4,2.4-5.6c1.6-1.6,3.6-2.4,5.9-2.4c2.3,0,4.3,0.8,5.9,2.3c1.6,1.5,2.4,3.4,2.4,5.5
		c0,2.3-0.8,4.3-2.4,5.9c-1.6,1.6-3.6,2.4-5.9,2.4C396,606.8,394,606,392.4,604.4z"/>
	<path d="M447.7,704.2c-6.5-3.7-11.6-8.7-15.3-15.2c-3.7-6.5-5.6-13.8-5.6-21.9c0-8.2,1.9-15.5,5.6-21.9c3.7-6.5,8.8-11.5,15.3-15.1
		c6.5-3.6,13.7-5.4,21.8-5.4c8.1,0,15.3,1.8,21.8,5.4c6.5,3.6,11.5,8.6,15.2,15.1c3.7,6.5,5.5,13.8,5.5,21.9
		c0,8.2-1.8,15.5-5.5,21.9c-3.7,6.5-8.7,11.5-15.2,15.2c-6.5,3.7-13.7,5.5-21.8,5.5C461.5,709.7,454.2,707.8,447.7,704.2z
		 M485.5,695.6c4.7-2.7,8.4-6.5,11.1-11.5c2.6-5,4-10.7,4-17c0-6.4-1.3-12-4-17c-2.7-5-6.3-8.8-11.1-11.5c-4.7-2.7-10-4.1-16-4.1
		c-5.9,0-11.3,1.4-16,4.1c-4.7,2.7-8.4,6.5-11.1,11.5c-2.7,5-4.1,10.7-4.1,17c0,6.4,1.4,12,4.1,17c2.7,5,6.4,8.8,11.1,11.5
		c4.7,2.7,10,4.1,16,4.1C475.5,699.6,480.8,698.3,485.5,695.6z"/>
	<path d="M557.7,628.9c5.2-2.9,11.7-4.3,19.5-4.3v11l-2.7-0.2c-8.8,0-15.7,2.7-20.7,8.1c-5,5.4-7.5,13-7.5,22.7v42.6H535v-83.6h10.8
		v16.4C548.5,636,552.5,631.7,557.7,628.9z"/>
	<path d="M238.8,734.4l-49.3,111.3h-11.6l-49.3-111.3h12.7L184,831l42.9-96.7H238.8z"/>
	<path d="M319,807.3h-70c0.6,8.7,4,15.7,10,21.1c6,5.4,13.7,8,22.9,8c5.2,0,10-0.9,14.3-2.8c4.3-1.9,8.1-4.6,11.3-8.2l6.4,7.3
		c-3.7,4.5-8.3,7.8-13.9,10.2c-5.6,2.3-11.7,3.5-18.4,3.5c-8.6,0-16.2-1.8-22.8-5.5c-6.6-3.7-11.8-8.7-15.5-15.2
		c-3.7-6.5-5.6-13.8-5.6-21.9c0-8.2,1.8-15.5,5.3-21.9c3.6-6.5,8.4-11.5,14.6-15.1c6.2-3.6,13.2-5.4,20.9-5.4
		c7.7,0,14.7,1.8,20.8,5.4c6.1,3.6,11,8.6,14.5,15c3.5,6.4,5.2,13.8,5.2,22L319,807.3z M258.3,778.8c-5.5,5.1-8.6,11.8-9.3,20.1
		h59.3c-0.7-8.3-3.8-15-9.3-20.1c-5.5-5.1-12.3-7.7-20.4-7.7C270.5,771.1,263.8,773.7,258.3,778.8z"/>
	<path d="M364.8,765.7c5.2-2.9,11.7-4.3,19.5-4.3v11l-2.7-0.2c-8.8,0-15.7,2.7-20.7,8.1c-5,5.4-7.5,13-7.5,22.7v42.6h-11.3V762H353
		v16.4C355.6,772.8,359.6,768.5,364.8,765.7z"/>
	<path d="M408.2,843.5c-6.2-2-11.1-4.4-14.5-7.4l5.1-8.9c3.5,2.8,7.9,5,13.2,6.8c5.3,1.7,10.8,2.6,16.5,2.6c7.6,0,13.3-1.2,16.9-3.6
		c3.7-2.4,5.5-5.7,5.5-10.1c0-3.1-1-5.5-3-7.2c-2-1.7-4.6-3.1-7.6-4c-3.1-0.9-7.2-1.8-12.2-2.6c-6.8-1.3-12.2-2.6-16.4-3.9
		c-4.1-1.3-7.7-3.6-10.6-6.8c-2.9-3.2-4.4-7.6-4.4-13.2c0-7,2.9-12.7,8.7-17.2c5.8-4.5,13.9-6.7,24.3-6.7c5.4,0,10.8,0.7,16.2,2.1
		c5.4,1.4,9.9,3.3,13.4,5.6l-4.9,9.1c-6.9-4.8-15.1-7.2-24.6-7.2c-7.2,0-12.6,1.3-16.3,3.8s-5.5,5.9-5.5,10c0,3.2,1,5.7,3.1,7.6
		c2.1,1.9,4.6,3.3,7.7,4.2c3.1,0.9,7.3,1.8,12.7,2.8c6.7,1.3,12,2.5,16.1,3.8c4,1.3,7.5,3.4,10.3,6.5c2.9,3.1,4.3,7.3,4.3,12.7
		c0,7.3-3,13.1-9.1,17.4c-6.1,4.3-14.5,6.4-25.4,6.4C420.9,846.5,414.4,845.5,408.2,843.5z"/>
	<path d="M482.9,741.4c-1.6-1.6-2.4-3.5-2.4-5.7c0-2.1,0.8-4,2.4-5.6c1.6-1.6,3.6-2.4,5.9-2.4c2.3,0,4.3,0.8,5.9,2.3
		c1.6,1.5,2.4,3.4,2.4,5.5c0,2.3-0.8,4.3-2.4,5.9c-1.6,1.6-3.6,2.4-5.9,2.4C486.4,743.7,484.5,742.9,482.9,741.4z M483,762h11.3
		v83.6H483V762z"/>
	<path d="M538.2,841c-6.5-3.7-11.6-8.7-15.3-15.2c-3.7-6.5-5.6-13.8-5.6-21.9c0-8.2,1.9-15.5,5.6-21.9c3.7-6.5,8.8-11.5,15.3-15.1
		c6.5-3.6,13.7-5.4,21.8-5.4c8.1,0,15.3,1.8,21.8,5.4c6.5,3.6,11.5,8.6,15.2,15.1c3.7,6.5,5.5,13.8,5.5,21.9
		c0,8.2-1.8,15.5-5.5,21.9c-3.7,6.5-8.7,11.5-15.2,15.2c-6.5,3.7-13.7,5.5-21.8,5.5C552,846.5,544.7,844.6,538.2,841z M576,832.4
		c4.7-2.7,8.4-6.5,11.1-11.5c2.6-5,4-10.7,4-17s-1.3-12-4-17c-2.7-5-6.3-8.8-11.1-11.5c-4.7-2.7-10-4.1-16-4.1
		c-5.9,0-11.3,1.4-16,4.1c-4.7,2.7-8.4,6.5-11.1,11.5c-2.7,5-4.1,10.7-4.1,17s1.4,12,4.1,17c2.7,5,6.4,8.8,11.1,11.5
		c4.7,2.7,10,4.1,16,4.1C565.9,836.4,571.3,835.1,576,832.4z"/>
	<path d="M693.2,770.5c6.2,6.1,9.3,15,9.3,26.6v48.5h-11.3v-47.4c0-8.7-2.2-15.3-6.5-19.9c-4.3-4.6-10.5-6.8-18.6-6.8
		c-9,0-16.1,2.7-21.4,8c-5.2,5.4-7.9,12.7-7.9,22.2v43.9h-11.3V762h10.8v15.4c3.1-5.1,7.3-9,12.8-11.8c5.5-2.8,11.8-4.2,19-4.2
		C678.6,761.4,687,764.4,693.2,770.5z"/>
</g>
<g id="Belleza">
	<path d="M216,154.7c2.2,2.6,3.3,6,3.3,10.2c0,5.3-2,9.5-5.9,12.3c-4,2.9-9.8,4.3-17.5,4.3h-28.7v-62.4h26.9
		c6.9,0,12.3,1.4,16.2,4.2c3.8,2.8,5.7,6.7,5.7,11.8c0,3.4-0.8,6.4-2.5,8.8c-1.7,2.4-4,4.2-7,5.4C210.6,150.3,213.7,152,216,154.7z
		 M173.8,124.6v22.6h19.9c5,0,8.9-1,11.7-2.9c2.7-1.9,4.1-4.7,4.1-8.4c0-3.7-1.4-6.5-4.1-8.4c-2.7-1.9-6.6-2.9-11.7-2.9H173.8z
		 M208.4,173.2c2.9-1.9,4.3-4.9,4.3-8.9c0-7.8-5.6-11.7-16.9-11.7h-22v23.4h22C201.4,176.1,205.6,175.1,208.4,173.2z"/>
	<path d="M273.8,160h-39.2c0.4,4.9,2.2,8.8,5.6,11.8c3.4,3,7.7,4.5,12.8,4.5c2.9,0,5.6-0.5,8-1.6c2.4-1,4.5-2.6,6.3-4.6l3.6,4.1
		c-2.1,2.5-4.7,4.4-7.8,5.7c-3.1,1.3-6.5,2-10.3,2c-4.8,0-9.1-1-12.8-3.1c-3.7-2-6.6-4.9-8.7-8.5c-2.1-3.6-3.1-7.7-3.1-12.3
		c0-4.6,1-8.7,3-12.3c2-3.6,4.7-6.4,8.2-8.5c3.5-2,7.4-3,11.7-3c4.3,0,8.2,1,11.7,3c3.4,2,6.1,4.8,8.1,8.4c2,3.6,2.9,7.7,2.9,12.3
		L273.8,160z M239.8,144.1c-3.1,2.9-4.8,6.6-5.2,11.3h33.2c-0.4-4.6-2.2-8.4-5.2-11.3c-3.1-2.9-6.9-4.3-11.4-4.3
		C246.7,139.7,242.9,141.2,239.8,144.1z"/>
	<path d="M286.8,115.4h6.3v66.1h-6.3V115.4z"/>
	<path d="M310.8,115.4h6.3v66.1h-6.3V115.4z"/>
	<path d="M375.6,160h-39.2c0.4,4.9,2.2,8.8,5.6,11.8c3.4,3,7.7,4.5,12.8,4.5c2.9,0,5.6-0.5,8-1.6c2.4-1,4.5-2.6,6.3-4.6l3.6,4.1
		c-2.1,2.5-4.7,4.4-7.8,5.7c-3.1,1.3-6.5,2-10.3,2c-4.8,0-9.1-1-12.8-3.1c-3.7-2-6.6-4.9-8.7-8.5c-2.1-3.6-3.1-7.7-3.1-12.3
		c0-4.6,1-8.7,3-12.3c2-3.6,4.7-6.4,8.2-8.5c3.5-2,7.4-3,11.7-3c4.3,0,8.2,1,11.7,3c3.4,2,6.1,4.8,8.1,8.4c2,3.6,2.9,7.7,2.9,12.3
		L375.6,160z M341.6,144.1c-3.1,2.9-4.8,6.6-5.2,11.3h33.2c-0.4-4.6-2.2-8.4-5.2-11.3c-3.1-2.9-6.9-4.3-11.4-4.3
		C348.4,139.7,344.6,141.2,341.6,144.1z"/>
	<path d="M421.2,176.3v5.3H383v-4.2l29.5-37.3h-29v-5.3h37.1v4.2l-29.5,37.4H421.2z"/>
	<path d="M464.1,138.9c3.3,3.1,4.9,7.6,4.9,13.6v29h-6.1v-7.3c-1.4,2.4-3.5,4.3-6.3,5.7c-2.8,1.4-6,2-9.8,2c-5.2,0-9.4-1.2-12.5-3.7
		c-3.1-2.5-4.6-5.8-4.6-9.9c0-4,1.4-7.2,4.3-9.6c2.9-2.4,7.5-3.7,13.8-3.7h14.9v-2.9c0-4-1.1-7.1-3.4-9.2c-2.3-2.1-5.6-3.2-9.9-3.2
		c-3,0-5.8,0.5-8.6,1.5c-2.7,1-5.1,2.3-7,4.1l-2.9-4.7c2.4-2,5.2-3.6,8.6-4.7c3.3-1.1,6.8-1.6,10.5-1.6
		C456.1,134.3,460.8,135.8,464.1,138.9z M457,174.5c2.6-1.6,4.5-4,5.7-7.1v-7.7H448c-8,0-12,2.8-12,8.4c0,2.7,1,4.9,3.1,6.5
		c2.1,1.6,5,2.4,8.7,2.4C451.4,177,454.4,176.2,457,174.5z"/>
</g>
<g id="Confianza">
	<path d="M507.9,340.4c-2.9-1.6-5.1-3.8-6.8-6.6c-1.6-2.8-2.5-6-2.5-9.4c0-3.5,0.8-6.6,2.5-9.4c1.6-2.8,3.9-5,6.8-6.6
		c2.9-1.6,6.1-2.4,9.7-2.4c2.7,0,5.2,0.4,7.4,1.3c2.3,0.9,4.2,2.2,5.8,3.9l-2.4,2.4c-2.8-2.9-6.4-4.3-10.7-4.3c-2.9,0-5.5,0.7-7.8,2
		c-2.3,1.3-4.2,3.1-5.5,5.4c-1.3,2.3-2,4.8-2,7.7c0,2.8,0.7,5.4,2,7.7c1.3,2.3,3.2,4.1,5.5,5.4c2.3,1.3,4.9,2,7.8,2
		c4.3,0,7.9-1.4,10.7-4.3l2.4,2.4c-1.6,1.7-3.5,3-5.8,4c-2.3,0.9-4.8,1.4-7.5,1.4C514,342.8,510.8,342,507.9,340.4z"/>
	<path d="M541.1,340.9c-2.1-1.2-3.8-2.8-5-4.9c-1.2-2.1-1.8-4.5-1.8-7.1c0-2.7,0.6-5,1.8-7.1c1.2-2.1,2.9-3.7,5-4.9
		c2.1-1.2,4.5-1.8,7.1-1.8c2.6,0,5,0.6,7.1,1.8c2.1,1.2,3.7,2.8,4.9,4.9c1.2,2.1,1.8,4.5,1.8,7.1c0,2.7-0.6,5-1.8,7.1
		c-1.2,2.1-2.8,3.7-4.9,4.9c-2.1,1.2-4.5,1.8-7.1,1.8C545.6,342.7,543.2,342.1,541.1,340.9z M553.4,338.1c1.5-0.9,2.7-2.1,3.6-3.7
		c0.9-1.6,1.3-3.5,1.3-5.5s-0.4-3.9-1.3-5.5c-0.9-1.6-2.1-2.9-3.6-3.7c-1.5-0.9-3.3-1.3-5.2-1.3c-1.9,0-3.7,0.4-5.2,1.3
		c-1.5,0.9-2.7,2.1-3.6,3.7c-0.9,1.6-1.3,3.5-1.3,5.5s0.4,3.9,1.3,5.5c0.9,1.6,2.1,2.9,3.6,3.7c1.5,0.9,3.3,1.3,5.2,1.3
		C550.2,339.5,551.9,339,553.4,338.1z"/>
	<path d="M591.5,318c2,2,3,4.9,3,8.7v15.8h-3.7V327c0-2.8-0.7-5-2.1-6.5c-1.4-1.5-3.4-2.2-6.1-2.2c-2.9,0-5.2,0.9-7,2.6
		c-1.7,1.7-2.6,4.1-2.6,7.2v14.3h-3.7v-27.2h3.5v5c1-1.7,2.4-2.9,4.2-3.9c1.8-0.9,3.8-1.4,6.2-1.4C586.8,315,589.5,316,591.5,318z"
		/>
	<path d="M609.9,308.2c-0.8,0.9-1.2,2.1-1.2,3.8v3.2h8.4v3.1h-8.3v24.1h-3.7v-24.1h-4.9v-3.1h4.9v-3.4c0-2.5,0.7-4.4,2.1-5.9
		c1.4-1.4,3.5-2.2,6.1-2.2c1,0,2,0.1,3,0.4c1,0.3,1.8,0.7,2.4,1.3l-1.2,2.7c-1.1-0.9-2.4-1.3-4-1.3
		C612,306.9,610.8,307.4,609.9,308.2z M626.2,308.5c-0.5-0.5-0.8-1.1-0.8-1.9c0-0.7,0.3-1.3,0.8-1.8s1.2-0.8,1.9-0.8
		c0.8,0,1.4,0.3,1.9,0.8c0.5,0.5,0.8,1.1,0.8,1.8c0,0.8-0.3,1.4-0.8,1.9s-1.2,0.8-1.9,0.8C627.3,309.3,626.7,309,626.2,308.5z
		 M626.2,315.3h3.7v27.2h-3.7V315.3z"/>
	<path d="M657.8,317.7c1.9,1.8,2.8,4.4,2.8,7.9v16.9h-3.5v-4.2c-0.8,1.4-2,2.5-3.6,3.3c-1.6,0.8-3.5,1.2-5.7,1.2
		c-3,0-5.4-0.7-7.2-2.2c-1.8-1.4-2.7-3.4-2.7-5.7c0-2.3,0.8-4.2,2.5-5.6c1.7-1.4,4.3-2.1,8-2.1h8.6v-1.7c0-2.3-0.7-4.1-2-5.4
		c-1.3-1.2-3.2-1.8-5.7-1.8c-1.7,0-3.4,0.3-5,0.9c-1.6,0.6-2.9,1.4-4.1,2.4l-1.7-2.7c1.4-1.2,3-2.1,5-2.7c1.9-0.6,4-1,6.1-1
		C653.2,315,655.9,315.9,657.8,317.7z M653.7,338.4c1.5-0.9,2.6-2.3,3.3-4.1v-4.4h-8.5c-4.7,0-7,1.6-7,4.9c0,1.6,0.6,2.8,1.8,3.7
		c1.2,0.9,2.9,1.4,5.1,1.4C650.4,339.8,652.2,339.3,653.7,338.4z"/>
	<path d="M692.6,318c2,2,3,4.9,3,8.7v15.8H692V327c0-2.8-0.7-5-2.1-6.5c-1.4-1.5-3.4-2.2-6.1-2.2c-2.9,0-5.2,0.9-7,2.6
		c-1.7,1.7-2.6,4.1-2.6,7.2v14.3h-3.7v-27.2h3.5v5c1-1.7,2.4-2.9,4.2-3.9c1.8-0.9,3.8-1.4,6.2-1.4C687.9,315,690.6,316,692.6,318z"
		/>
	<path d="M724.8,339.4v3.1h-22.1V340l17.1-21.7H703v-3.1h21.5v2.4l-17.1,21.7H724.8z"/>
	<path d="M749.8,317.7c1.9,1.8,2.8,4.4,2.8,7.9v16.9h-3.5v-4.2c-0.8,1.4-2,2.5-3.6,3.3c-1.6,0.8-3.5,1.2-5.7,1.2
		c-3,0-5.4-0.7-7.2-2.2c-1.8-1.4-2.7-3.4-2.7-5.7c0-2.3,0.8-4.2,2.5-5.6c1.7-1.4,4.3-2.1,8-2.1h8.6v-1.7c0-2.3-0.7-4.1-2-5.4
		c-1.3-1.2-3.2-1.8-5.7-1.8c-1.7,0-3.4,0.3-5,0.9c-1.6,0.6-2.9,1.4-4.1,2.4l-1.7-2.7c1.4-1.2,3-2.1,5-2.7c1.9-0.6,4-1,6.1-1
		C745.1,315,747.9,315.9,749.8,317.7z M745.6,338.4c1.5-0.9,2.6-2.3,3.3-4.1v-4.4h-8.5c-4.7,0-7,1.6-7,4.9c0,1.6,0.6,2.8,1.8,3.7
		c1.2,0.9,2.9,1.4,5.1,1.4C742.4,339.8,744.1,339.3,745.6,338.4z"/>
</g>
<g id="Cambios">
	<path d="M1581.1,721.2c-2.1-1.2-3.8-2.8-5-4.9c-1.2-2.1-1.8-4.4-1.8-7c0-2.6,0.6-4.9,1.8-7c1.2-2.1,2.9-3.7,5-4.9
		c2.1-1.2,4.6-1.8,7.2-1.8c2,0,3.8,0.3,5.5,1c1.7,0.7,3.1,1.6,4.3,2.9l-1.8,1.8c-2.1-2.1-4.7-3.2-7.9-3.2c-2.1,0-4.1,0.5-5.8,1.5
		c-1.7,1-3.1,2.3-4.1,4c-1,1.7-1.5,3.6-1.5,5.7c0,2.1,0.5,4,1.5,5.7c1,1.7,2.3,3,4.1,4c1.7,1,3.7,1.5,5.8,1.5c3.2,0,5.9-1.1,7.9-3.2
		l1.8,1.8c-1.2,1.3-2.6,2.3-4.3,2.9c-1.7,0.7-3.5,1-5.5,1C1585.7,723,1583.3,722.4,1581.1,721.2z"/>
	<path d="M1616.5,704.4c1.4,1.3,2.1,3.3,2.1,5.9v12.5h-2.6v-3.1c-0.6,1-1.5,1.9-2.7,2.5c-1.2,0.6-2.6,0.9-4.2,0.9
		c-2.3,0-4-0.5-5.4-1.6c-1.3-1.1-2-2.5-2-4.3c0-1.7,0.6-3.1,1.9-4.1c1.2-1,3.2-1.6,5.9-1.6h6.4v-1.2c0-1.7-0.5-3.1-1.5-4
		c-1-0.9-2.4-1.4-4.3-1.4c-1.3,0-2.5,0.2-3.7,0.6c-1.2,0.4-2.2,1-3,1.7l-1.2-2c1-0.9,2.3-1.5,3.7-2c1.4-0.5,2.9-0.7,4.5-0.7
		C1613.1,702.4,1615.1,703.1,1616.5,704.4z M1613.4,719.8c1.1-0.7,1.9-1.7,2.5-3.1v-3.3h-6.3c-3.5,0-5.2,1.2-5.2,3.6
		c0,1.2,0.4,2.1,1.3,2.8c0.9,0.7,2.1,1,3.8,1C1611,720.8,1612.3,720.5,1613.4,719.8z"/>
	<path d="M1657.2,704.6c1.4,1.5,2.2,3.6,2.2,6.4v11.7h-2.7v-11.4c0-2.1-0.5-3.7-1.5-4.8c-1-1.1-2.4-1.6-4.3-1.6
		c-2.1,0-3.7,0.6-5,1.9c-1.2,1.3-1.8,3.1-1.8,5.4v10.6h-2.7v-11.4c0-2.1-0.5-3.7-1.5-4.8c-1-1.1-2.4-1.6-4.3-1.6
		c-2.1,0-3.7,0.6-4.9,1.9c-1.2,1.3-1.8,3.1-1.8,5.4v10.6h-2.7v-20.2h2.6v3.7c0.7-1.2,1.7-2.2,3-2.8c1.3-0.7,2.7-1,4.4-1
		c1.7,0,3.2,0.4,4.4,1.1c1.2,0.7,2.2,1.8,2.8,3.2c0.7-1.3,1.8-2.4,3.2-3.1c1.4-0.8,3-1.1,4.8-1.1
		C1653.7,702.4,1655.7,703.2,1657.2,704.6z"/>
	<path d="M1682.3,703.7c1.5,0.9,2.7,2.1,3.6,3.6c0.9,1.6,1.3,3.3,1.3,5.3c0,2-0.4,3.8-1.3,5.3c-0.9,1.6-2.1,2.8-3.6,3.6
		c-1.5,0.9-3.2,1.3-5.1,1.3c-1.7,0-3.2-0.4-4.5-1.1c-1.3-0.7-2.4-1.8-3.2-3.1v4h-2.6v-28.5h2.7v12.1c0.8-1.3,1.9-2.3,3.2-3
		c1.3-0.7,2.8-1,4.4-1C1679,702.4,1680.7,702.9,1682.3,703.7z M1680.8,719.6c1.2-0.7,2.1-1.6,2.7-2.8c0.7-1.2,1-2.6,1-4.1
		c0-1.5-0.3-2.9-1-4.1c-0.7-1.2-1.6-2.1-2.7-2.8c-1.2-0.7-2.4-1-3.8-1c-1.4,0-2.7,0.3-3.9,1c-1.1,0.7-2,1.6-2.7,2.8
		c-0.7,1.2-1,2.6-1,4.1c0,1.5,0.3,2.9,1,4.1c0.7,1.2,1.5,2.1,2.7,2.8c1.1,0.7,2.4,1,3.9,1C1678.3,720.5,1679.6,720.2,1680.8,719.6z"
		/>
	<path d="M1692.7,697.6c-0.4-0.4-0.6-0.8-0.6-1.4c0-0.5,0.2-1,0.6-1.3c0.4-0.4,0.9-0.6,1.4-0.6c0.6,0,1,0.2,1.4,0.6
		c0.4,0.4,0.6,0.8,0.6,1.3c0,0.6-0.2,1-0.6,1.4c-0.4,0.4-0.9,0.6-1.4,0.6C1693.6,698.2,1693.1,698,1692.7,697.6z M1692.8,702.6h2.7
		v20.2h-2.7V702.6z"/>
	<path d="M1706.1,721.6c-1.6-0.9-2.8-2.1-3.7-3.7c-0.9-1.6-1.3-3.3-1.3-5.3c0-2,0.4-3.7,1.3-5.3c0.9-1.6,2.1-2.8,3.7-3.6
		c1.6-0.9,3.3-1.3,5.3-1.3c1.9,0,3.7,0.4,5.3,1.3c1.6,0.9,2.8,2.1,3.7,3.6c0.9,1.6,1.3,3.3,1.3,5.3c0,2-0.4,3.7-1.3,5.3
		c-0.9,1.6-2.1,2.8-3.7,3.7c-1.6,0.9-3.3,1.3-5.3,1.3C1709.4,723,1707.6,722.5,1706.1,721.6z M1715.2,719.6c1.1-0.7,2-1.6,2.7-2.8
		c0.6-1.2,1-2.6,1-4.1c0-1.5-0.3-2.9-1-4.1c-0.6-1.2-1.5-2.1-2.7-2.8c-1.1-0.7-2.4-1-3.9-1c-1.4,0-2.7,0.3-3.9,1s-2,1.6-2.7,2.8
		c-0.7,1.2-1,2.6-1,4.1c0,1.5,0.3,2.9,1,4.1c0.7,1.2,1.5,2.1,2.7,2.8s2.4,1,3.9,1C1712.8,720.5,1714,720.2,1715.2,719.6z"/>
	<path d="M1727.8,722.3c-1.5-0.5-2.7-1.1-3.5-1.8l1.2-2.1c0.8,0.7,1.9,1.2,3.2,1.6c1.3,0.4,2.6,0.6,4,0.6c1.8,0,3.2-0.3,4.1-0.9
		c0.9-0.6,1.3-1.4,1.3-2.4c0-0.7-0.2-1.3-0.7-1.7c-0.5-0.4-1.1-0.7-1.8-1c-0.7-0.2-1.7-0.4-3-0.6c-1.6-0.3-3-0.6-4-0.9
		c-1-0.3-1.8-0.9-2.6-1.6c-0.7-0.8-1.1-1.8-1.1-3.2c0-1.7,0.7-3.1,2.1-4.1c1.4-1.1,3.4-1.6,5.9-1.6c1.3,0,2.6,0.2,3.9,0.5
		c1.3,0.3,2.4,0.8,3.2,1.4l-1.2,2.2c-1.7-1.2-3.6-1.7-5.9-1.7c-1.7,0-3.1,0.3-3.9,0.9c-0.9,0.6-1.3,1.4-1.3,2.4
		c0,0.8,0.2,1.4,0.7,1.8c0.5,0.5,1.1,0.8,1.9,1c0.7,0.2,1.8,0.4,3.1,0.7c1.6,0.3,2.9,0.6,3.9,0.9c1,0.3,1.8,0.8,2.5,1.6
		c0.7,0.7,1,1.8,1,3.1c0,1.8-0.7,3.2-2.2,4.2c-1.5,1-3.5,1.6-6.1,1.6C1730.9,723,1729.3,722.7,1727.8,722.3z"/>
</g>
<g id="Calidad">
	<path d="M1170.8,881.6c-7-3.8-12.4-9.1-16.4-15.9c-4-6.8-5.9-14.4-5.9-22.8s2-16,5.9-22.8c4-6.8,9.4-12.1,16.4-15.9
		c7-3.8,14.8-5.8,23.5-5.8c6.5,0,12.5,1.1,18,3.3c5.5,2.2,10.2,5.3,14,9.5l-5.9,5.9c-6.8-6.9-15.5-10.4-25.9-10.4
		c-6.9,0-13.2,1.6-18.9,4.8c-5.7,3.2-10.1,7.5-13.3,13c-3.2,5.5-4.8,11.7-4.8,18.5c0,6.8,1.6,13,4.8,18.5c3.2,5.5,7.6,9.8,13.3,13
		c5.7,3.2,12,4.8,18.9,4.8c10.5,0,19.1-3.5,25.9-10.5l5.9,5.9c-3.8,4.2-8.5,7.4-14.1,9.6c-5.5,2.2-11.6,3.3-18.1,3.3
		C1185.6,887.4,1177.8,885.5,1170.8,881.6z"/>
	<path d="M1286.1,826.8c4.6,4.3,6.9,10.7,6.9,19.1v40.8h-8.5v-10.3c-2,3.4-4.9,6.1-8.8,8c-3.9,1.9-8.5,2.9-13.8,2.9
		c-7.3,0-13.2-1.8-17.5-5.3c-4.3-3.5-6.5-8.1-6.5-13.9c0-5.6,2-10.1,6.1-13.5c4-3.4,10.5-5.1,19.3-5.1h20.9v-4
		c0-5.7-1.6-10-4.8-12.9c-3.2-3-7.8-4.4-13.9-4.4c-4.2,0-8.2,0.7-12,2.1c-3.8,1.4-7.1,3.3-9.9,5.7l-4-6.6c3.3-2.8,7.3-5,12-6.6
		c4.7-1.5,9.6-2.3,14.8-2.3C1274.9,820.4,1281.5,822.5,1286.1,826.8z M1276.1,876.8c3.6-2.3,6.3-5.6,8-9.9v-10.8h-20.6
		c-11.3,0-16.9,3.9-16.9,11.8c0,3.8,1.5,6.9,4.4,9.1c2.9,2.2,7,3.3,12.3,3.3C1268.2,880.3,1272.5,879.1,1276.1,876.8z"/>
	<path d="M1317.1,793.8h8.9v92.8h-8.9V793.8z"/>
	<path d="M1350.6,804.6c-1.3-1.3-1.9-2.8-1.9-4.5c0-1.7,0.6-3.1,1.9-4.4c1.3-1.3,2.8-1.9,4.6-1.9c1.8,0,3.4,0.6,4.6,1.8
		c1.3,1.2,1.9,2.6,1.9,4.3c0,1.8-0.6,3.4-1.9,4.6c-1.3,1.3-2.8,1.9-4.6,1.9C1353.4,806.5,1351.9,805.8,1350.6,804.6z M1350.7,820.9
		h8.9v65.8h-8.9V820.9z"/>
	<path d="M1444.4,793.8v92.8h-8.5v-13c-2.7,4.4-6.2,7.8-10.6,10.1c-4.4,2.3-9.3,3.5-14.8,3.5c-6.2,0-11.8-1.4-16.8-4.3
		c-5-2.8-8.9-6.8-11.8-11.9c-2.8-5.1-4.3-10.9-4.3-17.4s1.4-12.3,4.3-17.4c2.8-5.1,6.8-9,11.8-11.8c5-2.8,10.6-4.2,16.8-4.2
		c5.3,0,10.2,1.1,14.4,3.3c4.3,2.2,7.8,5.4,10.6,9.7v-39.5H1444.4z M1423.7,876.2c3.7-2.1,6.6-5.1,8.8-9.1c2.1-3.9,3.2-8.4,3.2-13.4
		s-1.1-9.5-3.2-13.4c-2.1-3.9-5-6.9-8.8-9.1c-3.7-2.1-7.9-3.2-12.4-3.2c-4.7,0-8.9,1.1-12.6,3.2c-3.7,2.1-6.6,5.2-8.8,9.1
		c-2.1,3.9-3.2,8.4-3.2,13.4s1.1,9.5,3.2,13.4c2.1,3.9,5,6.9,8.8,9.1c3.7,2.1,7.9,3.2,12.6,3.2
		C1415.9,879.4,1420,878.3,1423.7,876.2z"/>
	<path d="M1512,826.8c4.6,4.3,6.9,10.7,6.9,19.1v40.8h-8.5v-10.3c-2,3.4-4.9,6.1-8.8,8c-3.9,1.9-8.5,2.9-13.8,2.9
		c-7.3,0-13.2-1.8-17.5-5.3c-4.3-3.5-6.5-8.1-6.5-13.9c0-5.6,2-10.1,6.1-13.5c4-3.4,10.5-5.1,19.3-5.1h20.9v-4
		c0-5.7-1.6-10-4.8-12.9c-3.2-3-7.8-4.4-13.9-4.4c-4.2,0-8.2,0.7-12,2.1c-3.8,1.4-7.1,3.3-9.9,5.7l-4-6.6c3.3-2.8,7.3-5,12-6.6
		c4.7-1.5,9.6-2.3,14.8-2.3C1500.8,820.4,1507.4,822.5,1512,826.8z M1502,876.8c3.6-2.3,6.3-5.6,8-9.9v-10.8h-20.6
		c-11.3,0-16.9,3.9-16.9,11.8c0,3.8,1.5,6.9,4.4,9.1c2.9,2.2,7,3.3,12.3,3.3C1494.1,880.3,1498.4,879.1,1502,876.8z"/>
	<path d="M1603.3,793.8v92.8h-8.5v-13c-2.7,4.4-6.2,7.8-10.6,10.1c-4.4,2.3-9.3,3.5-14.8,3.5c-6.2,0-11.8-1.4-16.8-4.3
		c-5-2.8-8.9-6.8-11.8-11.9c-2.8-5.1-4.3-10.9-4.3-17.4s1.4-12.3,4.3-17.4c2.8-5.1,6.8-9,11.8-11.8c5-2.8,10.6-4.2,16.8-4.2
		c5.3,0,10.2,1.1,14.4,3.3c4.3,2.2,7.8,5.4,10.6,9.7v-39.5H1603.3z M1582.6,876.2c3.7-2.1,6.6-5.1,8.8-9.1c2.1-3.9,3.2-8.4,3.2-13.4
		s-1.1-9.5-3.2-13.4c-2.1-3.9-5-6.9-8.8-9.1c-3.7-2.1-7.9-3.2-12.4-3.2c-4.7,0-8.9,1.1-12.6,3.2c-3.7,2.1-6.6,5.2-8.8,9.1
		c-2.1,3.9-3.2,8.4-3.2,13.4s1.1,9.5,3.2,13.4c2.1,3.9,5,6.9,8.8,9.1c3.7,2.1,7.9,3.2,12.6,3.2
		C1574.7,879.4,1578.9,878.3,1582.6,876.2z"/>
</g>
</svg>
